<?xml version="1.0" encoding="UTF-8" standalone="no"?>
<!DOCTYPE svg PUBLIC "-//W3C//DTD SVG 1.1//EN"
 "http://www.w3.org/Graphics/SVG/1.1/DTD/svg11.dtd">
<!-- Generated by graphviz version 2.40.1 (0)
 -->
<!-- Title: example1 Pages: 1 -->
<svg
 viewBox="0.00 0.00 259.00 79.00" xmlns="http://www.w3.org/2000/svg" xmlns:xlink="http://www.w3.org/1999/xlink">
<g id="graph0" class="graph" transform="scale(1 1) rotate(0) translate(4 75)">
<title>example1</title>
<polygon fill="#ffffff" stroke="transparent" points="-4,4 -4,-75 255,-75 255,4 -4,4"/>
<!-- A -->
<g id="node1" class="node">
<title>A</title>
<polygon fill="none" stroke="#000000" points="27,-36 0,-18 27,0 54,-18 27,-36"/>
<polyline fill="none" stroke="#000000" points="9,-24 9,-12 "/>
<polyline fill="none" stroke="#000000" points="18,-6 36,-6 "/>
<polyline fill="none" stroke="#000000" points="45,-12 45,-24 "/>
<polyline fill="none" stroke="#000000" points="36,-30 18,-30 "/>
<text text-anchor="middle" x="27" y="-14.3" font-family="Times,serif" font-size="14.00" fill="#000000">A</text>
</g>
<!-- B -->
<g id="node2" class="node">
<title>B</title>
<polygon fill="none" stroke="#000000" points="133,-71 97,-71 97,-35 133,-35 133,-71"/>
<polyline fill="none" stroke="#000000" points="109,-71 97,-59 "/>
<polyline fill="none" stroke="#000000" points="97,-47 109,-35 "/>
<polyline fill="none" stroke="#000000" points="121,-35 133,-47 "/>
<polyline fill="none" stroke="#000000" points="133,-59 121,-71 "/>
<text text-anchor="middle" x="115" y="-49.3" font-family="Times,serif" font-size="14.00" fill="#000000">B</text>
</g>
<!-- A&#45;&gt;B -->
<g id="edge1" class="edge">
<title>A&#45;&gt;B</title>
<path fill="none" stroke="#000000" d="M43.9673,-24.7484C56.3037,-29.6549 73.2689,-36.4024 87.5258,-42.0727"/>
<polygon fill="#000000" stroke="#000000" points="86.2875,-45.3469 96.873,-45.7904 88.8745,-38.8424 86.2875,-45.3469"/>
<text text-anchor="middle" x="75.5" y="-41.8" font-family="Times,serif" font-size="14.00" fill="#000000">a</text>
</g>
<!-- C -->
<g id="node3" class="node">
<title>C</title>
<ellipse fill="none" stroke="#000000" cx="224" cy="-18" rx="27" ry="18"/>
<text text-anchor="middle" x="224" y="-14.3" font-family="Times,serif" font-size="14.00" fill="#000000">C</text>
</g>
<!-- A&#45;&gt;C -->
<g id="edge2" class="edge">
<title>A&#45;&gt;C</title>
<path fill="none" stroke="#000000" d="M49.9717,-15.1205C63.6127,-13.5561 81.2643,-11.7848 97,-11 127.2976,-9.4889 161.6497,-11.6153 186.9803,-13.9104"/>
<polygon fill="#000000" stroke="#000000" points="186.9575,-17.4242 197.2459,-14.8943 187.6254,-10.4561 186.9575,-17.4242"/>
<text text-anchor="middle" x="115" y="-14.8" font-family="Times,serif" font-size="14.00" fill="#000000">[bc]</text>
</g>
<!-- B&#45;&gt;C -->
<g id="edge3" class="edge">
<title>B&#45;&gt;C</title>
<path fill="none" stroke="#000000" d="M133.4904,-47.0627C148.936,-42.1031 171.3661,-34.9008 190.0325,-28.907"/>
<polygon fill="#000000" stroke="#000000" points="191.2186,-32.2022 199.6697,-25.8125 189.0784,-25.5374 191.2186,-32.2022"/>
<text text-anchor="middle" x="165" y="-43.8" font-family="Times,serif" font-size="14.00" fill="#000000">[abc]</text>
</g>
<!-- C&#45;&gt;C -->
<g id="edge4" class="edge">
<title>C&#45;&gt;C</title>
<path fill="none" stroke="#000000" d="M213.7224,-35.0373C211.6249,-44.8579 215.0508,-54 224,-54 229.5933,-54 233.029,-50.4289 234.3071,-45.3529"/>
<polygon fill="#000000" stroke="#000000" points="237.8063,-45.0272 234.2776,-35.0373 230.8063,-45.0473 237.8063,-45.0272"/>
<text text-anchor="middle" x="224" y="-57.8" font-family="Times,serif" font-size="14.00" fill="#000000">[abc]</text>
</g>
</g>
</svg>
