<?xml version="1.0" encoding="UTF-8" standalone="no"?>
<!DOCTYPE svg PUBLIC "-//W3C//DTD SVG 1.1//EN"
 "http://www.w3.org/Graphics/SVG/1.1/DTD/svg11.dtd">
<!-- Generated by graphviz version 2.40.1 (0)
 -->
<!-- Title: example2 Pages: 1 -->
<svg width="253pt" height="44pt"
 viewBox="0.00 0.00 253.00 44.00" xmlns="http://www.w3.org/2000/svg" xmlns:xlink="http://www.w3.org/1999/xlink">
<g id="graph0" class="graph" transform="scale(1 1) rotate(0) translate(4 40)">
<title>example2</title>
<polygon fill="#ffffff" stroke="transparent" points="-4,4 -4,-40 249,-40 249,4 -4,4"/>
<!-- A -->
<g id="node1" class="node">
<title>A</title>
<polygon fill="none" stroke="#000000" points="27,-36 0,-18 27,0 54,-18 27,-36"/>
<polyline fill="none" stroke="#000000" points="9,-24 9,-12 "/>
<polyline fill="none" stroke="#000000" points="18,-6 36,-6 "/>
<polyline fill="none" stroke="#000000" points="45,-12 45,-24 "/>
<polyline fill="none" stroke="#000000" points="36,-30 18,-30 "/>
<text text-anchor="middle" x="27" y="-14.3" font-family="Times,serif" font-size="14.00" fill="#000000">A</text>
</g>
<!-- B -->
<g id="node3" class="node">
<title>B</title>
<ellipse fill="none" stroke="#000000" cx="139" cy="-18" rx="27" ry="18"/>
<text text-anchor="middle" x="139" y="-14.3" font-family="Times,serif" font-size="14.00" fill="#000000">B</text>
</g>
<!-- A&#45;&gt;B -->
<g id="edge1" class="edge">
<title>A&#45;&gt;B</title>
<path fill="none" stroke="#000000" d="M54.1121,-18C68.3143,-18 85.9303,-18 101.4272,-18"/>
<polygon fill="#000000" stroke="#000000" points="101.7494,-21.5001 111.7494,-18 101.7494,-14.5001 101.7494,-21.5001"/>
<text text-anchor="middle" x="83" y="-21.8" font-family="Times,serif" font-size="14.00" fill="#000000">[ab]</text>
</g>
<!-- C -->
<g id="node2" class="node">
<title>C</title>
<polygon fill="none" stroke="#000000" points="245,-36 209,-36 209,0 245,0 245,-36"/>
<polyline fill="none" stroke="#000000" points="221,-36 209,-24 "/>
<polyline fill="none" stroke="#000000" points="209,-12 221,0 "/>
<polyline fill="none" stroke="#000000" points="233,0 245,-12 "/>
<polyline fill="none" stroke="#000000" points="245,-24 233,-36 "/>
<text text-anchor="middle" x="227" y="-14.3" font-family="Times,serif" font-size="14.00" fill="#000000">C</text>
</g>
<!-- B&#45;&gt;C -->
<g id="edge2" class="edge">
<title>B&#45;&gt;C</title>
<path fill="none" stroke="#000000" d="M166.3614,-18C176.6217,-18 188.2977,-18 198.6461,-18"/>
<polygon fill="#000000" stroke="#000000" points="198.8348,-21.5001 208.8347,-18 198.8347,-14.5001 198.8348,-21.5001"/>
<text text-anchor="middle" x="187.5" y="-21.8" font-family="Times,serif" font-size="14.00" fill="#000000">a</text>
</g>
</g>
</svg>
