<?xml version="1.0" encoding="UTF-8" standalone="no"?>
<!DOCTYPE svg PUBLIC "-//W3C//DTD SVG 1.1//EN"
 "http://www.w3.org/Graphics/SVG/1.1/DTD/svg11.dtd">
<!-- Generated by graphviz version 2.40.1 (0)
 -->
<!-- Title: example3 Pages: 1 -->
<svg width="253pt" height="112pt"
 viewBox="0.00 0.00 253.00 112.00" xmlns="http://www.w3.org/2000/svg" xmlns:xlink="http://www.w3.org/1999/xlink">
<g id="graph0" class="graph" transform="scale(1 1) rotate(0) translate(4 108)">
<title>example3</title>
<polygon fill="#ffffff" stroke="transparent" points="-4,4 -4,-108 249,-108 249,4 -4,4"/>
<!-- C -->
<g id="node1" class="node">
<title>C</title>
<polygon fill="none" stroke="#000000" points="27,-36 0,-18 27,0 54,-18 27,-36"/>
<polyline fill="none" stroke="#000000" points="9,-24 9,-12 "/>
<polyline fill="none" stroke="#000000" points="18,-6 36,-6 "/>
<polyline fill="none" stroke="#000000" points="45,-12 45,-24 "/>
<polyline fill="none" stroke="#000000" points="36,-30 18,-30 "/>
<text text-anchor="middle" x="27" y="-14.3" font-family="Times,serif" font-size="14.00" fill="#000000">C</text>
</g>
<!-- A -->
<g id="node2" class="node">
<title>A</title>
<polygon fill="none" stroke="#000000" points="133,-71 97,-71 97,-35 133,-35 133,-71"/>
<polyline fill="none" stroke="#000000" points="109,-71 97,-59 "/>
<polyline fill="none" stroke="#000000" points="97,-47 109,-35 "/>
<polyline fill="none" stroke="#000000" points="121,-35 133,-47 "/>
<polyline fill="none" stroke="#000000" points="133,-59 121,-71 "/>
<text text-anchor="middle" x="115" y="-49.3" font-family="Times,serif" font-size="14.00" fill="#000000">A</text>
</g>
<!-- C&#45;&gt;A -->
<g id="edge4" class="edge">
<title>C&#45;&gt;A</title>
<path fill="none" stroke="#000000" d="M43.9673,-24.7484C56.3037,-29.6549 73.2689,-36.4024 87.5258,-42.0727"/>
<polygon fill="#000000" stroke="#000000" points="86.2875,-45.3469 96.873,-45.7904 88.8745,-38.8424 86.2875,-45.3469"/>
<text text-anchor="middle" x="75.5" y="-41.8" font-family="Times,serif" font-size="14.00" fill="#000000">a</text>
</g>
<!-- B -->
<g id="node3" class="node">
<title>B</title>
<ellipse fill="none" stroke="#000000" cx="218" cy="-18" rx="27" ry="18"/>
<text text-anchor="middle" x="218" y="-14.3" font-family="Times,serif" font-size="14.00" fill="#000000">B</text>
</g>
<!-- C&#45;&gt;B -->
<g id="edge5" class="edge">
<title>C&#45;&gt;B</title>
<path fill="none" stroke="#000000" d="M49.9717,-15.1205C63.6127,-13.5561 81.2643,-11.7848 97,-11 125.1926,-9.5939 157.0642,-11.5836 181.0177,-13.7963"/>
<polygon fill="#000000" stroke="#000000" points="180.8004,-17.2917 191.0939,-14.783 181.4827,-10.325 180.8004,-17.2917"/>
<text text-anchor="middle" x="115" y="-14.8" font-family="Times,serif" font-size="14.00" fill="#000000">[bc]</text>
</g>
<!-- A&#45;&gt;A -->
<g id="edge1" class="edge">
<title>A&#45;&gt;A</title>
<path fill="none" stroke="#000000" d="M108.1255,-71.1527C107.0679,-80.5391 109.3594,-89 115,-89 118.4373,-89 120.6309,-85.8581 121.5808,-81.2796"/>
<polygon fill="#000000" stroke="#000000" points="125.083,-81.25 121.8745,-71.1527 118.086,-81.047 125.083,-81.25"/>
<text text-anchor="middle" x="115" y="-92.8" font-family="Times,serif" font-size="14.00" fill="#000000">a</text>
</g>
<!-- A&#45;&gt;B -->
<g id="edge2" class="edge">
<title>A&#45;&gt;B</title>
<path fill="none" stroke="#000000" d="M133.4143,-46.7427C147.5386,-41.9432 167.4207,-35.1871 184.3603,-29.431"/>
<polygon fill="#000000" stroke="#000000" points="185.5861,-32.7111 193.9283,-26.1797 183.3339,-26.0833 185.5861,-32.7111"/>
<text text-anchor="middle" x="162" y="-43.8" font-family="Times,serif" font-size="14.00" fill="#000000">[bc]</text>
</g>
<!-- B&#45;&gt;B -->
<g id="edge3" class="edge">
<title>B&#45;&gt;B</title>
<path fill="none" stroke="#000000" d="M208.0768,-35.0373C206.0516,-44.8579 209.3594,-54 218,-54 223.4004,-54 226.7176,-50.4289 227.9517,-45.3529"/>
<polygon fill="#000000" stroke="#000000" points="231.4509,-45.0276 227.9232,-35.0373 224.4509,-45.047 231.4509,-45.0276"/>
<text text-anchor="middle" x="218" y="-57.8" font-family="Times,serif" font-size="14.00" fill="#000000">[abc]</text>
</g>
</g>
</svg>
