<?xml version="1.0" encoding="UTF-8" standalone="no"?>
<!DOCTYPE svg PUBLIC "-//W3C//DTD SVG 1.1//EN"
 "http://www.w3.org/Graphics/SVG/1.1/DTD/svg11.dtd">
<!-- Generated by graphviz version 2.40.1 (0)
 -->
<!-- Title: example2 Pages: 1 -->
<svg width="174pt" height="77pt"
 viewBox="0.00 0.00 174.00 77.00" xmlns="http://www.w3.org/2000/svg" xmlns:xlink="http://www.w3.org/1999/xlink">
<g id="graph0" class="graph" transform="scale(1 1) rotate(0) translate(4 73)">
<title>example2</title>
<polygon fill="#ffffff" stroke="transparent" points="-4,4 -4,-73 170,-73 170,4 -4,4"/>
<!-- A -->
<g id="node1" class="node">
<title>A</title>
<polygon fill="none" stroke="#000000" points="27,-36 0,-18 27,0 54,-18 27,-36"/>
<polyline fill="none" stroke="#000000" points="9,-24 9,-12 "/>
<polyline fill="none" stroke="#000000" points="18,-6 36,-6 "/>
<polyline fill="none" stroke="#000000" points="45,-12 45,-24 "/>
<polyline fill="none" stroke="#000000" points="36,-30 18,-30 "/>
<text text-anchor="middle" x="27" y="-14.3" font-family="Times,serif" font-size="14.00" fill="#000000">A</text>
</g>
<!-- A&#45;&gt;A -->
<g id="edge1" class="edge">
<title>A&#45;&gt;A</title>
<path fill="none" stroke="#000000" d="M18.3688,-30.5448C14.1698,-41.8696 17.0469,-54 27,-54 33.9983,-54 37.4983,-48.0029 37.5,-40.5055"/>
<polygon fill="#000000" stroke="#000000" points="40.9153,-39.7279 35.6312,-30.5448 34.0353,-41.0187 40.9153,-39.7279"/>
<text text-anchor="middle" x="27" y="-57.8" font-family="Times,serif" font-size="14.00" fill="#000000">a</text>
</g>
<!-- B -->
<g id="node2" class="node">
<title>B</title>
<ellipse fill="none" stroke="#000000" cx="139" cy="-18" rx="27" ry="18"/>
<text text-anchor="middle" x="139" y="-14.3" font-family="Times,serif" font-size="14.00" fill="#000000">B</text>
</g>
<!-- A&#45;&gt;B -->
<g id="edge2" class="edge">
<title>A&#45;&gt;B</title>
<path fill="none" stroke="#000000" d="M54.1121,-18C68.3143,-18 85.9303,-18 101.4272,-18"/>
<polygon fill="#000000" stroke="#000000" points="101.7494,-21.5001 111.7494,-18 101.7494,-14.5001 101.7494,-21.5001"/>
<text text-anchor="middle" x="83" y="-21.8" font-family="Times,serif" font-size="14.00" fill="#000000">[bc]</text>
</g>
<!-- B&#45;&gt;B -->
<g id="edge3" class="edge">
<title>B&#45;&gt;B</title>
<path fill="none" stroke="#000000" d="M129.0768,-35.0373C127.0516,-44.8579 130.3594,-54 139,-54 144.4004,-54 147.7176,-50.4289 148.9517,-45.3529"/>
<polygon fill="#000000" stroke="#000000" points="152.4509,-45.0276 148.9232,-35.0373 145.4509,-45.047 152.4509,-45.0276"/>
<text text-anchor="middle" x="139" y="-57.8" font-family="Times,serif" font-size="14.00" fill="#000000">[abc]</text>
</g>
</g>
</svg>
