<svg width="52.5475mm" height="8.17316mm" version="1.1" viewBox="0 0 52.5475 8.17316" xmlns="http://www.w3.org/2000/svg"><g transform="translate(-63.6853 -59.0167)"><g><path d="m67.2187 62.663q0.508-0.846667 0.993424-1.71591 0.485423-0.869244 0.880533-1.74978h1.58044q-0.632177 1.19662-1.3208 2.38195-0.677333 1.17405-1.45627 2.37067v3.07058h-1.4224v-3.048q-0.778934-1.20791-1.46755-2.39325-0.688623-1.18533-1.3208-2.38195h1.67075q0.395113 0.880533 0.869246 1.74978 0.474133 0.869243 0.99342 1.71591z" style="font-variant-caps:normal;font-variant-ligatures:normal;font-variant-numeric:normal"/><path d="m73.5405 65.9594q0.767643 0 1.1176-0.259643 0.349954-0.259646 0.349954-0.73378 0-0.28222-0.124177-0.48542-0.11289-0.2032-0.338667-0.361246-0.21449-0.169334-0.530577-0.3048-0.31609-0.146754-0.72249-0.282221-0.4064-0.146756-0.790223-0.31609-0.372533-0.180623-0.666043-0.440266-0.282223-0.259644-0.462844-0.62089-0.169333-0.361244-0.169333-0.869244 0-1.06116 0.733777-1.65947 0.733777-0.6096 1.99813-0.6096 0.733777 0 1.29822 0.169333 0.575734 0.158044 0.90311 0.349957l-0.440266 1.15147q-0.383823-0.21449-0.846667-0.327379-0.451556-0.112887-0.936977-0.112887-0.575733 0-0.903113 0.237066-0.316087 0.237067-0.316087 0.666044 0 0.259643 0.1016 0.451556 0.112887 0.180621 0.3048 0.327377 0.2032 0.146756 0.462844 0.270933 0.270933 0.124177 0.587023 0.237067 0.553154 0.2032 0.982133 0.41769 0.440267 0.2032 0.733777 0.49671 0.3048 0.282223 0.462844 0.677333 0.158046 0.383823 0.158046 0.936977 0 1.06116-0.756357 1.64818-0.745066 0.575733-2.19004 0.575733-0.485423 0-0.891823-0.06773-0.39511-0.05645-0.7112-0.146757-0.3048-0.09031-0.530577-0.180623-0.22578-0.1016-0.361246-0.18062l0.417689-1.16276q0.3048 0.169334 0.82409 0.338667 0.519287 0.169333 1.25307 0.169333z" style="font-variant-caps:normal;font-variant-ligatures:normal;font-variant-numeric:normal"/><path d="m82.9222 67.0205q-0.158043-0.462846-0.327377-0.9144-0.169333-0.451557-0.327377-0.92569h-3.29636q-0.158044 0.474133-0.327377 0.936977-0.158046 0.451556-0.31609 0.903113h-1.47884q0.440267-1.25307 0.835377-2.31422 0.39511-1.06116 0.767643-2.00942 0.383823-0.948267 0.756357-1.80622 0.372533-0.857956 0.767643-1.69333h1.34338q0.39511 0.835377 0.767643 1.69333 0.372534 0.857954 0.745067 1.80622 0.383823 0.948266 0.778933 2.00942 0.4064 1.06116 0.846667 2.31422zm-2.30293-6.31049q-0.259644 0.59831-0.59831 1.45627-0.327377 0.857956-0.688623 1.86267h2.57387q-0.361243-1.00471-0.69991-1.87396-0.338667-0.869244-0.587023-1.44498z" style="font-variant-caps:normal;font-variant-ligatures:normal;font-variant-numeric:normal"/><path d="m87.6026 59.1183q1.69333 0 2.58516 0.62089 0.90311 0.620887 0.90311 1.89653 0 1.59173-1.56916 2.15618 0.21449 0.259643 0.485423 0.632177 0.270933 0.372533 0.553156 0.8128 0.282221 0.428979 0.541867 0.891823 0.259644 0.451556 0.462844 0.891823h-1.59173q-0.214489-0.4064-0.462843-0.8128-0.248357-0.41769-0.508-0.801513-0.248357-0.39511-0.496713-0.733777-0.248354-0.349956-0.462844-0.62089-0.158043 0.0113-0.270933 0.0113t-0.21449 0h-0.68862v2.95769h-1.4224v-7.71031q0.51929-0.112887 1.10631-0.146754 0.587023-0.04516 1.04987-0.04516zm0.1016 1.23049q-0.451557 0-0.835377 0.03387v2.52871h0.620887q0.51929 0 0.9144-0.05644 0.395113-0.05645 0.654756-0.2032 0.270934-0.146757 0.4064-0.395113 0.135467-0.248354 0.135467-0.632177 0-0.361243-0.135467-0.6096-0.135466-0.248356-0.39511-0.39511-0.248356-0.146757-0.598313-0.2032-0.349954-0.06773-0.767643-0.06773z" style="font-variant-caps:normal;font-variant-ligatures:normal;font-variant-numeric:normal"/></g><g fill="#40a7bf"><path d="m94.2782 66.2754q0 0.39511-0.270933 0.643467-0.259646 0.248354-0.632179 0.248354-0.383821 0-0.643467-0.248354-0.259644-0.248357-0.259644-0.643467 0-0.395113 0.259644-0.643467 0.259646-0.259646 0.643467-0.259646 0.372533 0 0.632179 0.259646 0.270933 0.248354 0.270933 0.643467z" style="font-variant-caps:normal;font-variant-ligatures:normal;font-variant-numeric:normal"/><path d="m101.081 67.0205q-0.38382-0.643467-0.85795-1.37725-0.474135-0.745067-0.982135-1.49013-0.508-0.756354-1.03858-1.45627-0.519287-0.7112-0.993421-1.27564v5.59929h-1.39982v-7.8232h1.16276q0.451553 0.474133 0.970843 1.12889 0.51929 0.643467 1.03858 1.34338 0.53058 0.699911 1.016 1.41111 0.496711 0.69991 0.880531 1.30951v-5.19289h1.41112v7.8232z" style="font-variant-caps:normal;font-variant-ligatures:normal;font-variant-numeric:normal"/><path d="m104.166 67.0205v-7.8232h5.02355v1.20791h-3.60115v1.9304h3.20604v1.18533h-3.20604v2.29164h3.87209v1.20791z" style="font-variant-caps:normal;font-variant-ligatures:normal;font-variant-numeric:normal"/><path d="m116.233 59.1973v1.23049h-2.40453v6.59271h-1.43369v-6.59271h-2.40453v-1.23049z" style="font-variant-caps:normal;font-variant-ligatures:normal;font-variant-numeric:normal"/></g></g></svg>
