<svg version="1.1" viewBox="0 0 37.035 3.2001" xmlns="http://www.w3.org/2000/svg" xmlns:xlink="http://www.w3.org/1999/xlink"><defs><symbol id="d" overflow="visible"><path d="m2.9375-6.375c0-.25 0-.26562-.23438-.26562-.625.64062-1.5.64062-1.8125.64062v.3125c.20312 0 .78125 0 1.2969-.26562v5.1719c0 .35938-.03125.46875-.92188.46875h-.3125v.3125c.34375-.03125 1.2031-.03125 1.6094-.03125.39062 0 1.2656 0 1.6094.03125v-.3125h-.3125c-.90625 0-.92188-.10938-.92188-.46875z"/></symbol><symbol id="c" overflow="visible"><path d="m4.0781-2.2969h2.7812c.14062 0 .32812 0 .32812-.20312 0-.1875-.1875-.1875-.32812-.1875h-2.7812v-2.7969c0-.14062 0-.32812-.20312-.32812s-.20312.1875-.20312.32812v2.7969h-2.7812c-.14062 0-.32812 0-.32812.1875 0 .20312.1875.20312.32812.20312h2.7812v2.7969c0 .14062 0 .32812.20312.32812s.20312-.1875.20312-.32812z"/></symbol><symbol id="j" overflow="visible"><path d="m1.2656-.76562 1.0625-1.0312c1.5469-1.375 2.1406-1.9062 2.1406-2.9062 0-1.1406-.89062-1.9375-2.1094-1.9375-1.125 0-1.8594.92188-1.8594 1.8125 0 .54688.5.54688.53125.54688.17188 0 .51562-.10938.51562-.53125 0-.25-.1875-.51562-.53125-.51562-.078125 0-.09375 0-.125.015625.21875-.65625.76562-1.0156 1.3438-1.0156.90625 0 1.3281.8125 1.3281 1.625 0 .79688-.48438 1.5781-1.0469 2.2031l-1.9062 2.125c-.10938.10938-.10938.14062-.10938.375h3.7031l.26562-1.7344h-.23438c-.0625.29688-.125.73438-.23438.89062-.0625.078125-.71875.078125-.9375.078125z"/></symbol><symbol id="i" overflow="visible"><path d="m4.5781-3.1875c0-.79688-.046875-1.5938-.39062-2.3281-.45312-.96875-1.2812-1.125-1.6875-1.125-.60938 0-1.3281.26562-1.75 1.1875-.3125.6875-.35938 1.4688-.35938 2.2656 0 .75.03125 1.6406.45312 2.4062.42188.79688 1.1562 1 1.6406 1 .53125 0 1.2969-.20312 1.7344-1.1562.3125-.6875.35938-1.4688.35938-2.25zm-2.0938 3.1875c-.39062 0-.98438-.25-1.1562-1.2031-.10938-.59375-.10938-1.5156-.10938-2.1094 0-.64062 0-1.2969.078125-1.8281.1875-1.1875.9375-1.2812 1.1875-1.2812.32812 0 .98438.1875 1.1719 1.1719.10938.5625.10938 1.3125.10938 1.9375 0 .75 0 1.4219-.10938 2.0625-.15625.95312-.71875 1.25-1.1719 1.25z"/></symbol><symbol id="h" overflow="visible"><path d="m6.8438-3.2656c.15625 0 .34375 0 .34375-.1875 0-.20312-.1875-.20312-.32812-.20312h-5.9688c-.14062 0-.32812 0-.32812.20312 0 .1875.1875.1875.32812.1875zm.015625 1.9375c.14062 0 .32812 0 .32812-.20312 0-.1875-.1875-.1875-.34375-.1875h-5.9531c-.14062 0-.32812 0-.32812.1875 0 .20312.1875.20312.32812.20312z"/></symbol><symbol id="g" overflow="visible"><path d="m2.8906-3.5156c.8125-.26562 1.3906-.95312 1.3906-1.75 0-.8125-.875-1.375-1.8281-1.375-1 0-1.7656.59375-1.7656 1.3594 0 .32812.21875.51562.51562.51562s.5-.21875.5-.51562c0-.48438-.46875-.48438-.60938-.48438.29688-.5.95312-.625 1.3125-.625.42188 0 .96875.21875.96875 1.1094 0 .125-.03125.70312-.28125 1.1406-.29688.48438-.64062.51562-.89062.51562-.078125.015625-.3125.03125-.39062.03125-.078125.015625-.14062.03125-.14062.125 0 .10938.0625.10938.23438.10938h.4375c.8125 0 1.1875.67188 1.1875 1.6562 0 1.3594-.6875 1.6406-1.125 1.6406s-1.1875-.17188-1.5312-.75c.34375.046875.65625-.17188.65625-.54688 0-.35938-.26562-.5625-.54688-.5625-.25 0-.5625.14062-.5625.57812 0 .90625.92188 1.5625 2.0156 1.5625 1.2188 0 2.125-.90625 2.125-1.9219 0-.8125-.64062-1.5938-1.6719-1.8125z"/></symbol><symbol id="f" overflow="visible"><path d="m1.625-4.5625c-.45312-.29688-.5-.625-.5-.79688 0-.60938.65625-1.0312 1.3594-1.0312.71875 0 1.3594.51562 1.3594 1.2344 0 .57812-.39062 1.0469-.98438 1.3906zm1.4531.95312c.71875-.375 1.2031-.89062 1.2031-1.5469 0-.92188-.875-1.4844-1.7812-1.4844-1 0-1.8125.73438-1.8125 1.6719 0 .17188.015625.625.4375 1.0938.10938.10938.48438.35938.73438.53125-.57812.29688-1.4375.84375-1.4375 1.8438 0 1.0469 1.0156 1.7188 2.0625 1.7188 1.125 0 2.0781-.82812 2.0781-1.8906 0-.35938-.10938-.8125-.5-1.2344-.1875-.20312-.34375-.29688-.98438-.70312zm-1 .42188 1.2344.78125c.28125.1875.75.48438.75 1.0938 0 .73438-.75 1.25-1.5625 1.25-.85938 0-1.5781-.60938-1.5781-1.4375 0-.57812.3125-1.2188 1.1562-1.6875z"/></symbol><symbol id="e" overflow="visible"><path d="m4.4688-2c0-1.1875-.8125-2.1875-1.8906-2.1875-.46875 0-.90625.15625-1.2656.51562v-1.9531c.20312.0625.53125.125.84375.125 1.2344 0 1.9375-.90625 1.9375-1.0312 0-.0625-.03125-.10938-.10938-.10938 0 0-.03125 0-.078125.03125-.20312.09375-.6875.29688-1.3594.29688-.39062 0-.85938-.078125-1.3281-.28125-.078125-.03125-.09375-.03125-.10938-.03125-.10938 0-.10938.078125-.10938.23438v2.9531c0 .17188 0 .25.14062.25.078125 0 .09375-.015625.14062-.078125.10938-.15625.46875-.70312 1.2812-.70312.51562 0 .76562.45312.84375.64062.15625.375.1875.75.1875 1.25 0 .35938 0 .95312-.25 1.375-.23438.39062-.60938.64062-1.0625.64062-.71875 0-1.2969-.53125-1.4688-1.1094.03125 0 .0625.015625.17188.015625.32812 0 .5-.25.5-.48438 0-.25-.17188-.5-.5-.5-.14062 0-.48438.078125-.48438.53125 0 .85938.6875 1.8281 1.7969 1.8281 1.1562 0 2.1719-.95312 2.1719-2.2188z"/></symbol><symbol id="b" overflow="visible"><path d="m3.5156-1.2656h-.23438c-.015625.15625-.09375.5625-.1875.625-.046875.046875-.57812.046875-.6875.046875h-1.2812c.73438-.64062.98438-.84375 1.3906-1.1719.51562-.40625 1-.84375 1-1.5 0-.84375-.73438-1.3594-1.625-1.3594-.85938 0-1.4531.60938-1.4531 1.25 0 .34375.29688.39062.375.39062.15625 0 .35938-.125.35938-.375 0-.125-.046875-.375-.40625-.375.21875-.48438.6875-.64062 1.0156-.64062.70312 0 1.0625.54688 1.0625 1.1094 0 .60938-.4375 1.0781-.65625 1.3281l-1.6719 1.6719c-.078125.0625-.078125.078125-.078125.26562h2.875z"/></symbol><symbol id="a" overflow="visible"><path d="m1.9062-.53125c0-.28125-.23438-.53125-.51562-.53125-.29688 0-.53125.25-.53125.53125 0 .29688.23438.53125.53125.53125.28125 0 .51562-.23438.51562-.53125z"/></symbol></defs><g transform="translate(-35.645 -62.751)"><g><g transform="matrix(.35278 0 0 .35278 35.431 62.567)"><use x="-0.28398401" y="8.7660198" width="100%" height="100%" xlink:href="#d"/></g><g transform="matrix(.35278 0 0 .35278 35.431 62.567)"><use x="4.692966" y="5.1480498" width="100%" height="100%" xlink:href="#b"/></g><g transform="matrix(.35278 0 0 .35278 35.431 62.567)"><use x="11.380076" y="8.7660198" width="100%" height="100%" xlink:href="#c"/></g><g transform="matrix(.35278 0 0 .35278 35.431 62.567)"><use x="21.342964" y="8.7660198" width="100%" height="100%" xlink:href="#j"/></g><g transform="matrix(.35278 0 0 .35278 35.431 62.567)"><use x="26.319876" y="5.1480498" width="100%" height="100%" xlink:href="#b"/></g><g transform="matrix(.35278 0 0 .35278 35.431 62.567)"><use x="33.006985" y="8.7660198" width="100%" height="100%" xlink:href="#c"/></g><g transform="matrix(.35278 0 0 .35278 35.431 62.567)"><use x="42.969875" y="8.7660198" width="100%" height="100%" xlink:href="#a"/></g><g transform="matrix(.35278 0 0 .35278 35.431 62.567)"><use x="45.73288" y="8.7660198" width="100%" height="100%" xlink:href="#a"/></g><g transform="matrix(.35278 0 0 .35278 35.431 62.567)"><use x="48.49588" y="8.7660198" width="100%" height="100%" xlink:href="#a"/></g><g transform="matrix(.35278 0 0 .35278 35.431 62.567)"><use x="53.481976" y="8.7660198" width="100%" height="100%" xlink:href="#c"/></g><g transform="matrix(.35278 0 0 .35278 35.431 62.567)"><use x="63.444866" y="8.7660198" width="100%" height="100%" xlink:href="#d"/></g><g transform="matrix(.35278 0 0 .35278 35.431 62.567)"><use x="68.421867" y="8.7660198" width="100%" height="100%" xlink:href="#i"/></g><g transform="matrix(.35278 0 0 .35278 35.431 62.567)"><use x="73.398773" y="5.1480498" width="100%" height="100%" xlink:href="#b"/></g><g transform="matrix(.35278 0 0 .35278 35.431 62.567)"><use x="80.644089" y="8.7660198" width="100%" height="100%" xlink:href="#h"/></g><g transform="matrix(.35278 0 0 .35278 35.431 62.567)"><use x="91.165184" y="8.7660198" width="100%" height="100%" xlink:href="#g"/></g><g transform="matrix(.35278 0 0 .35278 35.431 62.567)"><use x="96.142189" y="8.7660198" width="100%" height="100%" xlink:href="#f"/></g><g transform="matrix(.35278 0 0 .35278 35.431 62.567)"><use x="101.11919" y="8.7660198" width="100%" height="100%" xlink:href="#e"/></g></g></g></svg>
