<svg version="1.1" viewBox="0 0 44.286 3.0169" xmlns="http://www.w3.org/2000/svg"><g transform="translate(-130.56 -136.74)"><g transform="matrix(.35278 0 0 -.35278 44.81 384.59)" fill="#000000" font-size="9.9626px"><text transform="matrix(1 0 0 -1 241.97 695.17)" font-family="CMR10"><tspan x="0" y="0">1</tspan></text><text transform="matrix(1 0 0 -1 246.96 695.17)" font-family="CMMI10"><tspan x="0" y="0">,</tspan></text><text transform="matrix(1 0 0 -1 251.38 695.17)" font-family="CMR10"><tspan x="0" y="0">2</tspan></text><text transform="matrix(1 0 0 -1 256.36 695.17)" font-family="CMMI10"><tspan x="0" y="0">,</tspan></text><text transform="matrix(1 0 0 -1 260.79 695.17)" font-family="CMR10"><tspan x="0" y="0">3</tspan></text><text transform="matrix(1 0 0 -1 265.77 695.17)" font-family="CMMI10"><tspan x="0" y="0">,</tspan></text><text transform="matrix(1 0 0 -1 270.2 695.17)" font-family="CMR10"><tspan x="0" y="0">5</tspan></text><text transform="matrix(1 0 0 -1 275.18 695.17)" font-family="CMMI10"><tspan x="0" y="0">,</tspan></text><text transform="matrix(1,0,0,-1,279.61,695.17)" font-family="CMR10"><tspan x="0" y="0">8</tspan></text><text transform="matrix(1 0 0 -1 284.59 695.17)" font-family="CMMI10"><tspan x="0" y="0">,</tspan></text><text transform="matrix(1 0 0 -1 289.02 695.17)" font-family="CMR10"><tspan x="0 4.9812999" y="0">13</tspan></text><text transform="matrix(1 0 0 -1 298.98 695.17)" font-family="CMMI10"><tspan x="0" y="0">,</tspan></text><text transform="matrix(1,0,0,-1,303.41,695.17)" font-family="CMR10"><tspan x="0 4.9812999" y="0">21</tspan></text><text transform="matrix(1 0 0 -1 313.37 695.17)" font-family="CMMI10"><tspan x="0" y="0">,</tspan></text><text transform="matrix(1,0,0,-1,317.8,695.17)" font-family="CMR10"><tspan x="0 4.9812999" y="0">34</tspan></text><text transform="matrix(1 0 0 -1 327.76 695.17)" font-family="CMMI10"><tspan x="0" y="0">,</tspan></text><text transform="matrix(1 0 0 -1 332.19 695.17)" font-family="CMR10"><tspan x="0 4.9812999" y="0">55</tspan></text><text transform="matrix(1 0 0 -1 342.15 695.17)" font-family="CMMI10"><tspan x="0" y="0">,</tspan></text><text transform="matrix(1 0 0 -1 346.58 695.17)" font-family="CMR10"><tspan x="0 4.9812999" y="0">89</tspan></text><text transform="matrix(1 0 0 -1 356.54 695.17)" font-family="CMMI10"><tspan x="0 4.4313645 7.1989746 9.9665852" y="0">,...</tspan></text></g></g></svg>
