<svg width="297mm" height="121mm" version="1.1" viewBox="0 0 297 121" xmlns="http://www.w3.org/2000/svg"><g transform="translate(0,-176)"><g transform="translate(-2.61286 .745305)"><g transform="translate(.745305 56.6432)" fill="none" stroke="#000" stroke-width=".6"><rect x="5.58979" y="201.601" width="18.6326" height="18.6326"/><rect x="34.4911" y="201.601" width="18.6326" height="18.6326"/><rect x="63.3923" y="201.601" width="18.6326" height="18.6326"/><rect x="92.2936" y="201.601" width="18.6326" height="18.6326"/><rect x="121.195" y="201.601" width="18.6326" height="18.6326"/><rect x="150.096" y="201.601" width="18.6326" height="18.6326"/><rect x="178.997" y="201.601" width="18.6326" height="18.6326"/><rect x="207.899" y="201.601" width="18.6326" height="18.6326"/><rect x="236.8" y="201.601" width="18.6326" height="18.6326"/><rect x="265.701" y="201.601" width="18.6326" height="18.6326"/></g><flowRoot transform="matrix(.264583 0 0 .264583 9.31631 182.772)" fill="#000000" font-family="Snoopy" font-size="64px" word-spacing="0px" style="line-height:1.25" xml:space="preserve"><flowRegion font-size="64px" letter-spacing=".08px"><rect x="1.40845" y="285.25" width="1101.41" height="192.958"/></flowRegion><flowPara letter-spacing="80px">2106554958</flowPara></flowRoot></g><g transform="matrix(0 .0453759 -.0453759 0 20.917 244.967)"><polygon points="247.35 153 94.35 0 58.65 35.7 175.95 153 58.65 270.3 94.35 306"/></g><g transform="matrix(0 -.0453759 .0453759 0 7.77725 292.39)" fill="#f00"><g fill="#f00"><g fill="#f00"><polygon points="175.95 153 58.65 270.3 94.35 306 247.35 153 94.35 0 58.65 35.7" fill="#f00"/></g></g></g><g transform="translate(-4.47183 82.7289)" fill="#000000" font-family="Snoopy" font-size="42.6667px" letter-spacing="0px" word-spacing="0px"><flowRoot transform="matrix(.264583 0 0 .264583 2.10355 85.5094)" style="line-height:1.25" xml:space="preserve"><flowRegion font-size="42.6667px"><rect x="19.7183" y="61.3064" width="261.972" height="57.7465"/></flowRegion><flowPara>max_carpim = 0</flowPara></flowRoot><flowRoot transform="matrix(.264583 0 0 .264583 -.505075 78.3996)" style="font-feature-settings:normal;font-variant-caps:normal;font-variant-ligatures:normal;font-variant-numeric:normal;line-height:1.25" xml:space="preserve"><flowRegion><rect x="29.5775" y="147.222" width="432.394" height="64.7887"/></flowRegion><flowPara>max_carpim_baslangic = 0</flowPara></flowRoot><flowRoot transform="matrix(.264583 0 0 .264583 -1.11796 82.5282)" style="font-feature-settings:normal;font-variant-caps:normal;font-variant-ligatures:normal;font-variant-numeric:normal;line-height:1.25" xml:space="preserve"><flowRegion><rect x="32.3944" y="182.433" width="250.704" height="53.5211"/></flowRegion><flowPara>ara_carpim = 1</flowPara></flowRoot></g></g></svg>
