<svg version="1.1" viewBox="0 0 276.254 132.989" xmlns="http://www.w3.org/2000/svg" xmlns:xlink="http://www.w3.org/1999/xlink"><defs><symbol id="g" overflow="visible"><path d="m1.46875-0.390625c0-0.03125 0.00391-0.082031 0.015625-0.15625l0.796875-3.15625c0.039063-0.1875 0.066406-0.363281 0.078125-0.53125 0-0.207031-0.070312-0.3125-0.203125-0.3125-0.085937 0-0.167969 0.054687-0.25 0.15625-0.074219 0.09375-0.136719 0.214844-0.1875 0.359375-0.054687 0.136719-0.101562 0.28125-0.140625 0.4375-0.042969 0.148437-0.074219 0.257812-0.09375 0.328125-0.023437 0.085937-0.0625 0.132812-0.125 0.140625h-0.390625c-0.09375-0.019531-0.140625-0.066406-0.140625-0.140625 0-0.00781 0.003906-0.03125 0.015625-0.0625 0.101563-0.4375 0.265625-0.820313 0.484375-1.15625 0.226563-0.34375 0.519531-0.515625 0.875-0.515625 0.28125 0 0.539063 0.0625 0.78125 0.1875 0.238281 0.125 0.398438 0.3125 0.484375 0.5625 0.238281-0.238281 0.5-0.421875 0.78125-0.546875 0.28125-0.132813 0.570313-0.203125 0.875-0.203125 0.289063 0 0.550781 0.042969 0.78125 0.125 0.238281 0.085937 0.425781 0.21875 0.5625 0.40625 0.144531 0.179687 0.21875 0.417969 0.21875 0.71875 0 0.304687-0.074219 0.679687-0.21875 1.125-0.136719 0.4375-0.308594 0.921875-0.515625 1.45312-0.105469 0.292969-0.15625 0.507812-0.15625 0.640625 0 0.117187 0.039063 0.171875 0.125 0.171875 0.257813 0 0.46875-0.132813 0.625-0.40625 0.164063-0.28125 0.289063-0.59375 0.375-0.9375 0.00781-0.039063 0.054688-0.070313 0.140625-0.09375h0.375c0.09375 0.03125 0.140625 0.085937 0.140625 0.15625 0 0.011719-0.00781 0.03125-0.015625 0.0625-0.105469 0.429687-0.3125 0.8125-0.625 1.15625-0.304687 0.34375-0.65625 0.515625-1.0625 0.515625-0.3125 0-0.589844-0.0898438-0.828125-0.265625-0.242187-0.175781-0.359375-0.414063-0.359375-0.71875 0-0.113281 0.023438-0.25 0.078125-0.40625 0.09375-0.257813 0.175781-0.488281 0.25-0.6875 0.082031-0.195313 0.160156-0.421875 0.234375-0.671875 0.082031-0.25 0.148438-0.488281 0.203125-0.71875 0.050781-0.226563 0.078125-0.421875 0.078125-0.578125 0-0.394531-0.148437-0.59375-0.4375-0.59375-0.367187 0-0.6875 0.109375-0.96875 0.328125-0.273437 0.210937-0.507812 0.492187-0.703125 0.84375l-0.71875 2.90625c-0.042969 0.167969-0.132812 0.304687-0.265625 0.40625-0.136719 0.101562-0.289062 0.15625-0.453125 0.15625-0.136719 0-0.257812-0.0429687-0.359375-0.125-0.105469-0.09375-0.15625-0.210938-0.15625-0.359375z"/></symbol><symbol id="ak" overflow="visible"><path d="m1.76562-1.3125c0-0.332031 0.050781-0.660156 0.15625-0.984375 0.113281-0.332031 0.289063-0.816406 0.53125-1.45312 0.101563-0.257813 0.15625-0.46875 0.15625-0.625 0-0.113281-0.042969-0.171875-0.125-0.171875-0.4375 0-0.773437 0.445312-1 1.32812-0.03125 0.054687-0.074219 0.085937-0.125 0.09375h-0.390625c-0.09375-0.019531-0.140625-0.066406-0.140625-0.140625 0-0.00781 0.003906-0.03125 0.015625-0.0625 0.0625-0.257813 0.171875-0.519531 0.328125-0.78125 0.164063-0.269531 0.363281-0.484375 0.59375-0.640625 0.238281-0.164063 0.492188-0.25 0.765625-0.25 0.3125 0 0.585938 0.089844 0.828125 0.265625 0.238281 0.179687 0.359375 0.421875 0.359375 0.734375 0 0.117187-0.027344 0.242187-0.078125 0.375-0.105469 0.261719-0.214844 0.546875-0.328125 0.859375-0.117187 0.3125-0.210937 0.609375-0.28125 0.890625-0.074219 0.28125-0.109375 0.546875-0.109375 0.796875 0 0.480469 0.1875 0.71875 0.5625 0.71875 0.40625 0 0.765625-0.234375 1.07812-0.703125 0-0.0625 0.00781-0.125 0.03125-0.1875l0.765625-3.10938c0.050781-0.15625 0.144531-0.285156 0.28125-0.390625 0.132813-0.101563 0.28125-0.15625 0.4375-0.15625 0.144531 0 0.265625 0.046875 0.359375 0.140625 0.101563 0.085937 0.15625 0.199219 0.15625 0.34375 0 0.03125-0.00781 0.078125-0.015625 0.140625l-0.765625 3.0625c-0.054687 0.210937-0.085937 0.390625-0.09375 0.546875 0 0.210937 0.066406 0.3125 0.203125 0.3125 0.164063 0 0.296875-0.125 0.390625-0.375s0.1875-0.550781 0.28125-0.90625c0.019531-0.082031 0.066406-0.132813 0.140625-0.15625h0.390625c0.0625 0.023437 0.109375 0.070312 0.140625 0.140625 0 0.011719-0.00781 0.027344-0.015625 0.046875v0.046875c-0.074219 0.261719-0.167969 0.515625-0.28125 0.765625-0.105469 0.242187-0.25 0.449219-0.4375 0.625-0.1875 0.175781-0.402344 0.265625-0.640625 0.265625-0.5625 0-0.953125-0.1875-1.17188-0.5625-0.398437 0.375-0.820312 0.5625-1.26562 0.5625-0.511719 0-0.921875-0.109375-1.23438-0.328125-0.304687-0.226563-0.453125-0.585938-0.453125-1.07812z"/></symbol><symbol id="aj" overflow="visible"><path d="m1.46875-0.390625c0-0.03125 0.00391-0.082031 0.015625-0.15625l0.796875-3.15625c0.039063-0.1875 0.066406-0.363281 0.078125-0.53125 0-0.207031-0.070312-0.3125-0.203125-0.3125-0.085937 0-0.167969 0.054687-0.25 0.15625-0.074219 0.09375-0.136719 0.214844-0.1875 0.359375-0.054687 0.136719-0.101562 0.28125-0.140625 0.4375-0.042969 0.148437-0.074219 0.257812-0.09375 0.328125-0.023437 0.085937-0.0625 0.132812-0.125 0.140625h-0.390625c-0.09375-0.019531-0.140625-0.066406-0.140625-0.140625 0-0.00781 0.003906-0.03125 0.015625-0.0625 0.101563-0.4375 0.265625-0.820313 0.484375-1.15625 0.226563-0.34375 0.519531-0.515625 0.875-0.515625 0.28125 0 0.539063 0.0625 0.78125 0.1875 0.238281 0.125 0.398438 0.3125 0.484375 0.5625 0.238281-0.238281 0.5-0.421875 0.78125-0.546875 0.28125-0.132813 0.570313-0.203125 0.875-0.203125 0.851563 0 1.35938 0.277344 1.51562 0.828125 0.144531-0.15625 0.3125-0.296875 0.5-0.421875 0.1875-0.132813 0.382813-0.234375 0.59375-0.296875 0.207031-0.070313 0.421875-0.109375 0.640625-0.109375 0.289063 0 0.550781 0.042969 0.78125 0.125 0.238281 0.085937 0.425781 0.21875 0.5625 0.40625 0.144531 0.179687 0.21875 0.417969 0.21875 0.71875 0 0.304687-0.074219 0.679687-0.21875 1.125-0.136719 0.4375-0.308594 0.921875-0.515625 1.45312-0.105469 0.292969-0.15625 0.507812-0.15625 0.640625 0 0.117187 0.039063 0.171875 0.125 0.171875 0.25 0 0.457031-0.132813 0.625-0.40625 0.164063-0.28125 0.289063-0.59375 0.375-0.9375 0.0078-0.039063 0.05469-0.070313 0.140625-0.09375h0.375c0.09375 0.03125 0.140625 0.085937 0.140625 0.15625 0 0.011719-0.0078 0.03125-0.01563 0.0625-0.105469 0.429687-0.3125 0.8125-0.625 1.15625-0.304687 0.34375-0.65625 0.515625-1.0625 0.515625-0.324219 0-0.605469-0.0898438-0.84375-0.265625-0.242187-0.175781-0.359375-0.414063-0.359375-0.71875 0-0.101563 0.03125-0.238281 0.09375-0.40625 0.09375-0.257813 0.175781-0.488281 0.25-0.6875 0.082036-0.195313 0.160161-0.421875 0.23438-0.671875 0.082031-0.25 0.144531-0.488281 0.1875-0.71875 0.050781-0.226563 0.078125-0.421875 0.078125-0.578125 0-0.394531-0.140625-0.59375-0.421875-0.59375-0.25 0-0.480469 0.054687-0.6875 0.15625-0.210937 0.105469-0.398437 0.25-0.5625 0.4375-0.15625 0.179687-0.304687 0.382812-0.4375 0.609375-0.011719 0.042969-0.023437 0.074219-0.03125 0.09375v0.078125l-0.6875 2.70312c-0.03125 0.167969-0.117187 0.304687-0.25 0.40625-0.136719 0.101562-0.289062 0.15625-0.453125 0.15625-0.148437 0-0.273437-0.0429687-0.375-0.125-0.09375-0.09375-0.140625-0.210938-0.140625-0.359375 0-0.007813 0.00391-0.0625 0.015625-0.15625l0.671875-2.65625c0.082031-0.300781 0.125-0.550781 0.125-0.75 0-0.394531-0.148437-0.59375-0.4375-0.59375-0.367187 0-0.6875 0.109375-0.96875 0.328125-0.273437 0.210937-0.507812 0.492187-0.703125 0.84375l-0.71875 2.90625c-0.042969 0.167969-0.132812 0.304687-0.265625 0.40625-0.136719 0.101562-0.289062 0.15625-0.453125 0.15625-0.136719 0-0.257812-0.0429687-0.359375-0.125-0.105469-0.09375-0.15625-0.210938-0.15625-0.359375z"/></symbol><symbol id="ai" overflow="visible"><path d="m2.95312 0.09375c-0.355469 0-0.664062-0.0742187-0.921875-0.21875-0.261719-0.144531-0.464844-0.347656-0.609375-0.609375-0.136719-0.269531-0.203125-0.578125-0.203125-0.921875 0-0.101563 0.015625-0.25 0.046875-0.4375 0.039063-0.1875 0.0625-0.3125 0.0625-0.375l1.10938-4.45312v-0.0625c-0.105469-0.019531-0.296875-0.03125-0.578125-0.03125-0.125-0.039063-0.1875-0.113281-0.1875-0.21875l0.0625-0.203125c0.039063-0.070313 0.097656-0.117188 0.171875-0.140625l1.67188-0.09375c0.0625 0 0.109375 0.023437 0.140625 0.0625 0.039063 0.042969 0.0625 0.101562 0.0625 0.171875l-0.6875 2.73438c0.34375-0.195313 0.691406-0.296875 1.04688-0.296875 0.269531 0 0.515625 0.042969 0.734375 0.125 0.226563 0.074219 0.421875 0.1875 0.578125 0.34375 0.164063 0.15625 0.289063 0.34375 0.375 0.5625 0.082031 0.21875 0.125 0.46875 0.125 0.75 0 0.417969-0.074219 0.824219-0.21875 1.21875-0.148437 0.398437-0.359375 0.75-0.640625 1.0625-0.273437 0.3125-0.589844 0.5625-0.953125 0.75-0.367187 0.1875-0.761719 0.28125-1.1875 0.28125zm0.03125-0.453125c0.4375 0 0.757813-0.203125 0.96875-0.609375 0.207031-0.40625 0.394531-0.921875 0.5625-1.54688 0.144531-0.644531 0.21875-1.07812 0.21875-1.29688 0-0.207031-0.054687-0.378906-0.15625-0.515625-0.105469-0.144531-0.261719-0.21875-0.46875-0.21875-0.242187 0-0.464844 0.070312-0.671875 0.203125-0.210937 0.136719-0.390625 0.3125-0.546875 0.53125l-0.359375 1.42188c-0.042969 0.085937-0.089844 0.28125-0.140625 0.59375-0.054687 0.3125-0.078125 0.523437-0.078125 0.625 0 0.230469 0.054688 0.421875 0.171875 0.578125 0.113281 0.15625 0.28125 0.234375 0.5 0.234375z"/></symbol><symbol id="b" overflow="visible"><path d="m2.4375-1.32812c0 0.28125 0.070313 0.515625 0.21875 0.703125 0.15625 0.179687 0.375 0.265625 0.65625 0.265625 0.40625 0 0.796875-0.070313 1.17188-0.21875 0.375-0.15625 0.691406-0.378906 0.953125-0.671875h0.234375l0.203125 0.21875c0.03125 0.03125 0.046875 0.070312 0.046875 0.109375 0 0.023437-0.015625 0.058594-0.046875 0.109375-0.523437 0.605469-1.38672 0.90625-2.59375 0.90625-0.417969 0-0.78125-0.0742187-1.09375-0.21875-0.3125-0.15625-0.558594-0.378906-0.734375-0.671875-0.179687-0.289063-0.265625-0.640625-0.265625-1.04688 0-0.457031 0.082031-0.878906 0.25-1.26562 0.175781-0.394531 0.414063-0.726563 0.71875-1 0.300781-0.28125 0.648438-0.5 1.04688-0.65625 0.394531-0.15625 0.816406-0.234375 1.26562-0.234375 0.375 0 0.707031 0.09375 1 0.28125 0.289063 0.179687 0.4375 0.445312 0.4375 0.796875 0 0.355469-0.109375 0.640625-0.328125 0.859375s-0.5 0.375-0.84375 0.46875c-0.335937 0.09375-0.664062 0.152344-0.984375 0.171875-0.324219 0.023437-0.6875 0.03125-1.09375 0.03125h-0.046875c-0.117187 0.46875-0.171875 0.824219-0.171875 1.0625zm0.28125-1.5c0.394531 0 0.757813-0.015625 1.09375-0.046875 0.332031-0.039063 0.632813-0.144531 0.90625-0.3125 0.269531-0.164063 0.40625-0.414063 0.40625-0.75 0-0.175781-0.070312-0.320313-0.203125-0.4375-0.136719-0.113281-0.296875-0.171875-0.484375-0.171875-0.84375 0-1.41797 0.574219-1.71875 1.71875z"/></symbol><symbol id="f" overflow="visible"><path d="m1.46875-0.390625c0-0.03125 0.00391-0.082031 0.015625-0.15625l0.796875-3.15625c0.039063-0.1875 0.066406-0.363281 0.078125-0.53125 0-0.207031-0.070312-0.3125-0.203125-0.3125-0.085937 0-0.167969 0.054687-0.25 0.15625-0.074219 0.09375-0.136719 0.214844-0.1875 0.359375-0.054687 0.136719-0.101562 0.28125-0.140625 0.4375-0.042969 0.148437-0.074219 0.257812-0.09375 0.328125-0.023437 0.085937-0.0625 0.132812-0.125 0.140625h-0.390625c-0.09375-0.019531-0.140625-0.066406-0.140625-0.140625 0-0.00781 0.003906-0.03125 0.015625-0.0625 0.101563-0.4375 0.265625-0.820313 0.484375-1.15625 0.226563-0.34375 0.519531-0.515625 0.875-0.515625 0.238281 0 0.460938 0.046875 0.671875 0.140625 0.21875 0.09375 0.390625 0.242187 0.515625 0.4375 0.382813-0.382813 0.835938-0.578125 1.35938-0.578125 0.363281 0 0.691406 0.089844 0.984375 0.265625 0.300781 0.167969 0.453125 0.421875 0.453125 0.765625 0 0.242187-0.078125 0.453125-0.234375 0.640625-0.15625 0.179687-0.355469 0.265625-0.59375 0.265625-0.148437 0-0.277344-0.046875-0.390625-0.140625-0.105469-0.101563-0.15625-0.234375-0.15625-0.390625 0-0.164063 0.046875-0.316406 0.140625-0.453125 0.101563-0.144531 0.226563-0.25 0.375-0.3125-0.148437-0.125-0.351562-0.1875-0.609375-0.1875-0.261719 0-0.496094 0.085937-0.703125 0.25-0.199219 0.167969-0.375 0.386719-0.53125 0.65625l-0.78125 3.17188c-0.042969 0.167969-0.132812 0.304687-0.265625 0.40625-0.136719 0.101562-0.289062 0.15625-0.453125 0.15625-0.136719 0-0.257812-0.0429687-0.359375-0.125-0.105469-0.09375-0.15625-0.210938-0.15625-0.359375z"/></symbol><symbol id="ah" overflow="visible"><path d="m1.6875-1.20312c-0.085937-0.007813-0.15625-0.046875-0.21875-0.109375s-0.09375-0.132813-0.09375-0.21875c0-0.082031 0.03125-0.15625 0.09375-0.21875s0.132813-0.101563 0.21875-0.125h7.17188c0.09375 0.023437 0.171875 0.0625 0.234375 0.125 0.0625 0.054687 0.09375 0.125 0.09375 0.21875 0 0.085937-0.03125 0.15625-0.09375 0.21875s-0.140625 0.101562-0.234375 0.109375zm0.625-2.46875c-0.09375-0.007813-0.171875-0.046875-0.234375-0.109375-0.054687-0.0625-0.078125-0.132813-0.078125-0.21875 0-0.082031 0.023438-0.15625 0.078125-0.21875 0.0625-0.0625 0.140625-0.101563 0.234375-0.125h7.17188c0.09375 0.023437 0.164063 0.0625 0.21875 0.125 0.0625 0.0625 0.09375 0.136719 0.09375 0.21875 0 0.085937-0.03125 0.15625-0.09375 0.21875-0.054687 0.0625-0.125 0.101562-0.21875 0.109375z"/></symbol><symbol id="e" overflow="visible"><path d="m1.54688 0c-0.054687 0-0.09375-0.0195313-0.125-0.0625-0.03125-0.050781-0.046875-0.101563-0.046875-0.15625l0.046875-0.21875c0.03125-0.0625 0.085938-0.101563 0.171875-0.125h0.6875c0.1875-0.007813 0.367188-0.019531 0.546875-0.03125l1.26562-5.03125c-0.480469 0.210937-0.929687 0.3125-1.34375 0.3125-0.0625 0-0.117187-0.019531-0.15625-0.0625-0.042969-0.039063-0.0625-0.09375-0.0625-0.15625l0.046875-0.21875c0.039063-0.0625 0.097656-0.101563 0.171875-0.125 0.488281 0 0.957031-0.125 1.40625-0.375 0.457031-0.25 0.847656-0.578125 1.17188-0.984375 0.00781-0.03125 0.050781-0.050781 0.125-0.0625h0.109375c0.125 0.03125 0.1875 0.105469 0.1875 0.21875l-1.625 6.48438c0.257813 0.023437 0.648438 0.03125 1.17188 0.03125 0.113281 0.042969 0.171875 0.117187 0.171875 0.21875l-0.046875 0.203125c-0.054687 0.0742187-0.109375 0.121094-0.171875 0.140625z"/></symbol><symbol id="a" overflow="visible"><path d="m1.25-1.76562c0-0.332031 0.039063-0.71875 0.125-1.15625 0.082031-0.4375 0.195313-0.875 0.34375-1.3125 0.144531-0.445313 0.3125-0.851563 0.5-1.21875 0.195313-0.375 0.414063-0.6875 0.65625-0.9375 0.300781-0.300781 0.640625-0.523438 1.01562-0.671875 0.375-0.15625 0.773438-0.234375 1.20312-0.234375 1.30078 0 1.95312 0.65625 1.95312 1.96875 0 0.335937-0.042969 0.71875-0.125 1.15625-0.074219 0.429687-0.183594 0.859375-0.328125 1.29688-0.148437 0.4375-0.320312 0.851562-0.515625 1.23438-0.199219 0.386719-0.414062 0.699219-0.640625 0.9375-0.292969 0.292969-0.632812 0.515625-1.01562 0.671875-0.386719 0.144531-0.789062 0.21875-1.20312 0.21875-0.65625 0-1.15234-0.164062-1.48438-0.484375-0.324219-0.320313-0.484375-0.8125-0.484375-1.46875zm2.07812 1.51562c0.25 0 0.488281-0.078125 0.71875-0.234375 0.238281-0.15625 0.429688-0.34375 0.578125-0.5625 0.082031-0.132813 0.171875-0.347656 0.265625-0.640625 0.101563-0.300781 0.195313-0.601563 0.28125-0.90625 0.082031-0.3125 0.175781-0.679688 0.28125-1.10938 0.039063-0.15625 0.101563-0.410156 0.1875-0.765625 0.082031-0.351563 0.144531-0.660156 0.1875-0.921875 0.050781-0.257813 0.078125-0.457031 0.078125-0.59375 0-0.269531-0.089844-0.484375-0.265625-0.640625-0.167969-0.15625-0.386719-0.234375-0.65625-0.234375-0.261719 0-0.507812 0.070312-0.734375 0.203125-0.21875 0.136719-0.398437 0.308594-0.53125 0.515625-0.125 0.199219-0.25 0.507812-0.375 0.921875-0.125 0.40625-0.265625 0.914062-0.421875 1.51562-0.15625 0.65625-0.277344 1.18359-0.359375 1.57812-0.085937 0.386719-0.125 0.703125-0.125 0.953125 0 0.261719 0.082031 0.480469 0.25 0.65625 0.164063 0.179687 0.378906 0.265625 0.640625 0.265625z"/></symbol><symbol id="q" overflow="visible"><path d="m0.890625 0c-0.125-0.03125-0.1875-0.101563-0.1875-0.21875l0.0625-0.21875c0.019531-0.0625 0.070313-0.101563 0.15625-0.125 0.5 0 0.859375-0.007813 1.07812-0.03125l1.60938-6.39062c-0.148437-0.019531-0.46875-0.03125-0.96875-0.03125-0.117187-0.039063-0.171875-0.113281-0.171875-0.21875l0.046875-0.203125c0.03125-0.070313 0.085938-0.117188 0.171875-0.140625h3.89062c0.050781 0 0.085938 0.027344 0.109375 0.078125 0.03125 0.042969 0.046875 0.089844 0.046875 0.140625l-0.046875 0.21875c-0.03125 0.0625-0.085937 0.105469-0.15625 0.125-0.667969 0-1.13281 0.011719-1.39062 0.03125l-1.59375 6.40625c0.0625 0.011719 0.175781 0.015625 0.34375 0.015625h0.5625c0.34375 0 0.648438-0.0625 0.921875-0.1875 0.269531-0.132813 0.5-0.3125 0.6875-0.53125 0.195313-0.226563 0.359375-0.472656 0.484375-0.734375 0.132813-0.269531 0.269531-0.578125 0.40625-0.921875 0.019531-0.0625 0.070313-0.101563 0.15625-0.125h0.3125c0.113281 0.023437 0.171875 0.085937 0.171875 0.1875v0.0625l-0.96875 2.67188c-0.042969 0.0742187-0.101562 0.121094-0.171875 0.140625z"/></symbol><symbol id="p" overflow="visible"><path d="m0.625 1.4375c0-0.230469 0.078125-0.429687 0.234375-0.59375 0.164063-0.167969 0.363281-0.25 0.59375-0.25 0.15625 0 0.285156 0.046875 0.390625 0.140625 0.113281 0.101563 0.171875 0.226563 0.171875 0.375 0 0.125-0.027344 0.238281-0.078125 0.34375-0.054687 0.113281-0.125 0.207031-0.21875 0.28125 0.1875 0.039063 0.429688 0.0625 0.734375 0.0625 0.207031 0 0.398438-0.058594 0.578125-0.171875 0.1875-0.105469 0.347656-0.246094 0.484375-0.421875 0.132813-0.179687 0.222656-0.359375 0.265625-0.546875l0.234375-0.9375c-0.324219 0.1875-0.667969 0.28125-1.03125 0.28125-0.367187 0-0.683594-0.0664063-0.953125-0.203125-0.273437-0.144531-0.484375-0.347656-0.640625-0.609375-0.148437-0.257813-0.21875-0.570313-0.21875-0.9375 0-0.550781 0.128906-1.07812 0.390625-1.57812 0.257813-0.5 0.617188-0.898438 1.07812-1.20312 0.457031-0.3125 0.960938-0.46875 1.51562-0.46875 0.425781 0 0.773438 0.140625 1.04688 0.421875 0.144531-0.15625 0.316406-0.234375 0.515625-0.234375 0.144531 0 0.265625 0.046875 0.359375 0.140625 0.101563 0.085937 0.15625 0.199219 0.15625 0.34375 0 0.042969-0.00781 0.089844-0.015625 0.140625l-1.23438 4.95312c-0.125 0.488281-0.445312 0.851563-0.953125 1.09375-0.511719 0.25-1.04688 0.375-1.60938 0.375-0.292969 0-0.5625-0.015625-0.8125-0.046875-0.25-0.023437-0.480469-0.09375-0.6875-0.21875-0.199219-0.117187-0.296875-0.292969-0.296875-0.53125zm2.39062-1.875c0.226563 0 0.453125-0.066406 0.671875-0.203125 0.21875-0.144531 0.398438-0.320313 0.546875-0.53125l0.6875-2.73438c-0.054687-0.1875-0.152344-0.335938-0.296875-0.453125-0.136719-0.125-0.304687-0.1875-0.5-0.1875-0.242187 0-0.449219 0.070312-0.625 0.203125-0.167969 0.136719-0.308594 0.308594-0.421875 0.515625-0.105469 0.199219-0.1875 0.398437-0.25 0.59375-0.054687 0.1875-0.125 0.453125-0.21875 0.796875-0.148437 0.574219-0.21875 0.996094-0.21875 1.26562 0 0.210937 0.050781 0.386719 0.15625 0.53125 0.113281 0.136719 0.269531 0.203125 0.46875 0.203125z"/></symbol><symbol id="o" overflow="visible"><path d="m1.15625-1.67188c0-0.40625 0.070313-0.8125 0.21875-1.21875 0.144531-0.40625 0.351563-0.765625 0.625-1.07812 0.269531-0.3125 0.585938-0.5625 0.953125-0.75 0.375-0.1875 0.773438-0.28125 1.20312-0.28125 0.351563 0 0.671875 0.117187 0.953125 0.34375l0.578125-2.26562v-0.0625c-0.105469-0.019531-0.296875-0.03125-0.578125-0.03125-0.125-0.039063-0.1875-0.113281-0.1875-0.21875l0.0625-0.203125c0.039063-0.070313 0.09375-0.117188 0.15625-0.140625l1.67188-0.09375c0.070313 0 0.128906 0.023437 0.171875 0.0625 0.039063 0.042969 0.0625 0.101562 0.0625 0.171875l-1.57812 6.28125c-0.042969 0.15625-0.070312 0.320312-0.078125 0.484375 0 0.210937 0.066406 0.3125 0.203125 0.3125 0.164063 0 0.289063-0.117188 0.375-0.359375 0.09375-0.238281 0.191406-0.546875 0.296875-0.921875 0.019531-0.082031 0.066406-0.132813 0.140625-0.15625h0.390625c0.070313 0.023437 0.113281 0.070312 0.125 0.140625v0.046875 0.046875c-0.117187 0.429687-0.289062 0.8125-0.515625 1.15625-0.21875 0.335938-0.5 0.5-0.84375 0.5-0.554687 0-0.949219-0.1875-1.1875-0.5625-0.449219 0.375-0.917969 0.5625-1.40625 0.5625-0.375 0-0.699219-0.0703125-0.96875-0.203125-0.273437-0.144531-0.480469-0.351563-0.625-0.625-0.148437-0.269531-0.21875-0.582031-0.21875-0.9375zm1.84375 1.3125c0.226563 0 0.453125-0.070313 0.671875-0.21875 0.21875-0.144531 0.40625-0.320313 0.5625-0.53125 0-0.019531 0.00391-0.039063 0.015625-0.0625 0.007813-0.03125 0.015625-0.054688 0.015625-0.078125l0.640625-2.64062c-0.042969-0.195313-0.136719-0.351563-0.28125-0.46875-0.136719-0.125-0.304687-0.1875-0.5-0.1875-0.3125 0-0.570312 0.117187-0.765625 0.34375-0.199219 0.230469-0.34375 0.480469-0.4375 0.75-0.09375 0.261719-0.199219 0.617187-0.3125 1.0625-0.15625 0.605469-0.234375 1.03906-0.234375 1.29688 0 0.210937 0.050781 0.386719 0.15625 0.53125 0.101563 0.136719 0.257813 0.203125 0.46875 0.203125z"/></symbol><symbol id="n" overflow="visible"><path d="m1.10938 0.1875c-0.09375-0.03125-0.140625-0.085937-0.140625-0.15625 0-0.0117187 0.003906-0.03125 0.015625-0.0625 0.144531-0.59375 0.4375-1.12891 0.875-1.60938 0.445313-0.476563 0.96875-0.867188 1.5625-1.17188 0.738281-0.382813 1.28906-0.84375 1.65625-1.375 0.144531-0.226563 0.265625-0.507813 0.359375-0.84375 0.09375-0.34375 0.140625-0.648438 0.140625-0.921875 0-0.28125-0.078125-0.5-0.234375-0.65625-0.15625-0.164063-0.375-0.25-0.65625-0.25-0.335937 0-0.671875 0.121094-1.01562 0.359375-0.34375 0.242187-0.625 0.542969-0.84375 0.90625-0.210937 0.367187-0.3125 0.714844-0.3125 1.04688 0 0.1875 0.050781 0.28125 0.15625 0.28125 0.164063 0 0.332031-0.066406 0.5-0.203125 0.175781-0.144531 0.316406-0.3125 0.421875-0.5 0.101563-0.195313 0.15625-0.375 0.15625-0.53125 0-0.070313-0.03125-0.160156-0.09375-0.265625-0.054687-0.101563-0.078125-0.171875-0.078125-0.203125 0-0.019531 0.015625-0.050781 0.046875-0.09375 0.09375-0.09375 0.171875-0.140625 0.234375-0.140625s0.117188 0.042969 0.171875 0.125c0.050781 0.074219 0.09375 0.167969 0.125 0.28125 0.03125 0.117187 0.046875 0.203125 0.046875 0.265625 0 0.167969-0.046875 0.355469-0.140625 0.5625-0.09375 0.210937-0.214844 0.402344-0.359375 0.578125-0.148437 0.167969-0.3125 0.304687-0.5 0.40625-0.1875 0.105469-0.375 0.15625-0.5625 0.15625-0.230469 0-0.417969-0.078125-0.5625-0.234375-0.148437-0.164063-0.21875-0.363281-0.21875-0.59375 0-0.289063 0.085938-0.597656 0.265625-0.921875 0.175781-0.320313 0.378906-0.597656 0.609375-0.828125 0.28125-0.28125 0.585938-0.5 0.921875-0.65625 0.34375-0.15625 0.695313-0.234375 1.0625-0.234375 0.613281 0 1.11719 0.15625 1.51562 0.46875 0.394531 0.304687 0.59375 0.757812 0.59375 1.35938 0 0.417969-0.089844 0.78125-0.265625 1.09375-0.167969 0.304687-0.421875 0.589844-0.765625 0.859375-0.125 0.105469-0.273437 0.214844-0.4375 0.328125-0.167969 0.105469-0.355469 0.21875-0.5625 0.34375-0.210937 0.117187-0.398437 0.214844-0.5625 0.296875-0.15625 0.085937-0.324219 0.171875-0.5 0.265625-0.585937 0.304687-1.0625 0.671875-1.4375 1.10938 0.1875 0 0.40625 0.011719 0.65625 0.03125 0.25 0.023437 0.457031 0.042969 0.625 0.0625 0.175781 0.011719 0.382813 0.027344 0.625 0.046875 0.238281 0.011719 0.429688 0.015625 0.578125 0.015625 0.175781 0 0.351563-0.035156 0.53125-0.109375 0.175781-0.082031 0.320313-0.191406 0.4375-0.328125 0.125-0.132813 0.210938-0.289063 0.265625-0.46875 0.019531-0.050781 0.0625-0.082031 0.125-0.09375h0.390625c0.082031 0.023437 0.125 0.074219 0.125 0.15625v0.0625c-0.125 0.511719-0.386719 0.96875-0.78125 1.375-0.386719 0.40625-0.828125 0.609375-1.32812 0.609375-0.210937 0-0.402344-0.042969-0.578125-0.125-0.179687-0.0703125-0.382812-0.179688-0.609375-0.328125-0.230469-0.144531-0.433594-0.257813-0.609375-0.34375-0.167969-0.082031-0.351562-0.125-0.546875-0.125-0.25 0-0.445312 0.277344-0.578125 0.828125-0.03125 0.050781-0.074219 0.082031-0.125 0.09375z"/></symbol><symbol id="m" overflow="visible"><path d="m3.1875 2.70312c-0.90625-0.855469-1.35938-2.02344-1.35938-3.5 0-0.707031 0.09375-1.41406 0.28125-2.125 0.195313-0.71875 0.472656-1.41406 0.828125-2.09375 0.363281-0.675781 0.796875-1.28906 1.29688-1.84375 0.507813-0.5625 1.0625-1.03125 1.65625-1.40625 0.00781-0.00781 0.035156-0.015625 0.078125-0.015625h0.171875c0.082031 0.023437 0.125 0.074219 0.125 0.15625 0 0.042969-0.011719 0.074219-0.03125 0.09375-0.355469 0.28125-0.683594 0.601562-0.984375 0.953125-0.292969 0.34375-0.558594 0.714844-0.796875 1.10938-0.242187 0.398437-0.460937 0.835937-0.65625 1.3125-0.199219 0.480469-0.375 0.984375-0.53125 1.51562-0.148437 0.523437-0.261719 1.03906-0.34375 1.54688-0.074219 0.5-0.109375 0.980469-0.109375 1.4375 0 1.05078 0.242188 1.9375 0.734375 2.65625 0.019531 0.03125 0.03125 0.0625 0.03125 0.09375 0 0.082031-0.042969 0.132813-0.125 0.15625h-0.171875c-0.042969-0.011719-0.074219-0.027344-0.09375-0.046875z"/></symbol><symbol id="l" overflow="visible"><path d="m0.484375 2.75c-0.09375-0.03125-0.140625-0.085937-0.140625-0.15625 0-0.042969 0.015625-0.074219 0.046875-0.09375 0.34375-0.28125 0.65625-0.59375 0.9375-0.9375 0.289063-0.335937 0.5625-0.710937 0.8125-1.125 0.226563-0.386719 0.445313-0.816406 0.65625-1.29688 0.207031-0.488281 0.382813-0.984375 0.53125-1.48438 0.144531-0.5 0.257813-1.01562 0.34375-1.54688 0.082031-0.53125 0.125-1.02344 0.125-1.48438 0-1.0625-0.246094-1.94531-0.734375-2.65625-0.023437-0.03125-0.03125-0.0625-0.03125-0.09375 0-0.082031 0.046875-0.132813 0.140625-0.15625h0.15625c0.039063 0.011719 0.078125 0.027344 0.109375 0.046875 0.894531 0.855469 1.34375 2.02344 1.34375 3.5 0 0.699219-0.101562 1.41797-0.296875 2.15625-0.199219 0.730469-0.476562 1.42188-0.828125 2.07812-0.355469 0.65625-0.78125 1.25781-1.28125 1.8125-0.5 0.5625-1.05469 1.03516-1.65625 1.42188-0.011719 0-0.03125 0.003906-0.0625 0.015625z"/></symbol><symbol id="ag" overflow="visible"><path d="m0.5625 0v-0.359375c0.257813 0 0.453125-0.019531 0.578125-0.0625 0.125-0.039063 0.1875-0.15625 0.1875-0.34375v-4.04688c0-0.195313-0.0625-0.316406-0.1875-0.359375-0.125-0.039063-0.320312-0.0625-0.578125-0.0625v-0.359375h4.82812l0.203125 1.8125h-0.375c-0.042969-0.332031-0.101562-0.59375-0.171875-0.78125-0.074219-0.195313-0.179687-0.34375-0.3125-0.4375-0.136719-0.09375-0.304687-0.15625-0.5-0.1875-0.1875-0.03125-0.464844-0.046875-0.828125-0.046875h-0.84375c-0.167969 0-0.277344 0.027344-0.328125 0.078125-0.042969 0.054687-0.0625 0.167969-0.0625 0.34375v1.84375h0.59375c0.28125 0 0.488281-0.015625 0.625-0.046875 0.132813-0.039063 0.234375-0.125 0.296875-0.25s0.09375-0.316406 0.09375-0.578125h0.390625v2.09375h-0.390625c0-0.257813-0.03125-0.453125-0.09375-0.578125s-0.164062-0.203125-0.296875-0.234375c-0.136719-0.03125-0.34375-0.046875-0.625-0.046875h-0.59375v1.84375c0 0.179687 0.085938 0.292969 0.265625 0.34375 0.175781 0.042969 0.410156 0.0625 0.703125 0.0625v0.359375z"/></symbol><symbol id="y" overflow="visible"><path d="m0.65625-2.76562c0-0.519531 0.132813-1.00781 0.40625-1.46875 0.269531-0.46875 0.632813-0.835938 1.09375-1.10938 0.46875-0.269531 0.960938-0.40625 1.48438-0.40625 0.414063 0 0.800781 0.078125 1.15625 0.234375 0.363281 0.15625 0.679688 0.375 0.953125 0.65625 0.28125 0.273437 0.492188 0.589844 0.640625 0.953125 0.15625 0.355469 0.234375 0.734375 0.234375 1.14062 0 0.53125-0.136719 1.02734-0.40625 1.48438-0.273437 0.449219-0.636719 0.804687-1.09375 1.0625-0.460937 0.25-0.953125 0.375-1.48438 0.375-0.386719 0-0.761719-0.0742187-1.125-0.21875-0.367187-0.144531-0.695312-0.351563-0.984375-0.625-0.28125-0.28125-0.5-0.59375-0.65625-0.9375-0.148437-0.351563-0.21875-0.734375-0.21875-1.14062zm2.98438 2.51562c0.457031 0 0.832031-0.128906 1.125-0.390625 0.300781-0.257813 0.519531-0.59375 0.65625-1 0.132813-0.40625 0.203125-0.828125 0.203125-1.26562 0-0.3125-0.042969-0.613281-0.125-0.90625-0.074219-0.289063-0.195312-0.550781-0.359375-0.78125-0.15625-0.238281-0.367187-0.425781-0.625-0.5625-0.25-0.132813-0.542969-0.203125-0.875-0.203125-0.4375 0-0.808594 0.117187-1.10938 0.34375-0.304687 0.230469-0.527344 0.53125-0.671875 0.90625-0.136719 0.375-0.203125 0.777344-0.203125 1.20312 0 0.4375 0.066406 0.867187 0.203125 1.28125 0.132813 0.40625 0.351563 0.742187 0.65625 1 0.300781 0.25 0.675781 0.375 1.125 0.375z"/></symbol><symbol id="u" overflow="visible"><path d="m0.5625 0v-0.359375c0.238281 0 0.425781-0.054688 0.5625-0.171875 0.132813-0.125 0.203125-0.304688 0.203125-0.546875v-4.09375c-0.136719-0.039063-0.390625-0.0625-0.765625-0.0625v-0.359375h1.46875c0.039063 0.023437 0.070313 0.039062 0.09375 0.046875l3.10938 4.20312v-3.17188c0-0.238281-0.070312-0.414063-0.203125-0.53125-0.125-0.125-0.3125-0.1875-0.5625-0.1875v-0.359375h1.95312v0.359375c-0.242187 0-0.429687 0.0625-0.5625 0.1875-0.136719 0.117187-0.203125 0.292969-0.203125 0.53125v4.375c-0.023437 0.0742187-0.0625 0.121094-0.125 0.140625h-0.15625c-0.054687-0.0078125-0.085937-0.0234375-0.09375-0.046875l-3.53125-4.76562v3.73438c0 0.167969 0.03125 0.304687 0.09375 0.40625 0.0625 0.105469 0.148438 0.183594 0.265625 0.234375 0.113281 0.054687 0.25 0.078125 0.40625 0.078125v0.359375z"/></symbol><symbol id="ae" overflow="visible"><path d="m0.5625 0v-0.359375c0.257813 0 0.453125-0.019531 0.578125-0.0625 0.125-0.039063 0.1875-0.15625 0.1875-0.34375v-4.04688c0-0.195313-0.0625-0.316406-0.1875-0.359375-0.125-0.039063-0.320312-0.0625-0.578125-0.0625v-0.359375h2.375v0.359375c-0.25 0-0.445312 0.023437-0.578125 0.0625-0.125 0.042969-0.1875 0.164062-0.1875 0.359375v2.32812l2.375-2.03125c0.238281-0.207031 0.359375-0.394531 0.359375-0.5625 0-0.101563-0.042969-0.15625-0.125-0.15625v-0.359375h1.8125v0.359375c-0.261719 0-0.511719 0.070312-0.75 0.203125-0.230469 0.136719-0.464844 0.308594-0.703125 0.515625l-1.34375 1.14062 1.78125 2.29688c0.21875 0.28125 0.390625 0.476562 0.515625 0.578125 0.132813 0.09375 0.335938 0.140625 0.609375 0.140625v0.359375h-2.07812v-0.359375c0.1875 0 0.28125-0.0625 0.28125-0.1875 0-0.132813-0.089844-0.3125-0.265625-0.53125l-1.39062-1.8125-1.07812 0.90625v1.21875c0 0.1875 0.0625 0.304687 0.1875 0.34375 0.132813 0.042969 0.328125 0.0625 0.578125 0.0625v0.359375z"/></symbol><symbol id="ad" overflow="visible"><path d="m0.65625 0.03125v-1.76562c0-0.03125 0.007813-0.054688 0.03125-0.078125 0.03125-0.03125 0.054688-0.046875 0.078125-0.046875h0.15625c0.019531 0 0.046875 0.015625 0.078125 0.046875 0.03125 0.023437 0.046875 0.046875 0.046875 0.078125 0 0.511719 0.171875 0.898437 0.515625 1.15625 0.351563 0.25 0.796875 0.375 1.32812 0.375 0.1875 0 0.375-0.046875 0.5625-0.140625 0.1875-0.101563 0.332031-0.238281 0.4375-0.40625 0.101563-0.164063 0.15625-0.351563 0.15625-0.5625 0-0.25-0.089844-0.472656-0.265625-0.671875-0.167969-0.207031-0.375-0.335938-0.625-0.390625l-1.1875-0.265625c-0.375-0.082031-0.6875-0.265625-0.9375-0.546875-0.25-0.289063-0.375-0.617188-0.375-0.984375 0-0.289063 0.078125-0.554688 0.234375-0.796875 0.164063-0.238281 0.378906-0.425781 0.640625-0.5625 0.269531-0.144531 0.554688-0.21875 0.859375-0.21875 0.582031 0 1.03906 0.171875 1.375 0.515625l0.359375-0.46875c0.007813-0.03125 0.046875-0.046875 0.109375-0.046875 0.09375 0 0.140625 0.042969 0.140625 0.125v1.76562c0 0.03125-0.015625 0.0625-0.046875 0.09375-0.023437 0.023437-0.046875 0.03125-0.078125 0.03125h-0.140625c-0.0625 0-0.105469-0.039063-0.125-0.125-0.054687-0.476563-0.214844-0.859375-0.484375-1.14062-0.273437-0.28125-0.640625-0.421875-1.10938-0.421875-0.304687 0-0.574219 0.101562-0.8125 0.296875-0.230469 0.1875-0.34375 0.421875-0.34375 0.703125 0 0.242187 0.085938 0.453125 0.265625 0.640625 0.175781 0.179687 0.378906 0.292969 0.609375 0.34375l1.1875 0.265625c0.238281 0.054687 0.460938 0.164062 0.671875 0.328125 0.207031 0.15625 0.367188 0.355469 0.484375 0.59375 0.113281 0.230469 0.171875 0.46875 0.171875 0.71875 0 0.304687-0.078125 0.585937-0.234375 0.84375-0.15625 0.261719-0.371094 0.46875-0.640625 0.625-0.261719 0.144531-0.546875 0.21875-0.859375 0.21875-0.304687 0-0.601562-0.042969-0.890625-0.125-0.28125-0.0703125-0.53125-0.195313-0.75-0.375l-0.34375 0.453125c-0.023437 0.03125-0.058594 0.046875-0.109375 0.046875-0.09375 0-0.140625-0.042969-0.140625-0.125z"/></symbol><symbol id="ac" overflow="visible"><path d="m0.515625 0v-0.359375c0.269531 0 0.472656-0.019531 0.609375-0.0625 0.132813-0.039063 0.203125-0.15625 0.203125-0.34375v-4.04688c0-0.195313-0.070312-0.316406-0.203125-0.359375-0.136719-0.039063-0.339844-0.0625-0.609375-0.0625v-0.359375h2.46875v0.359375c-0.261719 0-0.464844 0.023437-0.609375 0.0625-0.136719 0.042969-0.203125 0.164062-0.203125 0.359375v4.04688c0 0.1875 0.066406 0.304687 0.203125 0.34375 0.144531 0.042969 0.347656 0.0625 0.609375 0.0625v0.359375z"/></symbol><symbol id="ab" overflow="visible"><path d="m2.3125 0v-0.359375c0.257813 0 0.453125-0.019531 0.578125-0.0625 0.125-0.039063 0.1875-0.15625 0.1875-0.34375v-1.46875l-1.78125-2.57812c-0.136719-0.195313-0.265625-0.316406-0.390625-0.359375-0.117187-0.039063-0.3125-0.0625-0.59375-0.0625v-0.359375h2.26562v0.359375c-0.273437 0-0.40625 0.0625-0.40625 0.1875 0 0.03125 0.035156 0.109375 0.109375 0.234375l1.48438 2.14062 1.28125-1.84375c0.125-0.175781 0.1875-0.328125 0.1875-0.453125 0-0.070313-0.027344-0.132813-0.078125-0.1875-0.054687-0.050781-0.117187-0.078125-0.1875-0.078125v-0.359375h1.6875v0.359375c-0.230469 0-0.449219 0.070312-0.65625 0.203125-0.199219 0.125-0.371094 0.296875-0.515625 0.515625l-1.57812 2.28125v1.46875c0 0.1875 0.0625 0.304687 0.1875 0.34375 0.125 0.042969 0.3125 0.0625 0.5625 0.0625v0.359375z"/></symbol><symbol id="aa" overflow="visible"><path d="m0.953125 0c-0.042969 0-0.078125-0.015625-0.109375-0.046875s-0.046875-0.066406-0.046875-0.109375v-0.140625c0-0.03125 0.015625-0.066406 0.046875-0.109375l4.875-6.73438h-1.78125c-0.449219 0-0.828125 0.03125-1.14062 0.09375-0.3125 0.054687-0.585937 0.183594-0.8125 0.390625-0.210937 0.199219-0.371094 0.445312-0.484375 0.734375-0.105469 0.292969-0.15625 0.601562-0.15625 0.921875h-0.390625l0.140625-2.54688h5.75c0.039063 0 0.070313 0.015625 0.09375 0.046875 0.03125 0.03125 0.046875 0.070312 0.046875 0.109375v0.125c0 0.03125-0.011719 0.0625-0.03125 0.09375l-4.85938 6.73438h1.84375c0.488281 0 0.894531-0.03125 1.21875-0.09375 0.332031-0.0625 0.625-0.203125 0.875-0.421875 0.144531-0.15625 0.269531-0.347656 0.375-0.578125 0.101563-0.238281 0.175781-0.476563 0.21875-0.71875 0.039063-0.25 0.0625-0.503906 0.0625-0.765625h0.390625l-0.203125 3.01562z"/></symbol><symbol id="k" overflow="visible"><path d="m0.46875 0v-0.359375c0.226563 0 0.425781-0.0625 0.59375-0.1875 0.175781-0.132813 0.304688-0.3125 0.390625-0.53125l1.78125-4.51562c0.039063-0.101563 0.125-0.15625 0.25-0.15625 0.132813 0 0.222656 0.054687 0.265625 0.15625l1.90625 4.82812c0.082031 0.1875 0.179688 0.304687 0.296875 0.34375 0.113281 0.042969 0.296875 0.0625 0.546875 0.0625v0.359375h-2.21875v-0.359375c0.351563 0 0.53125-0.085938 0.53125-0.265625 0-0.039063-0.011719-0.085938-0.03125-0.140625l-0.390625-1h-2.29688l-0.265625 0.6875c-0.042969 0.09375-0.0625 0.183594-0.0625 0.265625 0 0.125 0.039063 0.234375 0.125 0.328125 0.082031 0.085937 0.191406 0.125 0.328125 0.125v0.359375zm1.78125-2.125h2l-1-2.53125z"/></symbol><symbol id="z" overflow="visible"><path d="m0.625 0v-0.359375c0.238281 0 0.421875-0.054688 0.546875-0.171875 0.132813-0.125 0.203125-0.304688 0.203125-0.546875v-3.73438c0-0.195313-0.0625-0.316406-0.1875-0.359375-0.125-0.039063-0.3125-0.0625-0.5625-0.0625v-0.359375h1.5c0.101563 0 0.179688 0.054687 0.234375 0.15625l1.875 4.57812 1.89062-4.57812c0.050781-0.101563 0.128906-0.15625 0.234375-0.15625h1.5v0.359375c-0.25 0-0.4375 0.023437-0.5625 0.0625-0.125 0.042969-0.1875 0.164062-0.1875 0.359375v4.04688c0 0.1875 0.0625 0.304687 0.1875 0.34375 0.125 0.042969 0.3125 0.0625 0.5625 0.0625v0.359375h-2.26562v-0.359375c0.257813 0 0.453125-0.019531 0.578125-0.0625 0.125-0.039063 0.1875-0.15625 0.1875-0.34375v-4.39062l-2.04688 5c-0.042969 0.105469-0.125 0.15625-0.25 0.15625-0.117187 0-0.195312-0.0507813-0.234375-0.15625l-2.03125-4.92188v4c0 0.167969 0.03125 0.304687 0.09375 0.40625 0.0625 0.105469 0.148438 0.183594 0.265625 0.234375 0.113281 0.054687 0.25 0.078125 0.40625 0.078125v0.359375z"/></symbol><symbol id="af" overflow="visible"><path d="m0.5625 0v-0.359375c0.257813 0 0.453125-0.019531 0.578125-0.0625 0.125-0.039063 0.1875-0.15625 0.1875-0.34375v-4.04688c0-0.195313-0.0625-0.316406-0.1875-0.359375-0.125-0.039063-0.320312-0.0625-0.578125-0.0625v-0.359375h2.57812v0.359375c-0.292969 0-0.527344 0.027344-0.703125 0.078125-0.179687 0.042969-0.265625 0.15625-0.265625 0.34375v4.04688c0 0.167969 0.019531 0.277344 0.0625 0.328125 0.050781 0.054687 0.160156 0.078125 0.328125 0.078125h0.703125c0.3125 0 0.566406-0.03125 0.765625-0.09375 0.207031-0.070313 0.375-0.175781 0.5-0.3125 0.125-0.132813 0.222656-0.3125 0.296875-0.53125 0.070313-0.21875 0.117188-0.472656 0.140625-0.765625h0.390625l-0.21875 2.0625z"/></symbol><symbol id="c" overflow="visible"><path d="m3.17188 0.125c-1.03125 0-1.73438-0.328125-2.10938-0.984375-0.375-0.664063-0.5625-1.55078-0.5625-2.65625 0-0.71875 0.066406-1.34375 0.203125-1.875 0.144531-0.539063 0.414063-0.984375 0.8125-1.32812 0.394531-0.34375 0.945313-0.515625 1.65625-0.515625 0.707031 0 1.25781 0.171875 1.65625 0.515625 0.394531 0.34375 0.660156 0.789062 0.796875 1.32812 0.144531 0.542969 0.21875 1.16797 0.21875 1.875 0 0.523437-0.039062 0.992187-0.109375 1.40625-0.074219 0.417969-0.210937 0.796875-0.40625 1.14062-0.1875 0.34375-0.460937 0.617187-0.8125 0.8125-0.355469 0.1875-0.804687 0.28125-1.34375 0.28125zm-1.0625-1.21875c0.09375 0.230469 0.234375 0.417969 0.421875 0.5625 0.195313 0.148437 0.410156 0.21875 0.640625 0.21875 0.238281 0 0.453125-0.070313 0.640625-0.21875 0.195313-0.144531 0.335938-0.332031 0.421875-0.5625 0.101563-0.289063 0.15625-1.16016 0.15625-2.60938 0-1.32031-0.054687-2.11328-0.15625-2.375-0.085937-0.21875-0.226562-0.390625-0.421875-0.515625-0.1875-0.132813-0.402344-0.203125-0.640625-0.203125-0.230469 0-0.445312 0.070312-0.640625 0.203125-0.199219 0.125-0.339844 0.296875-0.421875 0.515625-0.105469 0.261719-0.15625 1.05469-0.15625 2.375 0 1.44922 0.050781 2.32031 0.15625 2.60938z"/></symbol><symbol id="j" overflow="visible"><path d="m1.20312 1.90625c0-0.0625 0.019531-0.109375 0.0625-0.140625 0.300781-0.230469 0.550781-0.527344 0.75-0.890625 0.207031-0.367187 0.3125-0.726562 0.3125-1.07812-0.167969 0.136719-0.355469 0.203125-0.5625 0.203125-0.25 0-0.464844-0.0820313-0.640625-0.25-0.167969-0.175781-0.25-0.390625-0.25-0.640625 0-0.238281 0.082031-0.441406 0.25-0.609375 0.175781-0.175781 0.390625-0.265625 0.640625-0.265625 0.21875 0 0.40625 0.070312 0.5625 0.203125 0.15625 0.136719 0.269531 0.3125 0.34375 0.53125 0.070313 0.210937 0.109375 0.421875 0.109375 0.640625 0 0.324219-0.054687 0.640625-0.15625 0.953125-0.105469 0.320313-0.25 0.609375-0.4375 0.859375-0.179687 0.257813-0.398437 0.492188-0.65625 0.703125-0.023437 0.007813-0.046875 0.015625-0.078125 0.015625-0.0625 0-0.121094-0.027344-0.171875-0.078125-0.054687-0.054687-0.078125-0.105469-0.078125-0.15625z"/></symbol><symbol id="t" overflow="visible"><path d="m1.46875-1c0.15625 0.1875 0.347656 0.335937 0.578125 0.4375 0.238281 0.105469 0.492188 0.15625 0.765625 0.15625 0.363281 0 0.640625-0.078125 0.828125-0.234375 0.195313-0.15625 0.320313-0.359375 0.375-0.609375 0.050781-0.25 0.078125-0.566406 0.078125-0.953125v-0.03125c0-0.332031-0.015625-0.625-0.046875-0.875-0.03125-0.257813-0.117187-0.484375-0.25-0.671875-0.125-0.195313-0.328125-0.296875-0.609375-0.296875-0.679687 0-1.1875 0.226562-1.53125 0.671875-0.03125 0.042969-0.074219 0.070312-0.125 0.078125h-0.1875c-0.09375-0.019531-0.152344-0.078125-0.171875-0.171875v-3.60938c0.019531-0.0625 0.066406-0.101563 0.140625-0.125 0.039063 0 0.0625 0.00781 0.0625 0.015625 0.59375 0.230469 1.19531 0.34375 1.8125 0.34375 0.613281 0 1.21875-0.113281 1.8125-0.34375 0.03125-0.00781 0.050781-0.015625 0.0625-0.015625 0.070313 0 0.125 0.042969 0.15625 0.125v0.171875c-0.011719 0.03125-0.023437 0.0625-0.03125 0.09375-0.199219 0.273437-0.4375 0.511719-0.71875 0.71875-0.273437 0.210937-0.574219 0.371094-0.90625 0.484375-0.335937 0.105469-0.667969 0.15625-1 0.15625-0.261719 0-0.515625-0.019531-0.765625-0.0625v1.42188c0.382813-0.257813 0.847656-0.390625 1.39062-0.390625 0.46875 0 0.894531 0.089844 1.28125 0.265625 0.382813 0.179687 0.6875 0.445312 0.90625 0.796875 0.226563 0.34375 0.34375 0.757812 0.34375 1.23438 0 0.523437-0.140625 0.960937-0.421875 1.3125-0.28125 0.355469-0.640625 0.617187-1.07812 0.78125-0.4375 0.164062-0.90625 0.25-1.40625 0.25-0.367187 0-0.71875-0.078125-1.0625-0.234375-0.335937-0.15625-0.605469-0.378906-0.8125-0.671875-0.210937-0.289063-0.3125-0.617188-0.3125-0.984375 0-0.21875 0.070313-0.398438 0.21875-0.546875 0.144531-0.144531 0.328125-0.21875 0.546875-0.21875 0.144531 0 0.273438 0.039062 0.390625 0.109375 0.113281 0.0625 0.203125 0.152344 0.265625 0.265625 0.070313 0.117187 0.109375 0.246094 0.109375 0.390625 0 0.199219-0.070312 0.375-0.203125 0.53125-0.125 0.15625-0.289062 0.234375-0.484375 0.234375z"/></symbol><symbol id="w" overflow="visible"><path d="m0.359375-1.70312v-0.578125l3.875-4.82812c0.039063-0.0625 0.109375-0.09375 0.203125-0.09375h0.296875c0.0625 0 0.109375 0.023437 0.140625 0.0625 0.039063 0.03125 0.0625 0.078125 0.0625 0.140625v4.71875h1.04688v0.578125h-1.04688v1.14062h1.04688v0.5625h-3.70312v-0.5625h1.23438v-1.14062zm0.625-0.578125h2.65625v-3.29688z"/></symbol><symbol id="i" overflow="visible"><path d="m0.625 0v-0.4375c0.007813-0.019531 0.023438-0.046875 0.046875-0.078125l2.09375-2.125c0.425781-0.425781 0.757813-0.832031 1-1.21875 0.25-0.382813 0.375-0.800781 0.375-1.25 0-0.28125-0.0625-0.539063-0.1875-0.78125-0.117187-0.25-0.28125-0.441406-0.5-0.578125-0.21875-0.132813-0.480469-0.203125-0.78125-0.203125-0.398437 0-0.730469 0.105469-1 0.3125 0.101563 0.03125 0.203125 0.089844 0.296875 0.171875 0.101563 0.074219 0.175781 0.167969 0.21875 0.28125 0.050781 0.117187 0.078125 0.230469 0.078125 0.34375 0 0.242187-0.078125 0.4375-0.234375 0.59375s-0.351562 0.234375-0.578125 0.234375c-0.242187 0-0.4375-0.078125-0.59375-0.234375s-0.234375-0.351563-0.234375-0.59375c0-0.375 0.117188-0.6875 0.359375-0.9375 0.25-0.25 0.550781-0.429688 0.90625-0.546875 0.363281-0.125 0.734375-0.1875 1.10938-0.1875 0.34375 0 0.671875 0.042969 0.984375 0.125 0.3125 0.085937 0.597656 0.214844 0.859375 0.390625 0.269531 0.167969 0.484375 0.386719 0.640625 0.65625 0.15625 0.273437 0.234375 0.589844 0.234375 0.953125 0 0.398437-0.117187 0.75-0.34375 1.0625-0.230469 0.304687-0.523437 0.585937-0.875 0.84375-0.355469 0.25-0.714844 0.511719-1.07812 0.78125l-1.21875 1h0.609375c0.570313 0 1.05078-0.00391 1.4375-0.015625 0.394531-0.00781 0.601563-0.023438 0.625-0.046875 0.113281-0.125 0.203125-0.460938 0.265625-1.01562h0.578125l-0.359375 2.5z"/></symbol><symbol id="s" overflow="visible"><path d="m1.64062-0.75c0.351563 0.230469 0.804688 0.34375 1.35938 0.34375 0.425781 0 0.710938-0.144531 0.859375-0.4375 0.144531-0.289063 0.21875-0.679688 0.21875-1.17188 0-0.476563-0.074219-0.863281-0.21875-1.15625-0.148437-0.300781-0.4375-0.453125-0.875-0.453125h-0.71875c-0.085937-0.019531-0.132812-0.066406-0.140625-0.140625v-0.171875c0.019531-0.070313 0.066406-0.113281 0.140625-0.125l0.578125-0.046875c0.238281 0 0.4375-0.082031 0.59375-0.25 0.15625-0.175781 0.269531-0.382813 0.34375-0.625 0.082031-0.25 0.125-0.488281 0.125-0.71875 0-0.34375-0.070312-0.601563-0.203125-0.78125-0.136719-0.1875-0.371094-0.28125-0.703125-0.28125-0.210937 0-0.417969 0.03125-0.625 0.09375-0.210937 0.0625-0.390625 0.15625-0.546875 0.28125 0.1875 0.042969 0.335938 0.136719 0.453125 0.28125 0.125 0.148437 0.1875 0.3125 0.1875 0.5 0 0.21875-0.078125 0.40625-0.234375 0.5625-0.148437 0.148437-0.335937 0.21875-0.5625 0.21875-0.21875 0-0.40625-0.070313-0.5625-0.21875-0.148437-0.15625-0.21875-0.34375-0.21875-0.5625 0-0.507813 0.210938-0.90625 0.640625-1.1875 0.4375-0.289063 0.925781-0.4375 1.46875-0.4375 0.257813 0 0.535156 0.027344 0.828125 0.078125 0.289063 0.054687 0.554688 0.136719 0.796875 0.25 0.25 0.117187 0.445313 0.273437 0.59375 0.46875 0.15625 0.199219 0.234375 0.445312 0.234375 0.734375 0 0.242187-0.042969 0.453125-0.125 0.640625-0.074219 0.1875-0.1875 0.367187-0.34375 0.53125-0.15625 0.15625-0.328125 0.292969-0.515625 0.40625-0.179687 0.105469-0.371094 0.1875-0.578125 0.25 0.238281 0.054687 0.472656 0.132812 0.703125 0.234375 0.238281 0.09375 0.445313 0.21875 0.625 0.375 0.175781 0.148437 0.316406 0.328125 0.421875 0.546875 0.113281 0.210937 0.171875 0.445312 0.171875 0.703125 0 0.710937-0.28125 1.24609-0.84375 1.60938-0.5625 0.355469-1.21875 0.53125-1.96875 0.53125-0.375 0-0.757812-0.0585937-1.14062-0.171875-0.375-0.113281-0.695312-0.300781-0.953125-0.5625-0.25-0.257813-0.375-0.582031-0.375-0.96875 0-0.238281 0.082031-0.441406 0.25-0.609375 0.164063-0.164063 0.375-0.25 0.625-0.25 0.15625 0 0.296875 0.039062 0.421875 0.109375 0.132813 0.074219 0.238281 0.179687 0.3125 0.3125 0.082031 0.136719 0.125 0.28125 0.125 0.4375 0 0.199219-0.058594 0.375-0.171875 0.53125-0.105469 0.148437-0.257812 0.246094-0.453125 0.296875z"/></symbol><symbol id="r" overflow="visible"><path d="m1.76562-0.625c0.207031 0.148437 0.5 0.21875 0.875 0.21875 0.476563 0 0.835938-0.144531 1.07812-0.4375 0.238281-0.289063 0.390625-0.632813 0.453125-1.03125 0.0625-0.40625 0.09375-0.875 0.09375-1.40625-0.148437 0.25-0.324219 0.449219-0.53125 0.59375-0.210937 0.136719-0.449219 0.203125-0.71875 0.203125-0.742187 0-1.33984-0.207031-1.79688-0.625-0.460937-0.414063-0.6875-0.992188-0.6875-1.73438 0-0.519531 0.117188-0.957031 0.359375-1.3125 0.238281-0.363281 0.5625-0.632813 0.96875-0.8125 0.40625-0.175781 0.863281-0.265625 1.375-0.265625 0.65625 0 1.17578 0.179687 1.5625 0.53125 0.382813 0.34375 0.648438 0.792969 0.796875 1.34375 0.144531 0.542969 0.21875 1.13672 0.21875 1.78125 0 0.679687-0.121094 1.29688-0.359375 1.85938-0.242187 0.554687-0.601562 1-1.07812 1.34375-0.480469 0.335938-1.05859 0.5-1.73438 0.5-0.324219 0-0.621094-0.046875-0.890625-0.140625-0.261719-0.101563-0.476562-0.257813-0.640625-0.46875-0.167969-0.21875-0.25-0.492188-0.25-0.828125 0-0.195313 0.066406-0.363281 0.203125-0.5 0.132813-0.132813 0.300781-0.203125 0.5-0.203125 0.207031 0 0.378906 0.070312 0.515625 0.203125 0.132813 0.136719 0.203125 0.304687 0.203125 0.5 0 0.167969-0.046875 0.320312-0.140625 0.453125-0.09375 0.125-0.21875 0.203125-0.375 0.234375zm1.32812-2.29688c0.269531 0 0.492188-0.09375 0.671875-0.28125 0.175781-0.195313 0.300781-0.429688 0.375-0.703125 0.070313-0.28125 0.109375-0.550781 0.109375-0.8125v-0.15625c0-0.539063-0.0625-0.988281-0.1875-1.34375-0.117187-0.363281-0.390625-0.546875-0.828125-0.546875-0.355469 0-0.621094 0.089844-0.796875 0.265625-0.167969 0.179687-0.273437 0.390625-0.3125 0.640625-0.03125 0.25-0.046875 0.578125-0.046875 0.984375v0.03125c0 0.398437 0.015625 0.726562 0.046875 0.984375 0.03125 0.25 0.117188 0.46875 0.265625 0.65625 0.15625 0.1875 0.390625 0.28125 0.703125 0.28125z"/></symbol><symbol id="h" overflow="visible"><path d="m3.17188 0.125c-0.511719 0-0.945312-0.101562-1.29688-0.296875-0.34375-0.207031-0.617187-0.488281-0.8125-0.84375-0.199219-0.363281-0.339844-0.757813-0.421875-1.1875-0.074219-0.4375-0.109375-0.894531-0.109375-1.375 0-0.507813 0.070313-0.984375 0.21875-1.42188 0.144531-0.445313 0.359375-0.835938 0.640625-1.17188 0.289063-0.332031 0.644531-0.59375 1.0625-0.78125 0.425781-0.1875 0.898438-0.28125 1.42188-0.28125 0.300781 0 0.570313 0.058594 0.8125 0.171875 0.25 0.105469 0.441406 0.265625 0.578125 0.484375 0.144531 0.210937 0.21875 0.464844 0.21875 0.765625 0 0.199219-0.070312 0.367187-0.203125 0.5-0.136719 0.136719-0.304687 0.203125-0.5 0.203125-0.199219 0-0.371094-0.066406-0.515625-0.203125-0.136719-0.132813-0.203125-0.300781-0.203125-0.5 0-0.164063 0.050781-0.3125 0.15625-0.4375 0.113281-0.132813 0.253906-0.21875 0.421875-0.25-0.179687-0.175781-0.433594-0.265625-0.765625-0.265625-0.292969 0-0.570312 0.074219-0.828125 0.21875-0.25 0.136719-0.453125 0.328125-0.609375 0.578125-0.09375 0.15625-0.164062 0.3125-0.203125 0.46875-0.042969 0.15625-0.078125 0.335937-0.109375 0.53125-0.023437 0.1875-0.039062 0.367187-0.046875 0.53125v0.59375c0.144531-0.25 0.320313-0.441406 0.53125-0.578125 0.207031-0.144531 0.445313-0.21875 0.71875-0.21875 0.488281 0 0.921875 0.09375 1.29688 0.28125s0.664063 0.460937 0.875 0.8125c0.207031 0.355469 0.3125 0.777344 0.3125 1.26562 0 0.398437-0.070312 0.746094-0.203125 1.04688-0.136719 0.304687-0.324219 0.558594-0.5625 0.765625-0.242187 0.199219-0.523437 0.351562-0.84375 0.453125-0.324219 0.09375-0.667969 0.140625-1.03125 0.140625zm0-0.53125c0.476563 0 0.78125-0.15625 0.90625-0.46875 0.125-0.320313 0.1875-0.785156 0.1875-1.39062v-0.03125c0-0.59375-0.058594-1.05469-0.171875-1.39062-0.117187-0.34375-0.398437-0.515625-0.84375-0.515625-0.398437 0-0.6875 0.1875-0.875 0.5625s-0.28125 0.777344-0.28125 1.20312v0.1875c0 0.21875 0.00391 0.433594 0.015625 0.640625 0.019531 0.199219 0.066406 0.390625 0.140625 0.578125 0.070313 0.1875 0.179688 0.339844 0.328125 0.453125 0.15625 0.117187 0.351563 0.171875 0.59375 0.171875z"/></symbol><symbol id="v" overflow="visible"><path d="m2.10938-0.59375c0-0.507813 0.070313-1.01953 0.21875-1.53125 0.144531-0.507813 0.347656-0.988281 0.609375-1.4375 0.257813-0.457031 0.566406-0.894531 0.921875-1.3125l0.6875-0.8125h-0.765625c-1.44922 0-2.19531 0.023437-2.23438 0.0625-0.117187 0.136719-0.210937 0.46875-0.28125 1h-0.5625l0.390625-2.84375h0.5625v0.03125c0 0.085937 0.046875 0.152344 0.140625 0.203125 0.09375 0.042969 0.1875 0.0625 0.28125 0.0625 0.125 0 0.285156 0.00781 0.484375 0.015625 0.207031 0.011719 0.472656 0.023437 0.796875 0.03125 0.320313 0.011719 0.5 0.015625 0.53125 0.015625h2.28125v0.390625c-0.011719 0.042969-0.027344 0.074219-0.046875 0.09375l-1.73438 2.01562c-0.210937 0.25-0.371094 0.539062-0.484375 0.859375-0.117187 0.3125-0.203125 0.648437-0.265625 1-0.054687 0.355469-0.085937 0.695312-0.09375 1.01562-0.011719 0.3125-0.015625 0.695312-0.015625 1.14062 0 0.199219-0.070312 0.371094-0.203125 0.515625-0.136719 0.132812-0.304687 0.203125-0.5 0.203125-0.199219 0-0.371094-0.0703125-0.515625-0.203125-0.136719-0.144531-0.203125-0.316406-0.203125-0.515625z"/></symbol><symbol id="d" overflow="visible"><path d="m0.53125-1.79688c0-0.289063 0.054688-0.550781 0.171875-0.78125 0.113281-0.226563 0.269531-0.425781 0.46875-0.59375 0.207031-0.175781 0.453125-0.332031 0.734375-0.46875-0.3125-0.175781-0.5625-0.40625-0.75-0.6875-0.179687-0.289063-0.265625-0.601563-0.265625-0.9375 0-0.425781 0.101563-0.785156 0.3125-1.07812 0.207031-0.300781 0.484375-0.523438 0.828125-0.671875 0.34375-0.144531 0.722656-0.21875 1.14062-0.21875 0.289063 0 0.566406 0.027344 0.828125 0.078125 0.269531 0.054687 0.515625 0.148437 0.734375 0.28125 0.21875 0.125 0.390625 0.296875 0.515625 0.515625 0.132813 0.210937 0.203125 0.464844 0.203125 0.765625 0 0.625-0.359375 1.125-1.07812 1.5l0.34375 0.1875c0.3125 0.199219 0.570313 0.460937 0.78125 0.78125 0.207031 0.3125 0.3125 0.65625 0.3125 1.03125 0 0.480469-0.121094 0.890625-0.359375 1.23438-0.242187 0.335937-0.5625 0.585937-0.96875 0.75-0.398437 0.15625-0.835937 0.234375-1.3125 0.234375-0.449219 0-0.875-0.0625-1.28125-0.1875-0.398437-0.125-0.726562-0.328125-0.984375-0.609375-0.25-0.289063-0.375-0.664063-0.375-1.125zm1 0c0 0.449219 0.15625 0.792969 0.46875 1.03125 0.320313 0.242187 0.710938 0.359375 1.17188 0.359375 0.4375 0 0.816406-0.078125 1.14062-0.234375 0.332031-0.164063 0.5-0.445313 0.5-0.84375 0-0.113281-0.027344-0.21875-0.078125-0.3125-0.042969-0.101563-0.105469-0.195313-0.1875-0.28125-0.074219-0.082031-0.164062-0.15625-0.265625-0.21875l-1.8125-1.01562c-0.292969 0.167969-0.523437 0.382812-0.6875 0.640625-0.167969 0.261719-0.25 0.554687-0.25 0.875zm0.625-3.53125 1.6875 0.9375c0.226563-0.144531 0.40625-0.316406 0.53125-0.515625 0.132813-0.195313 0.203125-0.425781 0.203125-0.6875 0-0.382813-0.136719-0.675781-0.40625-0.875-0.273437-0.195313-0.605469-0.296875-1-0.296875-0.9375 0-1.40625 0.28125-1.40625 0.84375 0 0.230469 0.128906 0.429687 0.390625 0.59375z"/></symbol><symbol id="x" overflow="visible"><path d="m1.0625 0v-0.5625h1.51562v-5.60938c-0.4375 0.136719-0.992187 0.203125-1.65625 0.203125v-0.5625c0.519531 0 0.992188-0.046875 1.42188-0.140625 0.4375-0.101563 0.816406-0.289063 1.14062-0.5625h0.265625c0.101563 0.023437 0.164063 0.078125 0.1875 0.171875v6.5h1.51562v0.5625z"/></symbol><clipPath id="an"><path d="m51.3594 98h206.211v16h-206.211z"/></clipPath><clipPath id="am"><path d="m51.3594 127h206.211v16h-206.211z"/></clipPath><clipPath id="al"><path d="m51.3594 84h12.6406v16h-12.6406z"/></clipPath></defs><g transform="translate(-197.004 99.4965)"><g transform="matrix(1.33333 0 0 1.33333 129.816 -176.147)"><g clip-path="url(#an)"><path d="m50.8789 113.281h206.332v-14.6406h-206.332z" fill="#d7d7d7" fill-rule="evenodd"/></g><g clip-path="url(#am)"><path d="m50.8789 142.34h206.332v-14.6641h-206.332z" fill="#d7d7d7" fill-rule="evenodd"/></g><g><use x="53.040001" y="65.160004" width="100%" height="100%" xlink:href="#g"/><use x="60.216" y="65.160004" width="100%" height="100%" xlink:href="#ak"/><use x="67.060799" y="65.160004" width="100%" height="100%" xlink:href="#aj"/><use x="77.504639" y="65.160004" width="100%" height="100%" xlink:href="#ai"/><use x="83.377922" y="65.160004" width="100%" height="100%" xlink:href="#b"/><use x="89.251198" y="65.160004" width="100%" height="100%" xlink:href="#f"/><use x="94.782242" y="65.160004" width="100%" height="100%" xlink:href="#ah"/><use x="104.50848" y="65.160004" width="100%" height="100%" xlink:href="#e"/><use x="110.98896" y="65.160004" width="100%" height="100%" xlink:href="#a"/><use x="53.040001" y="94.800003" width="100%" height="100%" xlink:href="#ag"/></g><g clip-path="url(#al)"><path transform="matrix(1,0,0,-1,0,792)" d="m53.6016 697.199v0.35937c0.257812 0 0.453125 0.0195 0.578125 0.0625 0.125 0.0391 0.1875 0.15625 0.1875 0.34375v4.04688c0 0.19531-0.0625 0.3164-0.1875 0.35937-0.125 0.0391-0.320313 0.0625-0.578125 0.0625v0.35938h4.82812l0.203125-1.8125h-0.375c-0.04297 0.33203-0.101563 0.59375-0.171875 0.78125-0.07422 0.19531-0.179688 0.34375-0.3125 0.4375-0.136719 0.0937-0.304688 0.15625-0.5 0.1875-0.1875 0.0312-0.464844 0.0469-0.828125 0.0469h-0.84375c-0.167969 0-0.277344-0.0273-0.328125-0.0781-0.04297-0.0547-0.0625-0.16797-0.0625-0.34375v-1.84375h0.59375c0.28125 0 0.488281 0.0156 0.625 0.0469 0.132812 0.0391 0.234375 0.125 0.296875 0.25s0.09375 0.31641 0.09375 0.57813h0.390625v-2.09375h-0.390625c0 0.25781-0.03125 0.45312-0.09375 0.57812s-0.164063 0.20313-0.296875 0.23438c-0.136719 0.0312-0.34375 0.0469-0.625 0.0469h-0.59375v-1.84375c0-0.17968 0.08594-0.29297 0.265625-0.34375 0.175781-0.043 0.410156-0.0625 0.703125-0.0625v-0.35937z" fill="none" stroke="#000" stroke-miterlimit="10" stroke-width=".31543"/></g><g><use x="59.26656" y="94.800003" width="100%" height="100%" xlink:href="#y"/></g><path transform="matrix(1,0,0,-1,0,792)" d="m59.9219 699.965c0 0.51953 0.132813 1.00782 0.40625 1.46875 0.269531 0.46875 0.632813 0.83594 1.09375 1.10938 0.46875 0.26953 0.960938 0.40625 1.48438 0.40625 0.414063 0 0.800781-0.0781 1.15625-0.23438 0.363281-0.15625 0.679688-0.375 0.953125-0.65625 0.28125-0.27343 0.492188-0.58984 0.640625-0.95312 0.15625-0.35547 0.234375-0.73438 0.234375-1.14063 0-0.53125-0.136719-1.02734-0.40625-1.48437-0.273437-0.44922-0.636719-0.80469-1.09375-1.0625-0.460937-0.25-0.953125-0.375-1.48438-0.375-0.386719 0-0.761719 0.0742-1.125 0.21875-0.367187 0.14453-0.695312 0.35156-0.984375 0.625-0.28125 0.28125-0.5 0.59375-0.65625 0.9375-0.148437 0.35156-0.21875 0.73437-0.21875 1.14062zm2.98438-2.51562c0.457031 0 0.832031 0.1289 1.125 0.39062 0.300781 0.25782 0.519531 0.59375 0.65625 1 0.132813 0.40625 0.203125 0.82813 0.203125 1.26563 0 0.3125-0.04297 0.61328-0.125 0.90625-0.07422 0.28906-0.195312 0.55078-0.359375 0.78125-0.15625 0.23828-0.367187 0.42578-0.625 0.5625-0.25 0.13281-0.542969 0.20312-0.875 0.20312-0.4375 0-0.808594-0.11718-1.10938-0.34375-0.304687-0.23047-0.527344-0.53125-0.671875-0.90625-0.136719-0.375-0.203125-0.77734-0.203125-1.20312 0-0.4375 0.06641-0.86719 0.203125-1.28125 0.132813-0.40625 0.351563-0.74219 0.65625-1 0.300781-0.25 0.675781-0.375 1.125-0.375z" fill="none" stroke="#000" stroke-miterlimit="10" stroke-width=".31543"/><g><use x="66.69648" y="94.800003" width="100%" height="100%" xlink:href="#u"/></g><path transform="matrix(1,0,0,-1,0,792)" d="m67.2578 697.199v0.35937c0.238281 0 0.425781 0.0547 0.5625 0.17188 0.132812 0.125 0.203125 0.30469 0.203125 0.54687v4.09375c-0.136719 0.0391-0.390625 0.0625-0.765625 0.0625v0.35938h1.46875c0.03906-0.0234 0.07031-0.0391 0.09375-0.0469l3.10938-4.20312v3.17187c0 0.23828-0.07031 0.41407-0.203125 0.53125-0.125 0.125-0.3125 0.1875-0.5625 0.1875v0.35938h1.95312v-0.35938c-0.242188 0-0.429688-0.0625-0.5625-0.1875-0.136719-0.11718-0.203125-0.29297-0.203125-0.53125v-4.375c-0.02344-0.0742-0.0625-0.12109-0.125-0.14062h-0.15625c-0.05469 8e-3 -0.08594 0.0234-0.09375 0.0469l-3.53125 4.76563v-3.73438c0-0.16797 0.03125-0.30468 0.09375-0.40625 0.0625-0.10547 0.148437-0.18359 0.265625-0.23437 0.113281-0.0547 0.25-0.0781 0.40625-0.0781v-0.35937z" fill="none" stroke="#000" stroke-miterlimit="10" stroke-width=".31543"/><g><use x="73.762077" y="94.800003" width="100%" height="100%" xlink:href="#ae"/></g><path transform="matrix(1,0,0,-1,0,792)" d="m74.3242 697.199v0.35937c0.257812 0 0.453125 0.0195 0.578125 0.0625 0.125 0.0391 0.1875 0.15625 0.1875 0.34375v4.04688c0 0.19531-0.0625 0.3164-0.1875 0.35937-0.125 0.0391-0.320313 0.0625-0.578125 0.0625v0.35938h2.375v-0.35938c-0.25 0-0.445313-0.0234-0.578125-0.0625-0.125-0.043-0.1875-0.16406-0.1875-0.35937v-2.32813l2.375 2.03125c0.238281 0.20703 0.359375 0.39453 0.359375 0.5625 0 0.10157-0.04297 0.15625-0.125 0.15625v0.35938h1.8125v-0.35938c-0.261719 0-0.511719-0.0703-0.75-0.20312-0.230469-0.13672-0.464844-0.3086-0.703125-0.51563l-1.34375-1.14062 1.78125-2.29688c0.21875-0.28125 0.390625-0.47656 0.515625-0.57812 0.132812-0.0937 0.335937-0.14063 0.609375-0.14063v-0.35937h-2.07812v0.35937c0.1875 0 0.28125 0.0625 0.28125 0.1875 0 0.13282-0.08984 0.3125-0.265625 0.53125l-1.39062 1.8125-1.07812-0.90625v-1.21875c0-0.1875 0.0625-0.30468 0.1875-0.34375 0.132812-0.043 0.328125-0.0625 0.578125-0.0625v-0.35937z" fill="none" stroke="#000" stroke-miterlimit="10" stroke-width=".31543"/><g><use x="81.070557" y="94.800003" width="100%" height="100%" xlink:href="#ad"/></g><path transform="matrix(1,0,0,-1,0,792)" d="m81.7266 697.168v1.76562c0 0.0312 0.0078 0.0547 0.03125 0.0781 0.03125 0.0312 0.05469 0.0469 0.07813 0.0469h0.15625c0.01953 0 0.04687-0.0156 0.07813-0.0469 0.03125-0.0234 0.04687-0.0469 0.04687-0.0781 0-0.51172 0.171875-0.89843 0.515625-1.15625 0.351562-0.25 0.796875-0.375 1.32812-0.375 0.1875 0 0.375 0.0469 0.5625 0.14063 0.1875 0.10156 0.332031 0.23828 0.4375 0.40625 0.101562 0.16406 0.15625 0.35156 0.15625 0.5625 0 0.25-0.08984 0.47265-0.265625 0.67187-0.167969 0.20703-0.375 0.33594-0.625 0.39063l-1.1875 0.26562c-0.375 0.082-0.6875 0.26563-0.9375 0.54688-0.25 0.28906-0.375 0.61719-0.375 0.98437 0 0.28907 0.07813 0.55469 0.234375 0.79688 0.164062 0.23828 0.378906 0.42578 0.640625 0.5625 0.269531 0.14453 0.554687 0.21875 0.859375 0.21875 0.582031 0 1.03906-0.17188 1.375-0.51563l0.359375 0.46875c0.0078 0.0312 0.04687 0.0469 0.109375 0.0469 0.09375 0 0.140625-0.043 0.140625-0.125v-1.76563c0-0.0312-0.01563-0.0625-0.04687-0.0937-0.02344-0.0234-0.04687-0.0312-0.07813-0.0312h-0.140625c-0.0625 0-0.105469 0.0391-0.125 0.125-0.05469 0.47657-0.214844 0.85938-0.484375 1.14063-0.273438 0.28125-0.640625 0.42187-1.10938 0.42187-0.304688 0-0.574219-0.10156-0.8125-0.29687-0.230469-0.1875-0.34375-0.42188-0.34375-0.70313 0-0.24218 0.08594-0.45312 0.265625-0.64062 0.175781-0.17969 0.378906-0.29297 0.609375-0.34375l1.1875-0.26563c0.238281-0.0547 0.460937-0.16406 0.671875-0.32812 0.207031-0.15625 0.367187-0.35547 0.484375-0.59375 0.113281-0.23047 0.171875-0.46875 0.171875-0.71875 0-0.30469-0.07813-0.58594-0.234375-0.84375-0.15625-0.26172-0.371094-0.46875-0.640625-0.625-0.261719-0.14453-0.546875-0.21875-0.859375-0.21875-0.304688 0-0.601563 0.043-0.890625 0.125-0.28125 0.0703-0.53125 0.19531-0.75 0.375l-0.34375-0.45313c-0.02344-0.0312-0.05859-0.0469-0.109375-0.0469-0.09375 0-0.140625 0.043-0.140625 0.125z" fill="none" stroke="#000" stroke-miterlimit="10" stroke-width=".31543"/><g><use x="86.458076" y="94.800003" width="100%" height="100%" xlink:href="#ac"/></g><path transform="matrix(1,0,0,-1,0,792)" d="m86.9727 697.199v0.35937c0.269532 0 0.472657 0.0195 0.609375 0.0625 0.132813 0.0391 0.203125 0.15625 0.203125 0.34375v4.04688c0 0.19531-0.07031 0.3164-0.203125 0.35937-0.136718 0.0391-0.339843 0.0625-0.609375 0.0625v0.35938h2.46875v-0.35938c-0.261718 0-0.464843-0.0234-0.609375-0.0625-0.136718-0.043-0.203125-0.16406-0.203125-0.35937v-4.04688c0-0.1875 0.06641-0.30468 0.203125-0.34375 0.144532-0.043 0.347657-0.0625 0.609375-0.0625v-0.35937z" fill="none" stroke="#000" stroke-miterlimit="10" stroke-width=".31543"/><g><use x="90.046082" y="94.800003" width="100%" height="100%" xlink:href="#ab"/></g><path transform="matrix(1,0,0,-1,0,792)" d="m92.3594 697.199v0.35937c0.257813 0 0.453125 0.0195 0.578125 0.0625 0.125 0.0391 0.1875 0.15625 0.1875 0.34375v1.46875l-1.78125 2.57813c-0.136719 0.19531-0.265625 0.3164-0.390625 0.35937-0.117187 0.0391-0.3125 0.0625-0.59375 0.0625v0.35938h2.26562v-0.35938c-0.273437 0-0.40625-0.0625-0.40625-0.1875 0-0.0312 0.03516-0.10937 0.109375-0.23437l1.48438-2.14063 1.28125 1.84375c0.125 0.17578 0.1875 0.32813 0.1875 0.45313 0 0.0703-0.02734 0.13281-0.07813 0.1875-0.05469 0.0508-0.117187 0.0781-0.1875 0.0781v0.35938h1.6875v-0.35938c-0.230469 0-0.449219-0.0703-0.65625-0.20312-0.199219-0.125-0.371094-0.29688-0.515625-0.51563l-1.57812-2.28125v-1.46875c0-0.1875 0.0625-0.30468 0.1875-0.34375 0.125-0.043 0.3125-0.0625 0.5625-0.0625v-0.35937z" fill="none" stroke="#000" stroke-miterlimit="10" stroke-width=".31543"/><g><use x="97.111679" y="94.800003" width="100%" height="100%" xlink:href="#y"/></g><path transform="matrix(1,0,0,-1,0,792)" d="m97.7695 699.965c0 0.51953 0.132813 1.00782 0.40625 1.46875 0.269532 0.46875 0.632813 0.83594 1.09375 1.10938 0.46875 0.26953 0.960939 0.40625 1.48438 0.40625 0.41406 0 0.80078-0.0781 1.15625-0.23438 0.36328-0.15625 0.67968-0.375 0.95312-0.65625 0.28125-0.27343 0.49219-0.58984 0.64063-0.95312 0.15625-0.35547 0.23437-0.73438 0.23437-1.14063 0-0.53125-0.13672-1.02734-0.40625-1.48437-0.27344-0.44922-0.63672-0.80469-1.09375-1.0625-0.46094-0.25-0.95312-0.375-1.48437-0.375-0.38672 0-0.761722 0.0742-1.125 0.21875-0.367187 0.14453-0.695312 0.35156-0.984375 0.625-0.28125 0.28125-0.5 0.59375-0.65625 0.9375-0.148437 0.35156-0.21875 0.73437-0.21875 1.14062zm2.98438-2.51562c0.45703 0 0.83203 0.1289 1.125 0.39062 0.30078 0.25782 0.51953 0.59375 0.65625 1 0.13281 0.40625 0.20312 0.82813 0.20312 1.26563 0 0.3125-0.043 0.61328-0.125 0.90625-0.0742 0.28906-0.19531 0.55078-0.35937 0.78125-0.15625 0.23828-0.36719 0.42578-0.625 0.5625-0.25 0.13281-0.54297 0.20312-0.875 0.20312-0.4375 0-0.808597-0.11718-1.10938-0.34375-0.304687-0.23047-0.527343-0.53125-0.671875-0.90625-0.136718-0.375-0.203125-0.77734-0.203125-1.20312 0-0.4375 0.06641-0.86719 0.203125-1.28125 0.132813-0.40625 0.351563-0.74219 0.65625-1 0.300782-0.25 0.675784-0.375 1.125-0.375z" fill="none" stroke="#000" stroke-miterlimit="10" stroke-width=".31543"/><g><use x="104.5416" y="94.800003" width="100%" height="100%" xlink:href="#u"/></g><path transform="matrix(1,0,0,-1,0,792)" d="m105.105 697.199v0.35937c0.23828 0 0.42578 0.0547 0.5625 0.17188 0.13281 0.125 0.20312 0.30469 0.20312 0.54687v4.09375c-0.13671 0.0391-0.39062 0.0625-0.76562 0.0625v0.35938h1.46875c0.0391-0.0234 0.0703-0.0391 0.0937-0.0469l3.10937-4.20312v3.17187c0 0.23828-0.0703 0.41407-0.20312 0.53125-0.125 0.125-0.3125 0.1875-0.5625 0.1875v0.35938h1.95312v-0.35938c-0.24218 0-0.42968-0.0625-0.5625-0.1875-0.13671-0.11718-0.20312-0.29297-0.20312-0.53125v-4.375c-0.0234-0.0742-0.0625-0.12109-0.125-0.14062h-0.15625c-0.0547 8e-3 -0.0859 0.0234-0.0937 0.0469l-3.53125 4.76563v-3.73438c0-0.16797 0.0312-0.30468 0.0937-0.40625 0.0625-0.10547 0.14844-0.18359 0.26562-0.23437 0.11329-0.0547 0.25-0.0781 0.40625-0.0781v-0.35937z" fill="none" stroke="#000" stroke-miterlimit="10" stroke-width=".31543"/><g><use x="173.42" y="94.800003" width="100%" height="100%" xlink:href="#aa"/></g><path transform="matrix(1,0,0,-1,0,792)" d="m174.375 697.199c-0.043 0-0.0781 0.0156-0.10938 0.0469-0.0312 0.0312-0.0469 0.0664-0.0469 0.10938v0.14062c0 0.0312 0.0156 0.0664 0.0469 0.10938l4.875 6.73437h-1.78125c-0.44921 0-0.82812-0.0312-1.14062-0.0937-0.3125-0.0547-0.58594-0.18359-0.8125-0.39062-0.21094-0.19922-0.37109-0.44531-0.48438-0.73438-0.10546-0.29297-0.15625-0.60156-0.15625-0.92187h-0.39062l0.14062 2.54687h5.75c0.0391 0 0.0703-0.0156 0.0937-0.0469 0.0312-0.0312 0.0469-0.0703 0.0469-0.10938v-0.125c0-0.0312-0.0117-0.0625-0.0312-0.0937l-4.85938-6.73437h1.84375c0.48829 0 0.89454 0.0312 1.21875 0.0937 0.33204 0.0625 0.625 0.20312 0.875 0.42187 0.14454 0.15625 0.26954 0.34766 0.375 0.57813 0.10157 0.23828 0.17579 0.47656 0.21875 0.71875 0.0391 0.25 0.0625 0.5039 0.0625 0.76562h0.39061l-0.20313-3.01562z" fill="none" stroke="#000" stroke-miterlimit="10" stroke-width=".31543"/><g><use x="181.32465" y="94.800003" width="100%" height="100%" xlink:href="#k"/></g><path transform="matrix(1,0,0,-1,0,792)" d="m181.793 697.199v0.35937c0.22656 0 0.42578 0.0625 0.59375 0.1875 0.17578 0.13282 0.30469 0.3125 0.39062 0.53125l1.78125 4.51563c0.0391 0.10156 0.125 0.15625 0.25 0.15625 0.13282 0 0.22266-0.0547 0.26563-0.15625l1.90625-4.82813c0.082-0.1875 0.17969-0.30468 0.29687-0.34375 0.11328-0.043 0.29688-0.0625 0.54688-0.0625v-0.35937h-2.21875v0.35937c0.35156 0 0.53125 0.0859 0.53125 0.26563 0 0.0391-0.0117 0.0859-0.0312 0.14062l-0.39063 1h-2.29687l-0.26563-0.6875c-0.043-0.0937-0.0625-0.18359-0.0625-0.26562 0-0.125 0.0391-0.23438 0.125-0.32813 0.082-0.0859 0.19141-0.125 0.32813-0.125v-0.35937zm1.78125 2.125h2l-1 2.53125z" fill="none" stroke="#000" stroke-miterlimit="10" stroke-width=".31543"/><g><use x="188.39024" y="94.800003" width="100%" height="100%" xlink:href="#z"/></g><path transform="matrix(1,0,0,-1,0,792)" d="m189.016 697.199v0.35937c0.23829 0 0.42188 0.0547 0.54688 0.17188 0.13281 0.125 0.20312 0.30469 0.20312 0.54687v3.73438c0 0.19531-0.0625 0.3164-0.1875 0.35937-0.125 0.0391-0.3125 0.0625-0.5625 0.0625v0.35938h1.5c0.10157 0 0.17969-0.0547 0.23438-0.15625l1.875-4.57813 1.89062 4.57813c0.0508 0.10156 0.12891 0.15625 0.23438 0.15625h1.5v-0.35938c-0.25 0-0.4375-0.0234-0.5625-0.0625-0.125-0.043-0.1875-0.16406-0.1875-0.35937v-4.04688c0-0.1875 0.0625-0.30468 0.1875-0.34375 0.125-0.043 0.3125-0.0625 0.5625-0.0625v-0.35937h-2.26563v0.35937c0.25782 0 0.45313 0.0195 0.57813 0.0625 0.125 0.0391 0.1875 0.15625 0.1875 0.34375v4.39063l-2.04688-5c-0.043-0.10547-0.125-0.15625-0.25-0.15625-0.11718 0-0.19531 0.0508-0.23437 0.15625l-2.03125 4.92187v-4c0-0.16797 0.0312-0.30468 0.0937-0.40625 0.0625-0.10547 0.14844-0.18359 0.26562-0.23437 0.11329-0.0547 0.25-0.0781 0.40625-0.0781v-0.35937z" fill="none" stroke="#000" stroke-miterlimit="10" stroke-width=".31543"/><g><use x="197.02351" y="94.800003" width="100%" height="100%" xlink:href="#k"/></g><path transform="matrix(1,0,0,-1,0,792)" d="m197.492 697.199v0.35937c0.22656 0 0.42578 0.0625 0.59375 0.1875 0.17578 0.13282 0.30468 0.3125 0.39062 0.53125l1.78125 4.51563c0.0391 0.10156 0.125 0.15625 0.25 0.15625 0.13281 0 0.22266-0.0547 0.26563-0.15625l1.90625-4.82813c0.082-0.1875 0.17968-0.30468 0.29687-0.34375 0.11328-0.043 0.29688-0.0625 0.54688-0.0625v-0.35937h-2.21875v0.35937c0.35156 0 0.53125 0.0859 0.53125 0.26563 0 0.0391-0.0117 0.0859-0.0312 0.14062l-0.39063 1h-2.29687l-0.26563-0.6875c-0.043-0.0937-0.0625-0.18359-0.0625-0.26562 0-0.125 0.0391-0.23438 0.125-0.32813 0.082-0.0859 0.19141-0.125 0.32813-0.125v-0.35937zm1.78125 2.125h2l-1 2.53125z" fill="none" stroke="#000" stroke-miterlimit="10" stroke-width=".31543"/><g><use x="204.08913" y="94.800003" width="100%" height="100%" xlink:href="#u"/></g><path transform="matrix(1,0,0,-1,0,792)" d="m204.652 697.199v0.35937c0.23828 0 0.42578 0.0547 0.5625 0.17188 0.13282 0.125 0.20313 0.30469 0.20313 0.54687v4.09375c-0.13672 0.0391-0.39063 0.0625-0.76563 0.0625v0.35938h1.46875c0.0391-0.0234 0.0703-0.0391 0.0937-0.0469l3.10938-4.20312v3.17187c0 0.23828-0.0703 0.41407-0.20313 0.53125-0.125 0.125-0.3125 0.1875-0.5625 0.1875v0.35938h1.95313v-0.35938c-0.24219 0-0.42969-0.0625-0.5625-0.1875-0.13672-0.11718-0.20313-0.29297-0.20313-0.53125v-4.375c-0.0234-0.0742-0.0625-0.12109-0.125-0.14062h-0.15625c-0.0547 8e-3 -0.0859 0.0234-0.0937 0.0469l-3.53125 4.76563v-3.73438c0-0.16797 0.0312-0.30468 0.0937-0.40625 0.0625-0.10547 0.14844-0.18359 0.26563-0.23437 0.11328-0.0547 0.25-0.0781 0.40625-0.0781v-0.35937z" fill="none" stroke="#000" stroke-miterlimit="10" stroke-width=".31543"/><g><use x="211.15472" y="94.800003" width="100%" height="100%" xlink:href="#af"/></g><path transform="matrix(1,0,0,-1,0,792)" d="m211.719 697.199v0.35937c0.25781 0 0.45312 0.0195 0.57812 0.0625 0.125 0.0391 0.1875 0.15625 0.1875 0.34375v4.04688c0 0.19531-0.0625 0.3164-0.1875 0.35937-0.125 0.0391-0.32031 0.0625-0.57812 0.0625v0.35938h2.57812v-0.35938c-0.29296 0-0.52734-0.0273-0.70312-0.0781-0.17969-0.043-0.26563-0.15625-0.26563-0.34375v-4.04688c0-0.16797 0.0195-0.27734 0.0625-0.32812 0.0508-0.0547 0.16016-0.0781 0.32813-0.0781h0.70312c0.3125 0 0.56641 0.0312 0.76563 0.0937 0.20703 0.0703 0.375 0.17578 0.5 0.3125 0.125 0.13282 0.22266 0.3125 0.29687 0.53125 0.0703 0.21875 0.11719 0.47266 0.14063 0.76563h0.39062l-0.21875-2.0625z" fill="none" stroke="#000" stroke-miterlimit="10" stroke-width=".31543"/><g><use x="217.1384" y="94.800003" width="100%" height="100%" xlink:href="#k"/></g><path transform="matrix(1,0,0,-1,0,792)" d="m217.605 697.199v0.35937c0.22656 0 0.42578 0.0625 0.59375 0.1875 0.17578 0.13282 0.30469 0.3125 0.39062 0.53125l1.78125 4.51563c0.0391 0.10156 0.125 0.15625 0.25 0.15625 0.13282 0 0.22266-0.0547 0.26563-0.15625l1.90625-4.82813c0.082-0.1875 0.17969-0.30468 0.29687-0.34375 0.11328-0.043 0.29688-0.0625 0.54688-0.0625v-0.35937h-2.21875v0.35937c0.35156 0 0.53125 0.0859 0.53125 0.26563 0 0.0391-0.0117 0.0859-0.0312 0.14062l-0.39063 1h-2.29687l-0.26563-0.6875c-0.043-0.0937-0.0625-0.18359-0.0625-0.26562 0-0.125 0.0391-0.23438 0.125-0.32813 0.082-0.0859 0.19141-0.125 0.32813-0.125v-0.35937zm1.78125 2.125h2l-1 2.53125z" fill="none" stroke="#000" stroke-miterlimit="10" stroke-width=".31543"/><g><use x="224.20399" y="94.800003" width="100%" height="100%" xlink:href="#z"/></g><path transform="matrix(1,0,0,-1,0,792)" d="m224.828 697.199v0.35937c0.23829 0 0.42188 0.0547 0.54688 0.17188 0.13281 0.125 0.20312 0.30469 0.20312 0.54687v3.73438c0 0.19531-0.0625 0.3164-0.1875 0.35937-0.125 0.0391-0.3125 0.0625-0.5625 0.0625v0.35938h1.5c0.10157 0 0.17969-0.0547 0.23438-0.15625l1.875-4.57813 1.89062 4.57813c0.0508 0.10156 0.12891 0.15625 0.23438 0.15625h1.5v-0.35938c-0.25 0-0.4375-0.0234-0.5625-0.0625-0.125-0.043-0.1875-0.16406-0.1875-0.35937v-4.04688c0-0.1875 0.0625-0.30468 0.1875-0.34375 0.125-0.043 0.3125-0.0625 0.5625-0.0625v-0.35937h-2.26563v0.35937c0.25782 0 0.45313 0.0195 0.57813 0.0625 0.125 0.0391 0.1875 0.15625 0.1875 0.34375v4.39063l-2.04688-5c-0.043-0.10547-0.125-0.15625-0.25-0.15625-0.11718 0-0.19531 0.0508-0.23437 0.15625l-2.03125 4.92187v-4c0-0.16797 0.0312-0.30468 0.0937-0.40625 0.0625-0.10547 0.14844-0.18359 0.26562-0.23437 0.11329-0.0547 0.25-0.0781 0.40625-0.0781v-0.35937z" fill="none" stroke="#000" stroke-miterlimit="10" stroke-width=".31543"/><g><use x="232.83728" y="94.800003" width="100%" height="100%" xlink:href="#k"/></g><path transform="matrix(1,0,0,-1,0,792)" d="m233.305 697.199v0.35937c0.22656 0 0.42578 0.0625 0.59375 0.1875 0.17578 0.13282 0.30468 0.3125 0.39062 0.53125l1.78125 4.51563c0.0391 0.10156 0.125 0.15625 0.25 0.15625 0.13281 0 0.22266-0.0547 0.26563-0.15625l1.90625-4.82813c0.082-0.1875 0.17968-0.30468 0.29687-0.34375 0.11328-0.043 0.29688-0.0625 0.54688-0.0625v-0.35937h-2.21875v0.35937c0.35156 0 0.53125 0.0859 0.53125 0.26563 0 0.0391-0.0117 0.0859-0.0312 0.14062l-0.39063 1h-2.29687l-0.26563-0.6875c-0.043-0.0937-0.0625-0.18359-0.0625-0.26562 0-0.125 0.0391-0.23438 0.125-0.32813 0.082-0.0859 0.19141-0.125 0.32813-0.125v-0.35937zm1.78125 2.125h2l-1 2.53125z" fill="none" stroke="#000" stroke-miterlimit="10" stroke-width=".31543"/><g><use x="53.040001" y="109.32" width="100%" height="100%" xlink:href="#q"/><use x="60.734879" y="109.32" width="100%" height="100%" xlink:href="#b"/><use x="66.608162" y="109.32" width="100%" height="100%" xlink:href="#p"/><use x="72.481438" y="109.32" width="100%" height="100%" xlink:href="#b"/><use x="78.354721" y="109.32" width="100%" height="100%" xlink:href="#g"/><use x="85.530724" y="109.32" width="100%" height="100%" xlink:href="#o"/><use x="92.055359" y="109.32" width="100%" height="100%" xlink:href="#f"/><use x="97.586403" y="109.32" width="100%" height="100%" xlink:href="#b"/><use x="103.45968" y="109.32" width="100%" height="100%" xlink:href="#n"/><use x="109.91808" y="109.32" width="100%" height="100%" xlink:href="#m"/><use x="115.18416" y="109.32" width="100%" height="100%" xlink:href="#e"/><use x="121.66464" y="109.32" width="100%" height="100%" xlink:href="#a"/><use x="128.14513" y="109.32" width="100%" height="100%" xlink:href="#a"/><use x="134.6256" y="109.32" width="100%" height="100%" xlink:href="#l"/><use x="187.82001" y="109.32" width="100%" height="100%" xlink:href="#c"/><use x="194.168" y="109.32" width="100%" height="100%" xlink:href="#j"/><use x="197.68976" y="109.32" width="100%" height="100%" xlink:href="#c"/><use x="204.03777" y="109.32" width="100%" height="100%" xlink:href="#c"/><use x="210.38576" y="109.32" width="100%" height="100%" xlink:href="#c"/><use x="216.73376" y="109.32" width="100%" height="100%" xlink:href="#t"/><use x="223.08176" y="109.32" width="100%" height="100%" xlink:href="#w"/><use x="229.42976" y="109.32" width="100%" height="100%" xlink:href="#i"/><use x="235.81088" y="109.32" width="100%" height="100%" xlink:href="#s"/><use x="242.15887" y="109.32" width="100%" height="100%" xlink:href="#r"/><use x="248.50688" y="109.32" width="100%" height="100%" xlink:href="#h"/><use x="53.040001" y="123.84" width="100%" height="100%" xlink:href="#q"/><use x="60.734879" y="123.84" width="100%" height="100%" xlink:href="#b"/><use x="66.608162" y="123.84" width="100%" height="100%" xlink:href="#p"/><use x="72.481438" y="123.84" width="100%" height="100%" xlink:href="#b"/><use x="78.354721" y="123.84" width="100%" height="100%" xlink:href="#g"/><use x="85.530724" y="123.84" width="100%" height="100%" xlink:href="#o"/><use x="92.055359" y="123.84" width="100%" height="100%" xlink:href="#f"/><use x="97.586403" y="123.84" width="100%" height="100%" xlink:href="#b"/><use x="103.45968" y="123.84" width="100%" height="100%" xlink:href="#n"/><use x="109.91808" y="123.84" width="100%" height="100%" xlink:href="#m"/><use x="115.18416" y="123.84" width="100%" height="100%" xlink:href="#e"/><use x="121.66464" y="123.84" width="100%" height="100%" xlink:href="#a"/><use x="128.14513" y="123.84" width="100%" height="100%" xlink:href="#a"/><use x="134.6256" y="123.84" width="100%" height="100%" xlink:href="#a"/><use x="141.10608" y="123.84" width="100%" height="100%" xlink:href="#l"/><use x="187.82001" y="123.84" width="100%" height="100%" xlink:href="#c"/><use x="194.168" y="123.84" width="100%" height="100%" xlink:href="#j"/><use x="197.68976" y="123.84" width="100%" height="100%" xlink:href="#c"/><use x="204.03777" y="123.84" width="100%" height="100%" xlink:href="#c"/><use x="210.38576" y="123.84" width="100%" height="100%" xlink:href="#h"/><use x="216.73376" y="123.84" width="100%" height="100%" xlink:href="#s"/><use x="223.08176" y="123.84" width="100%" height="100%" xlink:href="#r"/><use x="229.42976" y="123.84" width="100%" height="100%" xlink:href="#v"/><use x="235.81088" y="123.84" width="100%" height="100%" xlink:href="#w"/><use x="242.15887" y="123.84" width="100%" height="100%" xlink:href="#i"/><use x="248.50688" y="123.84" width="100%" height="100%" xlink:href="#r"/><use x="53.040001" y="138.36" width="100%" height="100%" xlink:href="#q"/><use x="60.734879" y="138.36" width="100%" height="100%" xlink:href="#b"/><use x="66.608162" y="138.36" width="100%" height="100%" xlink:href="#p"/><use x="72.481438" y="138.36" width="100%" height="100%" xlink:href="#b"/><use x="78.354721" y="138.36" width="100%" height="100%" xlink:href="#g"/><use x="85.530724" y="138.36" width="100%" height="100%" xlink:href="#o"/><use x="92.055359" y="138.36" width="100%" height="100%" xlink:href="#f"/><use x="97.586403" y="138.36" width="100%" height="100%" xlink:href="#b"/><use x="103.45968" y="138.36" width="100%" height="100%" xlink:href="#n"/><use x="109.91808" y="138.36" width="100%" height="100%" xlink:href="#m"/><use x="115.18416" y="138.36" width="100%" height="100%" xlink:href="#e"/><use x="121.66464" y="138.36" width="100%" height="100%" xlink:href="#a"/><use x="128.14513" y="138.36" width="100%" height="100%" xlink:href="#a"/><use x="134.6256" y="138.36" width="100%" height="100%" xlink:href="#a"/><use x="141.10608" y="138.36" width="100%" height="100%" xlink:href="#a"/><use x="147.58656" y="138.36" width="100%" height="100%" xlink:href="#l"/><use x="187.82001" y="138.36" width="100%" height="100%" xlink:href="#c"/><use x="194.168" y="138.36" width="100%" height="100%" xlink:href="#j"/><use x="197.68976" y="138.36" width="100%" height="100%" xlink:href="#s"/><use x="204.03777" y="138.36" width="100%" height="100%" xlink:href="#t"/><use x="210.38576" y="138.36" width="100%" height="100%" xlink:href="#d"/><use x="216.73376" y="138.36" width="100%" height="100%" xlink:href="#d"/><use x="223.08176" y="138.36" width="100%" height="100%" xlink:href="#d"/><use x="229.42976" y="138.36" width="100%" height="100%" xlink:href="#t"/><use x="235.81088" y="138.36" width="100%" height="100%" xlink:href="#h"/><use x="242.15887" y="138.36" width="100%" height="100%" xlink:href="#d"/><use x="248.50688" y="138.36" width="100%" height="100%" xlink:href="#c"/><use x="53.040001" y="152.89999" width="100%" height="100%" xlink:href="#q"/><use x="60.734879" y="152.89999" width="100%" height="100%" xlink:href="#b"/><use x="66.608162" y="152.89999" width="100%" height="100%" xlink:href="#p"/><use x="72.481438" y="152.89999" width="100%" height="100%" xlink:href="#b"/><use x="78.354721" y="152.89999" width="100%" height="100%" xlink:href="#g"/><use x="85.530724" y="152.89999" width="100%" height="100%" xlink:href="#o"/><use x="92.055359" y="152.89999" width="100%" height="100%" xlink:href="#f"/><use x="97.586403" y="152.89999" width="100%" height="100%" xlink:href="#b"/><use x="103.45968" y="152.89999" width="100%" height="100%" xlink:href="#n"/><use x="109.91808" y="152.89999" width="100%" height="100%" xlink:href="#m"/><use x="115.18416" y="152.89999" width="100%" height="100%" xlink:href="#e"/><use x="121.66464" y="152.89999" width="100%" height="100%" xlink:href="#a"/><use x="128.14513" y="152.89999" width="100%" height="100%" xlink:href="#a"/><use x="134.6256" y="152.89999" width="100%" height="100%" xlink:href="#a"/><use x="141.10608" y="152.89999" width="100%" height="100%" xlink:href="#a"/><use x="147.58656" y="152.89999" width="100%" height="100%" xlink:href="#a"/><use x="154.06705" y="152.89999" width="100%" height="100%" xlink:href="#l"/><use x="187.82001" y="152.89999" width="100%" height="100%" xlink:href="#i"/><use x="194.168" y="152.89999" width="100%" height="100%" xlink:href="#i"/><use x="200.51601" y="152.89999" width="100%" height="100%" xlink:href="#x"/><use x="206.88608" y="152.89999" width="100%" height="100%" xlink:href="#j"/><use x="210.36368" y="152.89999" width="100%" height="100%" xlink:href="#h"/><use x="216.71169" y="152.89999" width="100%" height="100%" xlink:href="#v"/><use x="223.05968" y="152.89999" width="100%" height="100%" xlink:href="#c"/><use x="229.42976" y="152.89999" width="100%" height="100%" xlink:href="#d"/><use x="235.77776" y="152.89999" width="100%" height="100%" xlink:href="#d"/><use x="242.12576" y="152.89999" width="100%" height="100%" xlink:href="#d"/><use x="248.49583" y="152.89999" width="100%" height="100%" xlink:href="#x"/></g><path transform="matrix(1,0,0,-1,0,792)" d="m50.4609 723.422v-88.582" fill="none" stroke="#000" stroke-linecap="square" stroke-linejoin="round" stroke-miterlimit="10" stroke-width=".14"/><path d="m50.3984 157.219h0.960937v-88.7031h-0.960937z" fill-rule="evenodd"/><path transform="matrix(1,0,0,-1,0,792)" d="m170.84 722.461v-87.6211" fill="none" stroke="#000" stroke-linecap="square" stroke-linejoin="round" stroke-miterlimit="10" stroke-width=".14"/><path d="m170.781 157.219h0.95703v-87.7422h-0.95703z" fill-rule="evenodd"/><path transform="matrix(1,0,0,-1,0,792)" d="m256.672 722.461v-87.6211" fill="none" stroke="#000" stroke-linecap="square" stroke-linejoin="round" stroke-miterlimit="10" stroke-width=".14"/><path d="m256.609 157.219h0.96094v-87.7422h-0.96094z" fill-rule="evenodd"/><path transform="matrix(1,0,0,-1,0,792)" d="m51.4219 723.422h206.09" fill="none" stroke="#000" stroke-linecap="square" stroke-linejoin="round" stroke-miterlimit="10" stroke-width=".14"/><path d="m51.3594 69.4805h206.211v-0.960938h-206.211z" fill-rule="evenodd"/><path transform="matrix(1,0,0,-1,0,792)" d="m51.4219 693.781h206.09" fill="none" stroke="#000" stroke-linecap="square" stroke-linejoin="round" stroke-miterlimit="10" stroke-width=".14"/><path d="m51.3594 99.1211h206.211v-0.960938h-206.211z" fill-rule="evenodd"/><path transform="matrix(1,0,0,-1,0,792)" d="m51.4219 679.262h206.09" fill="none" stroke="#000" stroke-linecap="square" stroke-linejoin="round" stroke-miterlimit="10" stroke-width=".14"/><path d="m51.3594 113.641h206.211v-0.96094h-206.211z" fill-rule="evenodd"/><path transform="matrix(1,0,0,-1,0,792)" d="m51.4219 664.738h206.09" fill="none" stroke="#000" stroke-linecap="square" stroke-linejoin="round" stroke-miterlimit="10" stroke-width=".14"/><path d="m51.3594 128.16h206.211v-0.96094h-206.211z" fill-rule="evenodd"/><path transform="matrix(1,0,0,-1,0,792)" d="m51.4219 650.199h206.09" fill="none" stroke="#000" stroke-linecap="square" stroke-linejoin="round" stroke-miterlimit="10" stroke-width=".14"/><path d="m51.3594 142.699h206.211v-0.96094h-206.211z" fill-rule="evenodd"/><path transform="matrix(1,0,0,-1,0,792)" d="m51.4219 635.68h206.09" fill="none" stroke="#000" stroke-linecap="square" stroke-linejoin="round" stroke-miterlimit="10" stroke-width=".14"/><path d="m51.3594 157.219h206.211v-0.95703h-206.211z" fill-rule="evenodd"/></g></g></svg>
