<?xml version="1.0" encoding="UTF-8"?>
<!-- Created with Inkscape (http://www.inkscape.org/) -->
<svg width="263.5mm" height="150mm" version="1.1" viewBox="0 0 263.5 150" xmlns="http://www.w3.org/2000/svg" xmlns:cc="http://creativecommons.org/ns#" xmlns:dc="http://purl.org/dc/elements/1.1/" xmlns:rdf="http://www.w3.org/1999/02/22-rdf-syntax-ns#">
 <metadata>
  <rdf:RDF>
   <cc:Work rdf:about="">
    <dc:format>image/svg+xml</dc:format>
    <dc:type rdf:resource="http://purl.org/dc/dcmitype/StillImage"/>
    <dc:title/>
   </cc:Work>
  </rdf:RDF>
 </metadata>
 <g transform="translate(-17.213 -84.826)">
  <g fill="none" stroke="#000" stroke-width=".6">
   <path d="m42.591 108.24h238.12"/>
   <path d="m42.591 133.49h238.12"/>
   <path d="m42.591 158.74h238.12"/>
   <path d="m42.591 183.99h238.12"/>
   <path d="m42.591 209.24h238.13"/>
  </g>
  <g fill="#000000" font-family="Snoopy" font-size="10.583px" letter-spacing="0px" stroke-width=".26458" word-spacing="0px">
   <text x="91.887589" y="99.943954" style="line-height:1.25" xml:space="preserve"><tspan x="91.887589" y="99.943954" stroke-width=".26458">1</tspan></text>
   <text x="126.05591" y="100.28502" style="line-height:1.25" xml:space="preserve"><tspan x="126.05591" y="100.28502" stroke-width=".26458">2</tspan></text>
   <text x="161.47026" y="100.11766" style="line-height:1.25" xml:space="preserve"><tspan x="161.47026" y="100.11766" stroke-width=".26458">3</tspan></text>
   <text x="197.03064" y="100.41937" style="line-height:1.25" xml:space="preserve"><tspan x="197.03064" y="100.41937" stroke-width=".26458">4</tspan></text>
   <text x="232.63974" y="99.955582" style="line-height:1.25" xml:space="preserve"><tspan x="232.63974" y="99.955582" stroke-width=".26458">5</tspan></text>
   <text x="20.005081" y="99.995628" style="line-height:1.25" xml:space="preserve"><tspan x="20.005081" y="99.995628" stroke-width=".26458">n</tspan></text>
   <text x="16.886976" y="150.83385" style="line-height:1.25" xml:space="preserve"><tspan x="16.886976" y="150.83385" stroke-width=".26458">g(n)</tspan></text>
  </g>
  <g transform="translate(-9.156 22.586)">
   <path transform="matrix(.22963 -.11293 .11293 .22963 -37.226 148.27)" d="m244.74 148.17-15.544-7.9913-15.724-7.6303 14.693-9.4658 14.47-9.8025 0.85127 17.457z" fill="none" stroke="#000" stroke-width="1.73"/>
   <text x="37.516838" y="157.55887" fill="#000000" font-family="Snoopy" font-size="6.3765px" letter-spacing="0px" stroke-width=".31882" word-spacing="0px" style="line-height:1.25" xml:space="preserve"><tspan x="37.516838" y="157.55887" stroke-width=".31882">1</tspan></text>
  </g>
  <path transform="matrix(.22963 -.11293 .11293 .22963 -46.382 194.22)" d="m244.74 148.17-15.544-7.9913-15.724-7.6303 14.693-9.4658 14.47-9.8025 0.85127 17.457z" fill="none" stroke="#000" stroke-width="1.73"/>
  <text x="27.392851" y="203.69962" fill="#000000" font-family="Snoopy" font-size="6.3765px" letter-spacing="0px" stroke-width=".31882" word-spacing="0px" style="line-height:1.25" xml:space="preserve"><tspan x="27.392851" y="203.69962" stroke-width=".31882">2</tspan></text>
  <path transform="matrix(.22963 -.11293 .11293 .22963 -46.382 221.52)" d="m244.74 148.17-15.544-7.9913-15.724-7.6303 14.693-9.4658 14.47-9.8025 0.85127 17.457z" fill="none" stroke="#000" stroke-width="1.73"/>
  <g fill="#000000" font-family="Snoopy" letter-spacing="0px" word-spacing="0px">
   <text x="28.360838" y="230.80327" font-size="6.3765px" stroke-width=".31882" style="line-height:1.25" xml:space="preserve"><tspan x="28.360838" y="230.80327" stroke-width=".31882">3</tspan></text>
   <g font-size="10.583px" stroke-width=".26458">
    <text x="55.06657" y="100.17954" style="line-height:1.25" xml:space="preserve"><tspan x="55.06657" y="100.17954" stroke-width=".26458">0</tspan></text>
    <text x="56.438652" y="125.85008" style="line-height:1.25" xml:space="preserve"><tspan x="56.438652" y="125.85008" stroke-width=".26458">0</tspan></text>
    <text x="92.479683" y="125.61449" style="line-height:1.25" xml:space="preserve"><tspan x="92.479683" y="125.61449" stroke-width=".26458">1</tspan></text>
   </g>
  </g>
  <g transform="translate(0 -3.872)" fill="#000000" font-family="Snoopy" letter-spacing="0px" stroke-width=".26458" word-spacing="0px">
   <text x="20.650406" y="129.53812" font-size="10.583px" style="line-height:1.25" xml:space="preserve"><tspan x="20.650406" y="129.53812" stroke-width=".26458">n</tspan></text>
   <text x="25.167683" y="126.63416" font-size="5.2917px" style="line-height:1.25" xml:space="preserve"><tspan x="25.167683" y="126.63416" stroke-width=".26458">2</tspan></text>
  </g>
  <g fill="#000000" font-family="Snoopy" font-size="10.583px" letter-spacing="0px" stroke-width=".26458" word-spacing="0px">
   <text x="125.82581" y="126.08992" style="line-height:1.25" xml:space="preserve"><tspan x="125.82581" y="126.08992" font-size="10.583px" stroke-width=".26458">4</tspan></text>
   <text x="160.66985" y="125.66617" style="line-height:1.25" xml:space="preserve"><tspan x="160.66985" y="125.66617" font-size="10.583px" stroke-width=".26458">9</tspan></text>
   <text x="193.89723" y="125.61449" style="line-height:1.25" xml:space="preserve"><tspan x="193.89723" y="125.61449" font-size="10.583px" stroke-width=".26458">16</tspan></text>
   <text x="227.41008" y="125.62611" style="line-height:1.25" xml:space="preserve"><tspan x="227.41008" y="125.62611" font-size="10.583px" stroke-width=".26458">25</tspan></text>
   <text x="56.438652" y="151.6172" style="line-height:1.25" xml:space="preserve"><tspan x="56.438652" y="151.6172" stroke-width=".26458">0</tspan></text>
   <text x="92.479683" y="151.38162" style="line-height:1.25" xml:space="preserve"><tspan x="92.479683" y="151.38162" stroke-width=".26458">1</tspan></text>
   <text x="125.82581" y="151.85704" style="line-height:1.25" xml:space="preserve"><tspan x="125.82581" y="151.85704" font-size="10.583px" stroke-width=".26458">5</tspan></text>
   <text x="160.66985" y="151.43329" style="line-height:1.25" xml:space="preserve"><tspan x="160.66985" y="151.43329" font-size="10.583px" stroke-width=".26458">14</tspan></text>
   <text x="193.89725" y="151.38162" style="line-height:1.25" xml:space="preserve"><tspan x="193.89725" y="151.38162" font-size="10.583px" stroke-width=".26458">30</tspan></text>
   <text x="227.41006" y="151.39325" style="line-height:1.25" xml:space="preserve"><tspan x="227.41006" y="151.39325" font-size="10.583px" stroke-width=".26458">55</tspan></text>
   <text x="92.479683" y="175.58131" style="line-height:1.25" xml:space="preserve"><tspan x="92.479683" y="175.58131" stroke-width=".26458">1</tspan></text>
   <text x="125.82581" y="176.05673" style="line-height:1.25" xml:space="preserve"><tspan x="125.82581" y="176.05673" font-size="10.583px" stroke-width=".26458">4</tspan></text>
   <text x="160.66985" y="175.63298" style="line-height:1.25" xml:space="preserve"><tspan x="160.66985" y="175.63298" font-size="10.583px" stroke-width=".26458">9</tspan></text>
   <text x="193.89725" y="175.58131" style="line-height:1.25" xml:space="preserve"><tspan x="193.89725" y="175.58131" font-size="10.583px" stroke-width=".26458">16</tspan></text>
   <text x="227.41006" y="175.59294" style="line-height:1.25" xml:space="preserve"><tspan x="227.41006" y="175.59294" font-size="10.583px" stroke-width=".26458">25</tspan></text>
   <text x="125.82581" y="200.89029" style="line-height:1.25" xml:space="preserve"><tspan x="125.82581" y="200.89029" font-size="10.583px" stroke-width=".26458">3</tspan></text>
   <text x="160.66985" y="200.46655" style="line-height:1.25" xml:space="preserve"><tspan x="160.66985" y="200.46655" font-size="10.583px" stroke-width=".26458">5</tspan></text>
   <text x="193.89725" y="200.41487" style="line-height:1.25" xml:space="preserve"><tspan x="193.89725" y="200.41487" font-size="10.583px" stroke-width=".26458">7</tspan></text>
   <text x="227.41006" y="200.4265" style="line-height:1.25" xml:space="preserve"><tspan x="227.41006" y="200.4265" font-size="10.583px" stroke-width=".26458">9</tspan></text>
   <text x="160.66985" y="227.72108" style="line-height:1.25" xml:space="preserve"><tspan x="160.66985" y="227.72108" font-size="10.583px" stroke-width=".26458">2</tspan></text>
   <text x="193.89725" y="227.87999" style="line-height:1.25" xml:space="preserve"><tspan x="193.89725" y="227.87999" font-size="10.583px" stroke-width=".26458">2</tspan></text>
   <text x="227.41006" y="227.76114" style="line-height:1.25" xml:space="preserve"><tspan x="227.41006" y="227.76114" font-size="10.583px" stroke-width=".26458">2</tspan></text>
  </g>
 </g>
</svg>
