<?xml version="1.0" encoding="UTF-8"?>
<!-- Created with Inkscape (http://www.inkscape.org/) -->
<svg width="156.81mm" height="83.875mm" version="1.1" viewBox="0 0 156.81 83.875" xmlns="http://www.w3.org/2000/svg" xmlns:cc="http://creativecommons.org/ns#" xmlns:dc="http://purl.org/dc/elements/1.1/" xmlns:rdf="http://www.w3.org/1999/02/22-rdf-syntax-ns#">
 <metadata>
  <rdf:RDF>
   <cc:Work rdf:about="">
    <dc:format>image/svg+xml</dc:format>
    <dc:type rdf:resource="http://purl.org/dc/dcmitype/StillImage"/>
    <dc:title/>
   </cc:Work>
  </rdf:RDF>
 </metadata>
 <g transform="translate(-12.761 -104.83)">
  <g fill="none" stroke="#000" stroke-width=".48134">
   <path d="m35.864 115.4h133.71"/>
   <path d="m35.864 139.75h133.71"/>
   <path d="m35.864 164.11h133.71"/>
  </g>
  <g fill="#000000" font-family="Snoopy" font-size="10.583px" letter-spacing="0px" stroke-width=".26458" word-spacing="0px">
   <text x="38.785511" y="111.3173" style="line-height:1.25" xml:space="preserve"><tspan x="38.785511" y="111.3173" stroke-width=".26458">1</tspan></text>
   <text x="67.756912" y="111.65836" style="line-height:1.25" xml:space="preserve"><tspan x="67.756912" y="111.65836" stroke-width=".26458">2</tspan></text>
   <text x="97.974358" y="111.49101" style="line-height:1.25" xml:space="preserve"><tspan x="97.974358" y="111.49101" stroke-width=".26458">3</tspan></text>
   <text x="128.33781" y="111.79272" style="line-height:1.25" xml:space="preserve"><tspan x="128.33781" y="111.79272" stroke-width=".26458">4</tspan></text>
   <text x="158.75" y="111.32893" style="line-height:1.25" xml:space="preserve"><tspan x="158.75" y="111.32893" stroke-width=".26458">5</tspan></text>
   <text x="12.327178" y="111.36898" style="line-height:1.25" xml:space="preserve"><tspan x="12.327178" y="111.36898" stroke-width=".26458">n</tspan></text>
   <text x="12.435699" y="130.72617" style="line-height:1.25" xml:space="preserve"><tspan x="12.435699" y="130.72617" stroke-width=".26458">f(n)</tspan></text>
  </g>
  <path transform="matrix(.19056 -.093714 .093714 .19056 -40.014 149.95)" d="m244.74 148.17-15.544-7.9913-15.724-7.6303 14.693-9.4658 14.47-9.8025 0.85127 17.457z" fill="none" stroke="#000" stroke-width="1.73"/>
  <path transform="matrix(.19056 -.093714 .093714 .19056 -40.014 174.3)" d="m244.74 148.17-15.544-7.9913-15.724-7.6303 14.693-9.4658 14.47-9.8025 0.85127 17.457z" fill="none" stroke="#000" stroke-width="1.73"/>
  <g fill="#000000" font-family="Snoopy" letter-spacing="0px" stroke-width=".26458" word-spacing="0px">
   <g font-size="10.583px">
    <text x="38.785511" y="131.27394" style="line-height:1.25" xml:space="preserve"><tspan x="38.785511" y="131.27394" stroke-width=".26458">1</tspan></text>
    <text x="67.832703" y="131.44765" style="line-height:1.25" xml:space="preserve"><tspan x="67.832703" y="131.44765" stroke-width=".26458">3</tspan></text>
    <text x="97.862778" y="131.57301" style="line-height:1.25" xml:space="preserve"><tspan x="97.862778" y="131.57301" stroke-width=".26458">6</tspan></text>
    <text x="128.59103" y="131.27394" style="line-height:1.25" xml:space="preserve"><tspan x="128.59103" y="131.27394" stroke-width=".26458">10</tspan></text>
    <text x="158.9257" y="131.27394" style="line-height:1.25" xml:space="preserve"><tspan x="158.9257" y="131.27394" stroke-width=".26458">15</tspan></text>
   </g>
   <text x="22.012903" y="157.65387" font-size="5.2917px" style="line-height:1.25" xml:space="preserve"><tspan x="22.012903" y="157.65387" stroke-width=".26458">1</tspan></text>
   <text x="21.853443" y="182.14679" font-size="5.2917px" style="line-height:1.25" xml:space="preserve"><tspan x="21.853443" y="182.14679" stroke-width=".26458">2</tspan></text>
   <g font-size="10.583px">
    <text x="67.756912" y="155.35536" style="line-height:1.25" xml:space="preserve"><tspan x="67.756912" y="155.35536" stroke-width=".26458">2</tspan></text>
    <text x="97.974358" y="155.188" style="line-height:1.25" xml:space="preserve"><tspan x="97.974358" y="155.188" stroke-width=".26458">3</tspan></text>
    <text x="128.33781" y="155.48972" style="line-height:1.25" xml:space="preserve"><tspan x="128.33781" y="155.48972" stroke-width=".26458">4</tspan></text>
    <text x="158.75" y="155.02592" style="line-height:1.25" xml:space="preserve"><tspan x="158.75" y="155.02592" stroke-width=".26458">5</tspan></text>
    <text x="98.248245" y="179.36798" style="line-height:1.25" xml:space="preserve"><tspan x="98.248245" y="179.36798" stroke-width=".26458">1</tspan></text>
    <text x="128.59103" y="179.36798" style="line-height:1.25" xml:space="preserve"><tspan x="128.59103" y="179.36798" stroke-width=".26458">1</tspan></text>
    <text x="158.9257" y="179.36798" style="line-height:1.25" xml:space="preserve"><tspan x="158.9257" y="179.36798" stroke-width=".26458">1</tspan></text>
   </g>
  </g>
 </g>
</svg>
