<svg version="1.1" viewBox="0 0 45.547 14.757" xmlns="http://www.w3.org/2000/svg" xmlns:xlink="http://www.w3.org/1999/xlink"><defs><symbol id="a" overflow="visible"><path d="m.875-.59375c-.03125.15625-.09375.39062-.09375.4375 0 .17188.14062.26562.29688.26562.125 0 .29688-.078125.375-.28125 0-.015625.125-.48438.1875-.73438l.21875-.89062c.046875-.23438.10938-.45312.17188-.67188.03125-.17188.10938-.46875.125-.5.14062-.3125.67188-1.2188 1.625-1.2188.45312 0 .53125.375.53125.70312 0 .60938-.48438 1.8906-.64062 2.3125-.09375.23438-.10938.35938-.10938.46875 0 .46875.35938.8125.82812.8125.9375 0 1.2969-1.4531 1.2969-1.5312 0-.10938-.078125-.10938-.10938-.10938-.10938 0-.10938.03125-.15625.1875-.20312.67188-.53125 1.2344-1.0156 1.2344-.17188 0-.23438-.09375-.23438-.32812 0-.25.078125-.48438.17188-.70312.1875-.53125.60938-1.625.60938-2.2031 0-.65625-.42188-1.0625-1.1406-1.0625-.90625 0-1.3906.64062-1.5625.875-.046875-.5625-.45312-.875-.92188-.875-.45312 0-.64062.39062-.73438.5625-.17188.34375-.29688.9375-.29688.96875 0 .10938.09375.10938.10938.10938.10938 0 .10938-.015625.17188-.23438.17188-.70312.375-1.1875.73438-1.1875.1875 0 .29688.125.29688.45312 0 .21875-.03125.32812-.15625.84375z"/></symbol><symbol id="i" overflow="visible"><path d="m2.0312-.015625c0-.65625-.25-1.0469-.64062-1.0469-.32812 0-.53125.25-.53125.53125 0 .26562.20312.53125.53125.53125.10938 0 .25-.046875.34375-.125.03125-.03125.046875-.03125.046875-.03125.015625 0 .015625 0 .015625.14062 0 .75-.34375 1.3438-.67188 1.6719-.10938.10938-.10938.125-.10938.15625 0 .078125.046875.10938.09375.10938.10938 0 .92188-.76562.92188-1.9375z"/></symbol><symbol id="r" overflow="visible"><path d="m6.7344-2.2656c.10938-.0625.1875-.10938.1875-.23438 0-.10938-.078125-.15625-.1875-.21875l-5.5312-2.5938c-.125-.078125-.14062-.078125-.17188-.078125-.10938 0-.20312.09375-.20312.20312 0 .09375.046875.15625.1875.21875l5.2344 2.4688-5.2344 2.4844c-.14062.0625-.1875.125-.1875.21875 0 .10938.09375.20312.20312.20312.03125 0 .046875 0 .17188-.078125z"/></symbol><symbol id="h" overflow="visible"><path d="m1.5312-2.0781.375-4.5469c0-.32812-.26562-.51562-.51562-.51562-.26562 0-.53125.1875-.53125.51562l.39062 4.5312c0 .15625.015625.23438.14062.23438.09375 0 .125-.046875.14062-.21875zm.375 1.5469c0-.28125-.23438-.53125-.51562-.53125-.29688 0-.53125.25-.53125.53125 0 .29688.23438.53125.53125.53125.28125 0 .51562-.23438.51562-.53125z"/></symbol><symbol id="f" overflow="visible"><path d="m6.8438-3.2656c.15625 0 .34375 0 .34375-.1875 0-.20312-.1875-.20312-.32812-.20312h-5.9688c-.14062 0-.32812 0-.32812.20312 0 .1875.1875.1875.32812.1875zm.015625 1.9375c.14062 0 .32812 0 .32812-.20312 0-.1875-.1875-.1875-.34375-.1875h-5.9531c-.14062 0-.32812 0-.32812.1875 0 .20312.1875.20312.32812.20312z"/></symbol><symbol id="b" overflow="visible"><path d="m2.9375-6.375c0-.25 0-.26562-.23438-.26562-.625.64062-1.5.64062-1.8125.64062v.3125c.20312 0 .78125 0 1.2969-.26562v5.1719c0 .35938-.03125.46875-.92188.46875h-.3125v.3125c.34375-.03125 1.2031-.03125 1.6094-.03125.39062 0 1.2656 0 1.6094.03125v-.3125h-.3125c-.90625 0-.92188-.10938-.92188-.46875z"/></symbol><symbol id="q" overflow="visible"><path d="m4.5781-3.1875c0-.79688-.046875-1.5938-.39062-2.3281-.45312-.96875-1.2812-1.125-1.6875-1.125-.60938 0-1.3281.26562-1.75 1.1875-.3125.6875-.35938 1.4688-.35938 2.2656 0 .75.03125 1.6406.45312 2.4062.42188.79688 1.1562 1 1.6406 1 .53125 0 1.2969-.20312 1.7344-1.1562.3125-.6875.35938-1.4688.35938-2.25zm-2.0938 3.1875c-.39062 0-.98438-.25-1.1562-1.2031-.10938-.59375-.10938-1.5156-.10938-2.1094 0-.64062 0-1.2969.078125-1.8281.1875-1.1875.9375-1.2812 1.1875-1.2812.32812 0 .98438.1875 1.1719 1.1719.10938.5625.10938 1.3125.10938 1.9375 0 .75 0 1.4219-.10938 2.0625-.15625.95312-.71875 1.25-1.1719 1.25z"/></symbol><symbol id="e" overflow="visible"><path d="m1.7656-4.4062-1.3906.10938v.3125c.64062 0 .73438.0625.73438.54688v2.6875c0 .4375-.10938.4375-.78125.4375v.3125c.3125-.015625.85938-.03125 1.0938-.03125.35938 0 .70312.015625 1.0469.03125v-.3125c-.67188 0-.70312-.046875-.70312-.4375zm.03125-1.7344c0-.3125-.23438-.53125-.51562-.53125-.3125 0-.53125.26562-.53125.53125s.21875.53125.53125.53125c.28125 0 .51562-.21875.51562-.53125z"/></symbol><symbol id="d" overflow="visible"><path d="m2.0781-1.9375c.21875.046875 1.0312.20312 1.0312.92188 0 .5-.34375.90625-1.125.90625-.84375 0-1.2031-.5625-1.3906-1.4219-.03125-.125-.03125-.15625-.14062-.15625-.125 0-.125.0625-.125.23438v1.3281c0 .17188 0 .23438.10938.23438.046875 0 .0625-.015625.25-.20312.015625-.015625.015625-.03125.20312-.21875.4375.40625.89062.42188 1.0938.42188 1.1406 0 1.6094-.67188 1.6094-1.3906 0-.51562-.29688-.82812-.42188-.9375-.32812-.32812-.71875-.40625-1.1406-.48438-.5625-.10938-1.2188-.23438-1.2188-.8125 0-.35938.25-.76562 1.1094-.76562 1.0938 0 1.1562.90625 1.1719 1.2031 0 .09375.09375.09375.10938.09375.14062 0 .14062-.046875.14062-.23438v-1.0156c0-.15625 0-.23438-.10938-.23438-.046875 0-.078125 0-.20312.125-.03125.03125-.125.125-.17188.15625-.375-.28125-.78125-.28125-.9375-.28125-1.2188 0-1.5938.67188-1.5938 1.2344 0 .34375.15625.625.42188.84375.32812.25.60938.3125 1.3281.45312z"/></symbol><symbol id="c" overflow="visible"><path d="m1.1094-2.5156c.0625-1.4844.90625-1.7344 1.25-1.7344 1.0156 0 1.125 1.3438 1.125 1.7344zm0 .21875h2.7812c.21875 0 .25 0 .25-.21875 0-.98438-.54688-1.9531-1.7812-1.9531-1.1562 0-2.0781 1.0312-2.0781 2.2812 0 1.3281 1.0469 2.2969 2.1875 2.2969 1.2188 0 1.6719-1.1094 1.6719-1.2969 0-.09375-.078125-.125-.14062-.125-.078125 0-.10938.0625-.125.14062-.34375 1.0312-1.25 1.0312-1.3438 1.0312-.5 0-.89062-.29688-1.125-.67188-.29688-.46875-.29688-1.125-.29688-1.4844z"/></symbol><symbol id="p" overflow="visible"><path d="m3.2969 2.3906c0-.03125 0-.046875-.17188-.21875-1.2344-1.25-1.5625-3.1406-1.5625-4.6719 0-1.7344.375-3.4688 1.6094-4.7031.125-.125.125-.14062.125-.17188 0-.078125-.03125-.10938-.09375-.10938-.10938 0-1 .6875-1.5938 1.9531-.5 1.0938-.625 2.2031-.625 3.0312 0 .78125.10938 1.9844.65625 3.125.60938 1.2188 1.4531 1.875 1.5625 1.875.0625 0 .09375-.03125.09375-.10938z"/></symbol><symbol id="o" overflow="visible"><path d="m2.875-2.5c0-.76562-.10938-1.9688-.65625-3.1094-.59375-1.2188-1.4531-1.875-1.5469-1.875-.0625 0-.10938.046875-.10938.10938 0 .03125 0 .046875.1875.23438.98438.98438 1.5469 2.5625 1.5469 4.6406 0 1.7188-.35938 3.4688-1.5938 4.7188-.14062.125-.14062.14062-.14062.17188 0 .0625.046875.10938.10938.10938.09375 0 1-.6875 1.5781-1.9531.51562-1.0938.625-2.2031.625-3.0469z"/></symbol><symbol id="n" overflow="visible"><path d="m5.0312 4.5156c0-.8125.21875-2.7188 1.9844-3.9844.125-.09375.14062-.10938.14062-.28125 0-.23438-.015625-.23438-.26562-.23438h-.15625c-2.1406 1.1562-2.9062 3.0312-2.9062 4.5v4.2812c0 .26562.015625.28125.28125.28125h.64062c.26562 0 .28125-.015625.28125-.28125z"/></symbol><symbol id="g" overflow="visible"><path d="m5.0312.17188c0-.26562-.015625-.26562-.28125-.26562h-.64062c-.26562 0-.28125 0-.28125.26562v2.6562c0 .25.015625.26562.28125.26562h.64062c.26562 0 .28125-.015625.28125-.26562z"/></symbol><symbol id="m" overflow="visible"><path d="m3.8281 17.781c0 .25.015625.26562.28125.26562h.64062c.26562 0 .28125-.01563.28125-.26562v-4.2188c0-1.2031-.51562-3.2344-2.75-4.5938 2.25-1.3594 2.75-3.4219 2.75-4.5938v-4.2031c0-.26562-.015625-.26562-.28125-.26562h-.64062c-.26562 0-.28125 0-.28125.26562v4.2188c0 .82812-.17188 2.9062-2.0156 4.2969-.10938.09375-.125.10938-.125.28125 0 .1875.015625.1875.125.28125.26562.20312.95312.73438 1.4219 1.7344.39062.79688.59375 1.6875.59375 2.5781z"/></symbol><symbol id="l" overflow="visible"><path d="m6.8906 8.9688c.25 0 .26562-.015625.26562-.25 0-.17188-.015625-.1875-.046875-.21875-.3125-.21875-1.0312-.73438-1.5-1.6562-.39062-.75-.57812-1.5156-.57812-2.3906v-4.2812c0-.26562-.015625-.26562-.28125-.26562h-.64062c-.26562 0-.28125 0-.28125.26562v4.2812c0 1.4844.76562 3.3594 2.9062 4.5156z"/></symbol><symbol id="k" overflow="visible"><path d="m2.7344-4.25c.015625-.14062.015625-.39062-.23438-.39062-.17188 0-.29688.14062-.26562.26562v.125l.14062 1.5469-1.2812-.92188c-.09375-.046875-.10938-.078125-.17188-.078125-.14062 0-.28125.14062-.28125.28125 0 .15625.10938.20312.20312.25l1.4219.67188-1.375.67188c-.15625.078125-.25.125-.25.26562 0 .15625.14062.28125.28125.28125.0625 0 .078125 0 .32812-.1875l1.125-.79688-.15625 1.6719c0 .20312.1875.25.26562.25.125 0 .26562-.0625.26562-.25l-.14062-1.6719 1.2656.92188c.09375.046875.10938.0625.1875.0625.14062 0 .26562-.14062.26562-.28125s-.09375-.1875-.21875-.25c-.59375-.29688-.60938-.29688-1.3906-.67188l1.375-.67188c.15625-.078125.23438-.10938.23438-.26562 0-.14062-.125-.28125-.26562-.28125-.078125 0-.09375 0-.34375.1875l-1.1094.8125z"/></symbol><symbol id="j" overflow="visible"><path d="m6.5625-2.2969c.17188 0 .35938 0 .35938-.20312 0-.1875-.1875-.1875-.35938-.1875h-5.3906c-.17188 0-.34375 0-.34375.1875 0 .20312.17188.20312.34375.20312z"/></symbol></defs><g transform="translate(-128.29 -146.4)"><g transform="matrix(.35278 0 0 .35278 43.456 98.293)"><use x="240.181" y="159.771" width="100%" height="100%" xlink:href="#a"/><use x="246.161" y="159.771" width="100%" height="100%" xlink:href="#h"/><use x="251.69821" y="159.771" width="100%" height="100%" xlink:href="#f"/><use x="262.21201" y="136.35899" width="100%" height="100%" xlink:href="#n"/><use x="262.21201" y="145.325" width="100%" height="100%" xlink:href="#g"/><use x="262.21201" y="148.314" width="100%" height="100%" xlink:href="#m"/><use x="262.21201" y="166.24699" width="100%" height="100%" xlink:href="#g"/><use x="262.21201" y="169.23599" width="100%" height="100%" xlink:href="#l"/><use x="271.06799" y="145.80299" width="100%" height="100%" xlink:href="#b"/><use x="276.04901" y="145.80299" width="100%" height="100%" xlink:href="#i"/><use x="330.07419" y="145.80299" width="100%" height="100%" xlink:href="#a"/><use x="339.37399" y="145.80299" width="100%" height="100%" xlink:href="#f"/><use x="350.44046" y="145.80299" width="100%" height="100%" xlink:href="#q"/><use x="358.74927" y="145.80299" width="100%" height="100%" xlink:href="#e"/><use x="361.51688" y="145.80299" width="100%" height="100%" xlink:href="#d"/><use x="365.44614" y="145.80299" width="100%" height="100%" xlink:href="#c"/><use x="271.06799" y="160.14999" width="100%" height="100%" xlink:href="#b"/><use x="276.04901" y="160.14999" width="100%" height="100%" xlink:href="#i"/><use x="330.07419" y="160.14999" width="100%" height="100%" xlink:href="#a"/><use x="339.37399" y="160.14999" width="100%" height="100%" xlink:href="#f"/><use x="350.44046" y="160.14999" width="100%" height="100%" xlink:href="#b"/><use x="358.74927" y="160.14999" width="100%" height="100%" xlink:href="#e"/><use x="361.51688" y="160.14999" width="100%" height="100%" xlink:href="#d"/><use x="365.44614" y="160.14999" width="100%" height="100%" xlink:href="#c"/><use x="271.06799" y="174.496" width="100%" height="100%" xlink:href="#a"/><use x="279.26199" y="174.496" width="100%" height="100%" xlink:href="#k"/><use x="286.457" y="174.496" width="100%" height="100%" xlink:href="#p"/><use x="290.33099" y="174.496" width="100%" height="100%" xlink:href="#a"/><use x="298.52499" y="174.496" width="100%" height="100%" xlink:href="#j"/><use x="308.48801" y="174.496" width="100%" height="100%" xlink:href="#b"/><use x="313.4693" y="174.496" width="100%" height="100%" xlink:href="#o"/><use x="317.34375" y="174.496" width="100%" height="100%" xlink:href="#h"/><use x="330.073" y="174.496" width="100%" height="100%" xlink:href="#a"/><use x="339.37009" y="174.496" width="100%" height="100%" xlink:href="#r"/><use x="350.444" y="174.496" width="100%" height="100%" xlink:href="#e"/><use x="353.21161" y="174.496" width="100%" height="100%" xlink:href="#d"/><use x="357.14087" y="174.496" width="100%" height="100%" xlink:href="#c"/></g></g></svg>
