<svg width="217.083mm" height="56.3422mm" version="1.1" viewBox="0 0 217.083 56.3422" xmlns="http://www.w3.org/2000/svg"><defs></defs><g transform="translate(-175.252 -114.225)"><path d="m238.221 170.474c-1.38704-0.78039-2.4606-1.89444-3.0969-3.21358-0.32771-0.67942-0.5034-1.27546-0.61804-2.09639-0.0259-0.18497-0.0287-0.88789-0.0326-8.12335-4e-3 -4.35654-9e-3 -8.18442-0.013-8.50644-9e-3 -0.62628-0.0343-0.91706-0.12237-1.39477-0.22525-1.22426-0.74454-2.40374-1.4427-3.27683-0.23538-0.29432-0.67097-0.72633-0.98249-0.97444-0.14041-0.11173-0.27048-0.22773-0.28915-0.2576-0.0296-0.0474-0.033-0.0798-0.0287-0.25542 7e-3 -0.24331 4e-3 -0.24053 0.25602-0.44174 0.42757-0.34195 0.77824-0.68889 1.08487-1.0734 0.88128-1.10517 1.39932-2.49925 1.51362-4.07352 0.0109-0.16367 0.0174-2.97106 0.0174-8.44616 0-5.31107 7e-3 -8.28598 0.0174-8.44209 0.10368-1.44512 0.69086-2.81742 1.68758-3.94328 0.20454-0.231 0.55383-0.57232 0.77435-0.75658 0.37049-0.30961 0.87074-0.65558 1.27203-0.87972l0.16867-0.0943 0.19649 6e-5c0.34995 2e-4 0.36667 0.0152 0.35734 0.33321-7e-3 0.19324-7e-3 0.19976-0.0574 0.25262-0.0285 0.03-0.13694 0.11846-0.24108 0.19693-1.32661 0.99955-2.18765 2.45605-2.46244 4.16526-0.0896 0.55698-0.0832-0.0613-0.0945 9.09428-0.0109 9.34438 0 8.51891-0.11325 9.11771-0.37249 1.992-1.54951 3.68725-3.38305 4.87247l-0.19845 0.12846 0.30187 0.20084c0.53838 0.35825 0.89044 0.64906 1.33524 1.10303 1.11621 1.13905 1.7784 2.48362 2.00928 4.07976l0.0387 0.26574 0.0109 8.4978c0.0109 9.17882 4e-3 8.5643 0.0939 9.11752 0.16281 1.01231 0.60194 2.06985 1.17824 2.83807 0.3588 0.47832 0.77478 0.88863 1.28462 1.2672 0.10412 0.0774 0.21258 0.15867 0.24107 0.18063l0.0517 0.04 4e-3 0.23062c4e-3 0.26309-7e-3 0.30541-0.1 0.3373-0.0328 0.0109-0.14889 0.0217-0.25786 0.0217l-0.19801 9.4e-4 -0.16367-0.0919zm50.0742-1.58796c-0.2262-0.12912-0.74169-0.62691-1.05949-1.02294-0.66538-0.82919-1.11732-1.69791-1.41015-2.71063-0.40518-1.40134-0.51042-3.00734-0.2945-4.49384 0.20584-1.4173 0.67719-2.66375 1.39082-3.67823 0.42835-0.60893 0.98949-1.19732 1.36869-1.43518 0.0778-0.0487 0.17759-0.0604 0.2078-0.0241 0.0274 0.033 0.0424 0.10955 0.0293 0.15042-7e-3 0.0196-0.10868 0.13889-0.22753 0.26385-1.18769 1.24982-1.8511 2.85719-2.04459 4.95393-0.16454 1.78328 0.0174 3.60393 0.50203 5.01946 0.354 1.03416 0.83719 1.8458 1.53522 2.57876 0.12411 0.13019 0.23029 0.25563 0.23605 0.27856 0.0109 0.0441-2e-3 0.10738-0.0313 0.14324-0.0278 0.0348-0.11912 0.0243-0.20236-0.023zm32.9766-4.6e-4c-0.0689-0.0878-0.0522-0.12455 0.14933-0.32837 0.55677-0.56272 0.9979-1.21293 1.33522-1.96812 0.44837-1.0037 0.69922-2.11676 0.78704-3.49204 0.0233-0.3631 0.0233-1.40116 0-1.76254-0.0954-1.48644-0.39471-2.71263-0.9197-3.76843-0.31799-0.63947-0.6323-1.08328-1.16202-1.64081-0.24475-0.25759-0.2609-0.28991-0.18997-0.38016 0.0676-0.0861 0.1528-0.06 0.37757 0.11477 0.50632 0.39392 1.09906 1.10184 1.52393 1.82006 0.87707 1.48252 1.2837 3.4573 1.14355 5.55328-0.13063 1.95215-0.79169 3.68089-1.91011 4.99459-0.18324 0.21519-0.50841 0.54058-0.68225 0.68258-0.27444 0.22416-0.38153 0.26559-0.45269 0.17519zm-53.9356-0.57381c-0.35821-0.0654-0.6678-0.25811-0.81425-0.50653-0.23673-0.40155-0.0707-0.95336 0.34892-1.1594 0.0874-0.043 0.11651-0.048 0.27022-0.048 0.15868-2e-5 0.17933 4e-3 0.26442 0.0511 0.21808 0.12086 0.29361 0.34282 0.20954 0.61546-0.0846 0.2737-0.315 0.45823-0.63154 0.50571l-0.0819 0.013 0.0596 0.0511c0.0852 0.073 0.24457 0.14541 0.39268 0.17845 0.53492 0.1189 0.85644-0.26498 1.12923-1.34861 0.0974-0.38722 0.19258-0.87678 0.71681-3.68998 0.27444-1.4727 0.50334-2.69893 0.50868-2.72497l9e-3 -0.0474-0.5481-1.9e-4c-0.32569 0-0.57419-7e-3 -0.61245-0.0174-0.078-0.0217-0.0993-0.0572-0.0991-0.16585 2e-4 -0.11216 0.0472-0.18736 0.13259-0.21084 0.0398-0.0109 0.28892-0.0174 0.63678-0.0174l0.57133-1.9e-4 0.0174-0.0904c0.0109-0.0498 0.0652-0.33837 0.12259-0.64143 0.20214-1.06824 0.31398-1.49396 0.48689-1.85338 0.26483-0.55044 0.6614-0.91233 1.14839-1.04792 0.46552-0.12954 1.00844 2e-3 1.30694 0.31815 0.36997 0.39119 0.25697 1.06098-0.2186 1.29584-0.12389 0.0611-0.14019 0.0648-0.29545 0.0648-0.14998 0-0.17237-4e-3 -0.2566-0.0511-0.21775-0.12063-0.29652-0.35247-0.20844-0.61376 0.0904-0.26813 0.29434-0.4443 0.58256-0.50306l0.10977-0.0224-0.0563-0.0474c-0.0885-0.0743-0.23711-0.14172-0.38514-0.17454-0.27098-0.06-0.48616-2e-3 -0.66472 0.18041-0.16846 0.17172-0.2238 0.33413-0.42025 1.23193-0.0845 0.3862-0.35464 1.85275-0.35464 1.92531 0 0.0267 0.0522 0.0291 0.66351 0.0291 0.7277 0 0.77058 4e-3 0.7931 0.0948 0.0152 0.0563-2e-3 0.18628-0.0296 0.22945-0.0496 0.0795-0.0543 0.08-0.80714 0.0891l-0.71462 9e-3 -0.35586 1.89413c-0.42772 2.27672-0.52738 2.78738-0.61658 3.15976-0.19258 0.80369-0.35699 1.29507-0.59424 1.77561-0.40277 0.81577-0.91519 1.26186-1.47252 1.28184-0.09 4e-3 -0.19976-9.6e-4 -0.24403-9e-3zm-9.91651-1.63569c-0.0796-0.0241-0.11868-0.0528-0.14955-0.10912-0.0282-0.0517-0.0309-0.18888-0.0389-2.07013l-9e-3 -2.01469-1.99747-9e-3c-1.11973-4e-3 -2.0126-0.0152-2.0319-0.0241-0.19062-0.0854-0.21388-0.35768-0.0387-0.45343 0.0522-0.0285 0.18432-0.0311 2.06188-0.0391l2.00605-9e-3 9e-3 -2.01469c9e-3 -2.28314-4e-3 -2.09667 0.14998-2.16438 0.13368-0.0591 0.28529-0.0152 0.34282 0.10151 0.0311 0.0628 0.0326 0.14585 0.0369 2.07544l4e-3 2.01007 2.0101 4e-3c1.88416 4e-3 2.01357 7e-3 2.06576 0.035 0.0817 0.0448 0.11325 0.11759 0.10412 0.24179-7e-3 0.0891-0.0152 0.10976-0.0613 0.15106-0.0296 0.0265-0.0832 0.0563-0.11933 0.0663-0.0441 0.013-0.70463 0.0174-2.03281 0.0174l-1.96732 6e-5v1.9726c0 1.37141-7e-3 1.99543-0.0196 2.04747-0.023 0.0915-0.093 0.16193-0.1815 0.18236-0.0769 0.0174-0.0859 0.0174-0.14498 0zm95.5238-0.57064c-0.0761-0.0222-0.17237-0.13433-0.18628-0.21745-0.0174-0.0991 0.0291-0.20084 0.11759-0.26126 0.055-0.0376 4.12942-1.97963 6.80825-3.24522 0.20128-0.095 0.36014-0.17802 0.35301-0.18411-7e-3 -7e-3 -1.54725-0.73424-3.42245-1.618-3.73565-1.76055-3.68851-1.73812-3.76095-1.7897-0.0667-0.0476-0.11281-0.16823-0.0967-0.25376 0.0174-0.0878 0.13237-0.20302 0.22079-0.21925 0.0583-0.0109 0.0935 2e-3 0.32715 0.11715 0.14411 0.0711 1.82469 0.86142 3.73474 1.75653 1.91005 0.89509 3.53933 1.65982 3.62067 1.69938 0.17715 0.0861 0.27833 0.17737 0.29496 0.26611 0.0274 0.14542-0.063 0.26614-0.28066 0.37567-0.0641 0.0322-1.74003 0.81981-3.72415 1.75007-1.9841 0.93025-3.67214 1.7254-3.75119 1.767-0.14998 0.0789-0.16607 0.0826-0.2546 0.057zm-110.424-0.41894c-0.0822-0.0304-0.16259-0.10411-0.19389-0.17758-0.0574-0.13389-0.0587-0.12716 0.54399-2.52752 0.24492-0.97549 0.46241-1.85497 0.4833-1.95441 0.0472-0.2243 0.0639-0.57718 0.0346-0.72733-0.0483-0.24753-0.17019-0.36491-0.37855-0.36421-0.40434 1e-3 -0.66919 0.40105-0.94895 1.43205-0.0909 0.33517-0.12542 0.43357-0.15911 0.45502-0.0109 7e-3 -0.0576 0.013-0.10259 0.013-0.10499 3.3e-4 -0.15063-0.0409-0.15063-0.13606 0-0.0369 0.0317-0.19389 0.0704-0.34869 0.25185-1.00701 0.56235-1.51128 1.02842-1.67024 0.14454-0.0493 0.41287-0.0524 0.59734-7e-3 0.18845 0.0465 0.38716 0.15215 0.52334 0.27827 0.20388 0.18866 0.31663 0.39633 0.37666 0.69342l0.0326 0.16106 0.11346-0.14411c0.13911-0.17671 0.39238-0.42637 0.56057-0.55257 0.46156-0.34634 1.0653-0.51834 1.62439-0.46278 0.57977 0.0576 0.97234 0.29624 1.17853 0.71635 0.20279 0.41307 0.20692 0.83429 0.0152 1.5922-0.11542 0.4587-0.33954 1.1491-0.61202 1.88612-0.26866 0.72672-0.29828 0.84657-0.28928 1.17094 7e-3 0.23236 0.0296 0.29543 0.13411 0.36584 0.0465 0.0313 0.0815 0.0389 0.18236 0.0389 0.36521 0 0.68164-0.23485 0.96486-0.71609 0.13281-0.22562 0.2351-0.46365 0.35465-0.82505 0.0563-0.17041 0.11281-0.3205 0.12541-0.33341 0.013-0.013 0.058-0.0274 0.10086-0.0322 0.068-9e-3 0.0839-2e-3 0.12454 0.0378 0.042 0.042 0.0457 0.0557 0.0374 0.13607-0.0152 0.14346-0.1765 0.60204-0.30448 0.86333-0.28376 0.57939-0.62471 0.94045-1.03693 1.09806-0.13803 0.0528-0.15281 0.0548-0.40164 0.0548-0.23949-1.7e-4 -0.26724-4e-3 -0.38107-0.0469-0.17433-0.0665-0.27036-0.12411-0.3856-0.23068-0.27074-0.25066-0.39349-0.63678-0.322-1.01283 0.0152-0.0759 0.10912-0.36636 0.21041-0.64573 0.57913-1.59629 0.81379-2.51218 0.77428-3.02202-0.0322-0.41513-0.17367-0.66697-0.43079-0.76643-0.19149-0.0741-0.56724-0.0517-0.88859 0.0528-0.50455 0.1641-0.98185 0.56118-1.34539 1.1189-0.17954 0.27559-0.24714 0.43041-0.32247 0.73974-0.038 0.15628-0.1039 0.41585-0.14629 0.57685-0.0424 0.16106-0.12367 0.49032-0.18084 0.73183-0.16976 0.71696-0.53127 2.13942-0.55909 2.19996-0.0365 0.0793-0.15693 0.20519-0.24703 0.25801-0.0945 0.0554-0.29891 0.0715-0.40529 0.0319zm33.0539-0.0109c-0.18649-0.0489-0.32156-0.12802-0.47049-0.276-0.2802-0.27835-0.37223-0.65677-0.26572-1.09258 0.05-0.2041 0.0769-0.28394 0.21453-0.63206 0.22616-0.57233 0.87126-2.29503 0.96599-2.57962 0.11585-0.34843 0.15498-0.53199 0.15498-0.73035 0-0.33145-0.12303-0.46311-0.40303-0.43105-0.52569 0.0602-0.94843 0.583-1.26621 1.56595-0.0489 0.15128-0.10129 0.28887-0.1165 0.30565-0.0413 0.0456-0.18302 0.0419-0.2311-7e-3 -0.0313-0.0313-0.0354-0.0504-0.0276-0.13346 0.0196-0.21908 0.25494-0.80415 0.4488-1.11951 0.29148-0.47411 0.60233-0.74485 0.99301-0.86488 0.18953-0.0583 0.47106-0.0548 0.66294 9e-3 0.2521 0.0826 0.4161 0.2041 0.55234 0.40911 0.0961 0.14455 0.1565 0.30948 0.18041 0.4923 0.0328 0.25157-7e-3 0.4535-0.18367 0.91771-0.38849 1.0237-0.98679 2.62671-1.06554 2.85478-0.10673 0.30887-0.13824 0.48398-0.1239 0.68677 0.0109 0.1615 0.0537 0.26033 0.13781 0.3227 0.0737 0.0545 0.29417 0.06 0.43948 0.0109 0.452-0.15237 0.83233-0.69194 1.10494-1.56788 0.0506-0.1628 0.085-0.24405 0.11455-0.2712 0.0748-0.0687 0.21019-0.0411 0.24818 0.0504 0.0174 0.0428 0.0152 0.0759-0.0233 0.21851-0.13759 0.5253-0.43283 1.09486-0.73511 1.41853-0.21804 0.23347-0.44924 0.37973-0.70277 0.44459-0.17215 0.0439-0.43159 0.0433-0.60309-1e-3zm4.76633 9e-3c-0.49377-0.1052-0.91632-0.46033-1.14496-0.96204-0.15107-0.33149-0.21671-0.66861-0.21671-1.11214 0-0.55013 0.013-0.60654 0.75965-3.5472 0.74672-2.93737 0.77393-3.06266 0.68388-3.14702-0.0674-0.063-0.13324-0.0761-0.49506-0.0969-0.34954-0.0196-0.41592-0.0337-0.43709-0.0889-0.0196-0.0498-0.0109-0.16497 0.0152-0.22049 0.0369-0.0776 0.0837-0.1002 0.24059-0.1165 0.0761-9e-3 0.25062-0.0263 0.38792-0.0409 0.51982-0.0556 0.99597-0.0945 1.15501-0.0948 0.1502 0 0.16824 4e-3 0.20236 0.0398 0.0196 0.022 0.0374 0.0606 0.0374 0.0859 0 0.0367-0.94434 3.93764-0.97343 4.02113-9e-3 0.0233 0.0109 9e-3 0.23953-0.1891 0.45826-0.39553 1.00077-0.61055 1.44851-0.57409 0.43933 0.0356 0.79999 0.20801 1.09617 0.52325 0.28126 0.29939 0.46265 0.69168 0.54222 1.17267 0.0363 0.21901 0.0352 0.68825-2e-3 0.93867-0.13324 0.89715-0.57315 1.77885-1.22232 2.45043-0.11368 0.11759-0.26887 0.26398-0.34484 0.32521-0.41401 0.33371-0.87726 0.56105-1.28986 0.63299-0.18671 0.0326-0.52951 0.0326-0.68214 0zm0.57307-0.2932c0.42813-0.11107 0.86776-0.51851 1.2183-1.1294 0.13194-0.22983 0.21827-0.4295 0.3378-0.78071 0.19367-0.5694 0.38044-1.3435 0.44643-1.8511 0.0389-0.29893 0.0265-0.77793-0.025-0.9729-0.0824-0.31191-0.24851-0.5502-0.45274-0.64956-0.41322-0.20106-1.01892 0.013-1.56379 0.55485-0.18932 0.18802-0.45224 0.50454-0.49339 0.59407-0.0283 0.0613-0.4495 1.73338-0.51249 2.03388-0.0667 0.31876-0.0965 0.58574-0.0961 0.86418 4.8e-4 0.38555 0.0419 0.61591 0.15389 0.85578 0.11607 0.24897 0.268 0.39442 0.49243 0.47159 0.12693 0.0437 0.34619 0.0478 0.49473 9e-3zm9.66389 0.28794c-0.0378-0.0174-0.0872-0.0504-0.10954-0.0719-0.0496-0.0476-0.10477-0.16476-0.10521-0.22342-4.5e-4 -0.0759 0.11086-0.54079 0.51565-2.15245 0.62269-2.47979 0.61347-2.43723 0.5973-2.7551-0.013-0.278-0.0839-0.43765-0.22388-0.51166-0.0804-0.0424-0.2735-0.0387-0.37601 7e-3 -0.29448 0.13237-0.52458 0.56583-0.74772 1.40823-0.0426 0.16106-0.0945 0.3276-0.11542 0.37023-0.0376 0.0769-0.0387 0.0776-0.13498 0.0826-0.0887 4e-3 -0.10042 9.4e-4 -0.13498-0.043-0.0452-0.0576-0.0433-0.0756 0.0446-0.43566 0.30778-1.25979 0.76248-1.79219 1.45792-1.70712 0.56677 0.0693 0.96455 0.44098 1.07026 0.99992 0.0152 0.0798 0.0296 0.14737 0.0322 0.14998 2e-3 2e-3 0.0472-0.0509 0.0987-0.1189 0.2279-0.29978 0.58613-0.60769 0.89217-0.76686 0.83971-0.43676 1.87658-0.34115 2.3356 0.2154 0.19692 0.23884 0.28287 0.49004 0.29602 0.86598 0.0196 0.53797-0.14455 1.18783-0.65308 2.59849-0.30759 0.85321-0.31791 0.88372-0.35012 1.03572-0.0196 0.0911-0.0311 0.22262-0.0317 0.3521-9.5e-4 0.18693 4e-3 0.21475 0.0419 0.29155 0.0578 0.11476 0.12324 0.14759 0.29229 0.14715 0.23981-4.8e-4 0.44591-0.10303 0.66516-0.33039 0.26318-0.27291 0.48093-0.6914 0.66123-1.27066 0.0817-0.26268 0.11542-0.30993 0.22075-0.30993 0.0802 0 0.13476 0.0369 0.14889 0.10129 0.0359 0.16302-0.28183 0.97053-0.52184 1.32665-0.35373 0.5249-0.75086 0.77669-1.22393 0.77595-0.18975-2.6e-4 -0.3344-0.03-0.48788-0.1002-0.38412-0.17584-0.61572-0.5462-0.61572-0.98464 0-0.1991 0.0365-0.35603 0.15781-0.67631 0.38101-1.0077 0.66725-1.9322 0.79014-2.552 0.0513-0.25885 0.0648-0.69042 0.0272-0.86798-0.10911-0.51356-0.44102-0.6871-1.06962-0.55922-0.60313 0.1228-1.15423 0.53955-1.58106 1.19593-0.17041 0.26211-0.24263 0.43339-0.32071 0.76085-0.0389 0.16323-0.1052 0.4248-0.14737 0.58106-0.0422 0.15628-0.10868 0.42362-0.1478 0.59407-0.14498 0.63115-0.55014 2.22374-0.58366 2.29482-0.0482 0.10216-0.15476 0.21279-0.2532 0.26257-0.11325 0.0574-0.31117 0.0667-0.41011 0.0196zm49.8074 4e-3c-0.11281-0.0489-0.19019-0.14477-0.2128-0.26336-0.0152-0.0822 0.0417-0.32686 0.58368-2.49013 0.25866-1.03231 0.48345-1.96215 0.49958-2.06633 0.0585-0.37801 0.013-0.70753-0.11694-0.82966-0.0846-0.0802-0.13129-0.098-0.25594-0.0985-0.22312-4.8e-4 -0.41088 0.13607-0.57714 0.41977-0.1378 0.2354-0.23763 0.51836-0.4205 1.19302-0.0698 0.25759-0.0924 0.28817-0.21301 0.28817-0.17302 0-0.18476-0.0624-0.0874-0.45936 0.31511-1.28399 0.76467-1.81491 1.46431-1.72934 0.57218 0.07 0.95725 0.43413 1.07328 1.01494l0.0287 0.14346 0.10477-0.13498c0.21605-0.27833 0.54159-0.56603 0.82266-0.72685 0.61632-0.35265 1.43914-0.40588 2.00118-0.12955 0.49524 0.24353 0.75544 0.77928 0.69462 1.43014-0.048 0.51534-0.27361 1.31346-0.69757 2.46923-0.31135 0.8487-0.33587 0.94101-0.33597 1.26464 0 0.33956 0.0726 0.43878 0.32223 0.439 0.55053 4.6e-4 1.01511-0.56688 1.35515-1.65498 0.0343-0.10998 0.0743-0.20975 0.0887-0.22166 0.0152-0.0109 0.0604-0.0254 0.10216-0.0302 0.0652-7e-3 0.0826-2e-3 0.12064 0.0359 0.0587 0.0587 0.0567 0.10368-0.0152 0.35019-0.19323 0.6684-0.5489 1.26186-0.92775 1.54847-0.12738 0.0965-0.34306 0.20258-0.48491 0.23899-0.13216 0.0339-0.41529 0.0335-0.56031-4.8e-4 -0.29531-0.0693-0.58778-0.29987-0.71298-0.56186-0.11173-0.23359-0.14085-0.4866-0.0863-0.75017 0.0152-0.0726 0.10695-0.34932 0.20432-0.61489 0.64582-1.76048 0.86033-2.69615 0.74359-3.24359-0.10672-0.50056-0.42835-0.66423-1.06739-0.54318-0.61719 0.11694-1.22141 0.59426-1.64354 1.29846-0.13498 0.22512-0.17367 0.3228-0.24718 0.62478-0.0374 0.15324-0.10999 0.4375-0.1615 0.63165-0.0515 0.1941-0.1089 0.42274-0.12759 0.50797-0.04 0.18214-0.33769 1.38821-0.47387 1.91998-0.0522 0.20366-0.11215 0.40779-0.13324 0.45369-0.0489 0.10629-0.19453 0.24027-0.30037 0.27631-0.10129 0.0346-0.27107 0.0346-0.35053 2e-4zm41.5611 9.5e-4c-0.0152-0.0152-0.0309-0.0513-0.0365-0.0817-7e-3 -0.0304-9e-3 -0.5462-4e-3 -1.14607l4e-3 -1.09066 0.0406-0.0328c0.0274-0.0222 0.0676-0.033 0.12368-0.033 0.10933 0 0.13889 0.0383 0.1891 0.2452 0.27253 1.12097 0.65847 1.63278 1.37582 1.82449 0.1878 0.0502 0.63628 0.0626 0.87781 0.0243 0.55216-0.0874 0.91032-0.35256 1.06497-0.78828 0.0593-0.16715 0.075-0.4989 0.0317-0.66816-0.088-0.34389-0.34741-0.61898-0.74609-0.79147-0.20714-0.0896-0.39542-0.1415-0.84822-0.23397-0.65365-0.13346-0.95828-0.21984-1.19676-0.33962-0.45231-0.22717-0.76689-0.58811-0.88181-1.01179-0.0437-0.16106-0.0426-0.54751 2e-3 -0.7232 0.1778-0.69994 0.72283-1.12742 1.59444-1.25045 0.30016-0.0424 0.76935-0.0383 0.99442 9e-3 0.24316 0.0509 0.44159 0.12607 0.62609 0.23722 0.18084 0.10912 0.13802 0.12086 0.37055-0.10172 0.15259-0.14585 0.23918-0.19389 0.31872-0.17628 0.10998 0.0241 0.10889 0.0152 0.11498 0.91993 2e-3 0.45031 4.8e-4 0.86005-7e-3 0.91054-0.0152 0.12477-0.0509 0.15781-0.17063 0.15781-0.14563 0-0.14911-7e-3 -0.18063-0.31857-0.0943-0.93719-0.63403-1.42083-1.58516-1.42057-0.5139 2.2e-4 -0.9321 0.13063-1.18576 0.36988-0.20649 0.19475-0.28761 0.40459-0.27441 0.71013 7e-3 0.15998 0.013 0.18759 0.0704 0.30342 0.0876 0.17693 0.2439 0.32271 0.46069 0.42919 0.26253 0.1289 0.49239 0.19324 1.17818 0.32939 0.5993 0.11911 0.85405 0.2041 1.13362 0.37825 0.16019 0.1 0.41126 0.32645 0.53675 0.4845 0.12106 0.15236 0.25444 0.42191 0.3026 0.6113 0.12064 0.47432 0.0217 1.07367-0.2435 1.466-0.26888 0.39862-0.69382 0.6616-1.25076 0.77406-0.25924 0.0524-0.78864 0.0656-1.01941 0.0256-0.35234-0.0611-0.62272-0.18345-0.92935-0.42029l-0.14411-0.11128-0.26913 0.27815c-0.26335 0.2722-0.27066 0.27816-0.34108 0.27807-0.0415 0-0.083-0.0109-0.0983-0.0265zm7.74687 9e-3c-0.60389-0.0932-1.15959-0.36969-1.60753-0.79976-0.46304-0.44454-0.75352-0.97307-0.89384-1.62622-0.0435-0.20258-0.0465-0.24335-0.0461-0.64675 4.5e-4 -0.40142 4e-3 -0.445 0.0465-0.64571 0.13998-0.65171 0.41035-1.16772 0.83927-1.60146 0.22877-0.23138 0.43311-0.38268 0.70601-0.52282 0.45206-0.23216 0.89886-0.32293 1.40338-0.28515 0.45578 0.0341 0.7904 0.14346 1.12862 0.36855 0.65631 0.43694 1.04784 1.2576 1.0493 2.19934 4.6e-4 0.23561-0.013 0.29154-0.0798 0.32177-0.03 0.0131-0.60737 0.0196-2.02138 0.0196h-1.97943v0.11628c9.4e-4 0.41581 0.0539 0.91474 0.12868 1.21137 0.19693 0.78145 0.7242 1.35926 1.39727 1.53141 0.37808 0.0967 0.83581 0.0417 1.21293-0.14563 0.19476-0.0967 0.28605-0.16063 0.44318-0.30976 0.22355-0.21236 0.39338-0.47035 0.50101-0.76122 0.0863-0.2332 0.1002-0.26083 0.14737-0.29169 0.0995-0.0652 0.25044 0.0217 0.25044 0.14345 0 0.23869-0.27652 0.73859-0.58102 1.05042-0.32669 0.33451-0.70859 0.54774-1.16676 0.65147-0.14281 0.0324-0.71981 0.0474-0.8782 0.023zm1.74777-3.61954c0-0.0593-0.0109-0.20736-0.0259-0.32908-0.11781-1.00627-0.48445-1.63237-1.07167-1.8295-0.66199-0.2222-1.39343 0.12998-1.76494 0.84977-0.0526 0.10194-0.11498 0.23957-0.13845 0.30587-0.0909 0.25505-0.16194 0.62445-0.19128 0.99444l-9e-3 0.11629h3.20154zm-76.3856 3.29528v-0.20867l0.15932-9.5e-4c0.0876-4.6e-4 0.33363-9e-3 0.54673-0.0152 0.53031-0.0217 0.71944-0.0606 0.83992-0.17736 0.11433-0.11064 0.10716 0.14324 0.10716-3.81253 0-1.97293-4e-3 -3.58715-7e-3 -3.58715-4e-3 0-0.0693 0.0267-0.14542 0.0593-0.38824 0.16628-0.81596 0.25549-1.33713 0.27916l-0.24944 0.0109v-0.41864h0.0476c0.0261 0 0.1715-9e-3 0.32287-0.0174 0.80262-0.0533 1.4452-0.29482 1.93689-0.72809 0.12672-0.11172 0.13107-0.11389 0.22736-0.11411 0.10672-4.6e-4 0.17606 0.0228 0.1978 0.0665 9e-3 0.0152 0.0174 1.84491 0.0224 4.06578l9e-3 4.03798 0.0404 0.0819c0.0952 0.19345 0.304 0.24144 1.14344 0.26303l0.46063 0.0109v0.41341l-0.0559-0.0109c-0.0309-7e-3 -0.51971-0.0196-1.08652-0.0296-0.77104-0.0152-1.28703-0.0152-2.04911 3e-5 -0.5602 0.0109-1.04376 0.0241-1.07454 0.0296l-0.0559 0.0109v-0.20866zm52.1754 0.0626c4.8e-4 -0.17824 0.0322-0.25309 0.16845-0.3972 0.23825-0.2519 2.64423-2.94575 2.7929-3.12703 0.54229-0.66123 0.89961-1.31504 1.05891-1.9376 0.0778-0.30411 0.10151-0.52799 0.09-0.85334-0.0348-0.98907-0.50467-1.74742-1.22645-1.97919-0.21715-0.0698-0.40664-0.0939-0.6443-0.0822-0.67934 0.0335-1.27132 0.42461-1.5869 1.04867-0.0369 0.0728-0.0815 0.17085-0.0993 0.21771l-0.0324 0.0852 0.10042-9e-3c0.29974-0.0272 0.59328 0.13846 0.71831 0.4051 0.0419 0.0898 0.0461 0.11694 0.0461 0.30545 0 0.19932-2e-3 0.21127-0.0565 0.32198-0.20193 0.41018-0.81041 0.50068-1.14034 0.16954-0.1528-0.15324-0.19867-0.3147-0.18388-0.64665 0.0152-0.34164 0.0828-0.59991 0.24346-0.93012 0.33426-0.68729 0.96458-1.17694 1.73205-1.34557 0.18345-0.0404 0.85962-0.0461 1.06691-9e-3 0.89694 0.16019 1.57127 0.60289 1.96389 1.28909 0.34054 0.59515 0.42159 1.42497 0.20453 2.09348-0.22616 0.69655-0.72476 1.28116-2.2718 2.66363-0.4037 0.36075-1.16413 1.08295-1.79936 1.70893l-0.12064 0.11868 1.65309-9e-3c1.96469-9e-3 1.98777-0.0109 2.06454-0.16258 0.063-0.12455 0.12281-0.34008 0.19911-0.71812 0.0383-0.18932 0.0735-0.36181 0.0785-0.38314 9e-3 -0.0367 0.0174-0.0387 0.16367-0.0387 0.085 0 0.15476 2e-3 0.15476 7e-3 0 0.0174-0.34549 2.26398-0.35321 2.29702l-9e-3 0.0387h-4.97575l4.5e-4 -0.14216zm10.934-0.0632c0-0.11433 2e-3 -0.20867 4e-3 -0.20954 2e-3 -9.5e-4 0.16693-9e-3 0.3659-0.0152 0.39916-0.0152 0.48804-0.0344 0.57692-0.12325 0.11455-0.11454 0.10976-0.0304 0.1165-2.1023 4e-3 -1.09451-9.5e-4 -1.97164-0.0109-2.1111-0.0248-0.3571-0.0785-0.45711-0.287-0.53512-0.0963-0.0361-0.38046-0.0698-0.58945-0.07l-0.1076-2e-4v-0.41124l0.0732-9e-3c0.0402-4e-3 0.4335-0.0365 0.8739-0.0698 0.44039-0.033 0.82977-0.0643 0.86526-0.0693l0.0646-9e-3v2.5886c0 2.85302-4e-3 2.71626 0.10433 2.8084 0.0891 0.075 0.20432 0.0991 0.53271 0.11107l0.30134 0.0109 4e-3 0.21257 4e-3 0.21258-0.14259-0.0109c-0.52325-0.0402-2.0337-0.0404-2.60071-3.2e-4l-0.15063 0.0109v-0.20801zm-76.5305-2.91971c-0.11085-0.0396-0.15302-0.0948-0.1615-0.21192-9e-3 -0.12216 0.023-0.19563 0.10433-0.24001 0.0528-0.0289 0.26079-0.0304 3.98173-0.0304 3.71824 0 3.92925 1e-3 3.98705 0.0304 0.0811 0.0404 0.11976 0.10998 0.11976 0.21518 0 0.11955-0.0524 0.19324-0.16389 0.2316-0.0798 0.0274-0.35203 0.0293-3.94286 0.0293-3.25665 0-3.86767-4e-3 -3.92462-0.0241zm77.6084-4.46863c-0.33154-0.10585-0.5419-0.4423-0.48997-0.7836 0.0241-0.15802 0.10107-0.29863 0.22905-0.41842 0.15019-0.14041 0.25707-0.18171 0.4745-0.18323 0.1491-9.4e-4 0.17367 4e-3 0.27861 0.0535 0.24177 0.11455 0.38738 0.32484 0.40524 0.58526 0.0152 0.2286-0.04 0.40222-0.17823 0.55603-0.17889 0.19888-0.4597 0.27335-0.71914 0.1904zm-102.557-0.10498c-0.14085-0.033-0.26131-0.12433-0.328-0.24812-0.03-0.0559-0.0372-0.098-0.0372-0.22421-2e-4 -0.14019 4e-3 -0.16628 0.055-0.26739 0.0645-0.13085 0.20736-0.28257 0.32873-0.34856 0.32445-0.17671 0.65517-0.0952 0.78313 0.1928 0.0511 0.1152 0.0365 0.33582-0.0317 0.47486-0.0928 0.18932-0.303 0.35954-0.51284 0.41542-0.0993 0.0265-0.16149 0.0276-0.25711 4e-3zm-79.5061-8.79563c-0.25841-0.11803-0.82346-0.67686-1.25579-1.24176-0.92382-1.20712-1.44388-2.63942-1.62255-4.46845-0.0383-0.39058-0.0433-1.50465-9e-3 -1.88553 0.19758-2.18986 0.9438-3.9468 2.2298-5.24978 0.34528-0.34984 0.63215-0.5704 0.74194-0.5704 0.0806 0 0.13737 0.11325 0.0956 0.19106-0.0109 0.0217-0.11346 0.13564-0.22725 0.25501-1.08869 1.1414-1.72997 2.58536-1.98358 4.46635-0.18215 1.35015-0.1389 2.97252 0.11302 4.23831 0.31887 1.60273 0.91676 2.8375 1.84602 3.81247 0.2417 0.25359 0.27468 0.302 0.25903 0.38029-0.0174 0.0922-0.0865 0.11846-0.18715 0.0724zm9.87693 0.013c-0.0578-0.023-0.0865-0.0665-0.0872-0.13194-4.8e-4 -0.0478 0.0222-0.0787 0.15911-0.21518 1.19191-1.18907 1.8985-2.86187 2.10395-4.98078 0.0622-0.64234 0.0809-1.57964 0.0439-2.19548-0.14302-2.36361-0.81116-4.15433-2.01412-5.3983-0.26431-0.27338-0.29315-0.31041-0.29315-0.37643 0-0.0693 0.0598-0.1315 0.12672-0.1315 0.14302 0 0.72846 0.52421 1.11551 0.99873 1.04302 1.27874 1.59753 2.69015 1.80963 4.60622 0.0335 0.30395 0.0383 0.43532 0.0383 1.11925 2e-4 0.8124-0.0109 1.01078-0.0961 1.60141-0.25683 1.79733-1.02961 3.43026-2.15923 4.56238-0.23888 0.2394-0.46198 0.42829-0.60241 0.50999-0.0963 0.0561-0.0883 0.0543-0.14476 0.0317zm42.3067-0.29118c-0.023-0.023-0.0343-0.0574-0.0343-0.10433 0-0.0632 0.013-0.0826 0.12541-0.20236 0.25179-0.26564 0.41399-0.49369 0.56344-0.79223 0.22301-0.44546 0.32641-0.85275 0.35389-1.39386 0.0152-0.28744 7e-3 -0.30087-0.1189-0.20498-0.0819 0.0626-0.24118 0.12281-0.37284 0.14107-0.10346 0.0152-0.31052-0.0304-0.40939-0.0882-0.25268-0.14802-0.39842-0.45784-0.34897-0.74174 0.0426-0.24455 0.16519-0.41337 0.37546-0.51733 0.12803-0.0633 0.13629-0.065 0.32211-0.065 0.18019 0 0.19693 4e-3 0.3038 0.0556 0.27018 0.13302 0.44465 0.42018 0.52586 0.86555 0.0369 0.20214 0.0413 0.69255 9e-3 0.92984-0.0691 0.49625-0.27363 1.03713-0.55368 1.46366-0.23085 0.35158-0.55881 0.68877-0.6699 0.68877-0.0196 0-0.0511-0.0152-0.07-0.0343zm-73.2603-0.3384c-0.2554-0.0543-0.45654-0.16324-0.61937-0.33545-0.18845-0.19911-0.25874-0.42012-0.21947-0.68951 0.0404-0.2787 0.19259-0.49476 0.43059-0.61241 0.12238-0.0604 0.14129-0.0648 0.28685-0.0646 0.12281 0 0.17237 9e-3 0.23336 0.0365 0.23038 0.10846 0.32561 0.35188 0.2434 0.62243-0.0841 0.27687-0.32208 0.47362-0.6208 0.51327-0.048 7e-3 -0.0876 0.0174-0.0876 0.025 0 7e-3 0.0439 0.0424 0.0972 0.0778 0.20476 0.13585 0.50521 0.19606 0.69571 0.13911 0.32736-0.0978 0.56359-0.50451 0.77649-1.33654 0.0989-0.38618 0.19823-0.89726 0.73815-3.79708 0.26636-1.43007 0.48841-2.61757 0.49354-2.6389l9e-3 -0.0387h-0.55892c-0.57605 0-0.65189-9e-3 -0.68497-0.0695-0.0235-0.0435-0.0217-0.1778 4e-3 -0.23227 0.0448-0.0985 0.0706-0.10238 0.72246-0.10825l0.59667-4e-3 0.0548-0.28742c0.28448-1.49519 0.36005-1.80797 0.53309-2.20694 0.26257-0.60541 0.68486-1.00287 1.21281-1.14146 0.19453-0.0511 0.51303-0.05 0.70826 2e-3 0.50338 0.13455 0.79149 0.45965 0.78804 0.88922-4e-3 0.33321-0.16954 0.60919-0.44896 0.74263-0.1278 0.0611-0.3361 0.0761-0.46378 0.0337-0.19171-0.0637-0.31393-0.2356-0.31421-0.44218 0-0.34403 0.2547-0.63619 0.61969-0.7095l0.11194-0.0224-0.0861-0.0633c-0.11781-0.0865-0.27029-0.14476-0.44359-0.16998-0.12564-0.0174-0.16128-0.0174-0.26049 7e-3 -0.20779 0.0513-0.39313 0.2117-0.48638 0.42111-0.0959 0.21518-0.28283 1.05428-0.47858 2.14821l-0.14172 0.7921 1.3919 0.018 0.0433 0.0506c0.0382 0.0443 0.0424 0.0619 0.0343 0.14063-0.0109 0.10934-0.0487 0.17041-0.11911 0.19497-0.0343 0.013-0.29409 0.0196-0.73829 0.0196-0.37688 0-0.68881 7e-3 -0.69329 0.013-4e-3 7e-3 -0.19519 1.00872-0.42393 2.22563-0.48987 2.60603-0.56516 2.96185-0.76639 3.62289-0.16215 0.53248-0.40099 1.0739-0.61759 1.39936-0.3035 0.45615-0.6654 0.75152-1.02832 0.83929-0.1389 0.0337-0.36336 0.033-0.5241-9.4e-4zm164.272-2.1137c-0.12259-0.0572-0.18345-0.1415-0.19258-0.26691-9e-3 -0.12933 0.0109-0.21302 0.54709-2.35212 0.57083-2.27399 0.54058-2.13501 0.54186-2.48822 9.3e-4 -0.24288-4e-3 -0.29783-0.0335-0.37849-0.0722-0.19758-0.24158-0.289-0.45389-0.24466-0.34061 0.0711-0.59457 0.49043-0.8311 1.37219-0.13607 0.5076-0.14541 0.52521-0.27605 0.52521-0.10672 0-0.15237-0.0406-0.15237-0.1365 0-0.0904 0.13868-0.63902 0.22556-0.89185 0.28739-0.83688 0.69446-1.21604 1.25538-1.16927 0.29154 0.0243 0.54996 0.1352 0.74741 0.32063 0.20084 0.18867 0.31372 0.40031 0.36999 0.69412l0.0291 0.15171 0.10433-0.13454c0.29567-0.38134 0.70825-0.70392 1.1029-0.8624 0.73605-0.29552 1.56436-0.20997 2.01282 0.20758 0.28359 0.26416 0.40953 0.58937 0.40814 1.05407-1e-3 0.49258-0.16259 1.12583-0.60465 2.3765-0.10369 0.29348-0.21171 0.59169-0.23975 0.66273-0.14911 0.37644-0.18498 0.54211-0.18498 0.85235 0 0.22734 4e-3 0.26531 0.0346 0.31676 0.0654 0.11107 0.11151 0.13107 0.29842 0.12976 0.13846-9.3e-4 0.18432-9e-3 0.27278-0.0456 0.42981-0.17998 0.78013-0.7031 1.05528-1.57601 0.0504-0.15998 0.083-0.23573 0.10912-0.25401 0.0543-0.038 0.15411-0.0326 0.21019 0.0109 0.0445 0.035 0.0469 0.0435 0.0374 0.13346-0.0217 0.19692-0.20584 0.70059-0.36723 0.99985-0.36803 0.68238-0.83498 1.03339-1.37469 1.03339-0.65495 0-1.14303-0.50988-1.10429-1.1537 0.0109-0.1954 0.0346-0.27717 0.20844-0.74904 0.60668-1.64474 0.84349-2.58832 0.78515-3.12835-0.0298-0.27578-0.0937-0.44422-0.21584-0.56978-0.16193-0.16628-0.39835-0.21563-0.76706-0.15998-0.64967 0.098-1.2155 0.50208-1.67304 1.19491-0.18497 0.28029-0.24685 0.42166-0.32484 0.74322-0.0378 0.15628-0.11455 0.45848-0.17019 0.67157-0.0557 0.21302-0.12977 0.51141-0.16476 0.66295-0.1452 0.63004-0.52964 2.12228-0.5647 2.19249-0.0546 0.10933-0.20171 0.23755-0.30939 0.26952-0.1289 0.0383-0.24716 0.0333-0.35093-0.0152zm41.5864 0.0174c-0.0493-0.0361-0.0567-0.19084-0.0578-1.21565-9.4e-4 -0.93058 9e-3 -1.11064 0.0611-1.14909 0.0465-0.0341 0.20171-0.028 0.23538 9e-3 0.0152 0.0174 0.063 0.16867 0.10607 0.33679 0.25836 1.01205 0.64995 1.51091 1.32966 1.69391 0.15411 0.0415 0.19801 0.0456 0.5046 0.0465 0.26383 9.6e-4 0.3671-7e-3 0.48186-0.0304 0.63406-0.1365 0.99612-0.52594 1.02761-1.10499 0.0226-0.41644-0.14411-0.74382-0.49934-0.98016-0.26652-0.17736-0.49353-0.25496-1.11344-0.38079-0.98777-0.20041-1.31724-0.33276-1.66785-0.66971-0.31332-0.30108-0.45086-0.61421-0.45134-1.02739-4.6e-4 -0.43661 0.12954-0.77461 0.41159-1.06982 0.29365-0.30737 0.69909-0.49113 1.25129-0.56714 0.20867-0.0287 0.74079-0.0282 0.90403 9.4e-4 0.26139 0.0465 0.5415 0.15476 0.73763 0.28517 0.0506 0.0335 0.0952 0.0611 0.0991 0.0611 4e-3 0 0.0902-0.0776 0.19171-0.17258 0.19737-0.18454 0.27014-0.22386 0.36002-0.1941 0.0922 0.0306 0.0919 0.0276 0.0922 1.00026v0.9005l-0.0422 0.0422c-0.0337 0.0337-0.0598 0.0422-0.12911 0.0422-0.13237 0-0.14629-0.0224-0.17172-0.27592-0.0291-0.29191-0.0867-0.50719-0.19258-0.72174-0.0754-0.15259-0.11107-0.20215-0.23714-0.32889-0.28906-0.29061-0.6301-0.41263-1.15313-0.41263-0.37982 0-0.66869 0.0565-0.92387 0.18062-0.3614 0.17585-0.5487 0.46352-0.5495 0.8439-4.6e-4 0.19149 0.0339 0.31191 0.13019 0.45593 0.11977 0.17933 0.33035 0.32041 0.6408 0.42935 0.20541 0.0722 0.40996 0.12216 0.88066 0.21606 0.88441 0.17606 1.14596 0.29104 1.54723 0.67966 0.18671 0.18084 0.28146 0.31054 0.38001 0.52043 0.11607 0.24733 0.1541 0.42237 0.15432 0.71204 0 0.16128-0.0109 0.29168-0.03 0.39384-0.14933 0.75526-0.68032 1.25299-1.5188 1.42388-0.22136 0.0452-0.73422 0.0641-0.93563 0.0348-0.40348-0.0589-0.79543-0.23505-1.06984-0.48051l-0.0772-0.0689-0.2755 0.28322c-0.25537 0.26251-0.28 0.28318-0.3368 0.2827-0.0337-2.6e-4 -0.0761-0.0109-0.0943-0.0246zm7.71716-2e-3c-1.13814-0.17693-2.08148-1.02476-2.41282-2.1684-0.0883-0.30474-0.11716-0.52173-0.11781-0.88681-4.6e-4 -0.27452 7e-3 -0.37662 0.0387-0.55963 0.22486-1.28245 1.11056-2.24372 2.27917-2.47371 0.22657-0.0446 0.65399-0.0528 0.88211-0.0174 0.32165 0.0507 0.63586 0.16302 0.88439 0.31615 0.18889 0.11651 0.51227 0.43318 0.63769 0.62461 0.24479 0.3736 0.3977 0.82753 0.44874 1.33204 0.0404 0.39962 0.0152 0.57998-0.0852 0.60724-0.0237 7e-3 -0.92953 0.013-2.01301 0.013l-1.96999 2e-3 0.0109 0.3573c0.0246 0.81114 0.16063 1.32122 0.4676 1.75209 0.39777 0.55855 1.00325 0.85522 1.60507 0.78652 0.79104-0.0904 1.3813-0.58342 1.64118-1.37096 0.0615-0.18649 0.12954-0.2317 0.26448-0.1754 0.11955 0.05 0.12042 0.18127 2e-3 0.46012-0.11542 0.27381-0.28556 0.51865-0.53266 0.76676-0.35582 0.35728-0.78793 0.57222-1.29105 0.64219-0.17954 0.025-0.55238 0.0217-0.74011-9e-3zm1.77129-3.67081c-0.0498-0.77267-0.24201-1.368-0.56055-1.73603-0.33858-0.39121-0.85899-0.53064-1.35311-0.36254-0.41696 0.14194-0.74641 0.44207-0.96601 0.88031-0.16498 0.32902-0.27311 0.759-0.30687 1.21891l-0.013 0.16715h3.20962zm-149.525 3.40787c0-0.12563 7e-3 -0.16454 0.0387-0.22236 0.0217-0.0385 0.63941-0.73911 1.37356-1.55677 1.43914-1.60283 1.54626-1.72497 1.74179-1.98604 0.89098-1.18956 1.16149-2.29949 0.81482-3.34334-0.21171-0.63712-0.62715-1.05884-1.19659-1.2143-0.12737-0.0348-0.1854-0.04-0.44769-0.0396-0.27546 3.3e-4 -0.31613 4e-3 -0.47354 0.048-0.58705 0.16215-1.07348 0.61076-1.29203 1.19137l-0.0396 0.10542 0.10259-7e-3c0.22925-0.0174 0.44511 0.065 0.59194 0.22351 0.13454 0.14541 0.1715 0.25022 0.17193 0.48791 3.3e-4 0.17714-4e-3 0.19692-0.0539 0.30406-0.1539 0.32465-0.54275 0.47028-0.90105 0.33739-0.30408-0.11281-0.43085-0.32363-0.43074-0.71644 2e-4 -0.61528 0.25599-1.20848 0.72187-1.67387 0.54134-0.54075 1.2168-0.78286 2.01621-0.72272 1.29998 0.0978 2.253 0.84105 2.52191 1.96674 0.14694 0.61473 0.0743 1.2742-0.19888 1.80582-0.30569 0.59515-0.81508 1.14366-2.23722 2.40902-0.27633 0.24588-1.60346 1.51473-1.75637 1.67927l-0.043 0.0463 1.62724-9e-3c1.89588-9e-3 1.99449-0.0152 2.0754-0.13933 0.0654-0.1 0.1428-0.39036 0.25472-0.95745l0.0391-0.19801 0.15889-4e-3c0.15781-4e-3 0.15889-4e-3 0.1502 0.0343-4e-3 0.0217-0.0826 0.52758-0.17302 1.12423-0.0904 0.59665-0.16867 1.10614-0.17389 1.13218l-9e-3 0.0474h-4.97369zm125.306 4e-3c0-0.0863 0.0109-0.17041 0.0239-0.2041 0.013-0.0315 0.63497-0.7384 1.38186-1.57108s1.41675-1.58353 1.48853-1.66856c0.43554-0.51582 0.75512-1.02787 0.97188-1.55703 0.29069-0.70977 0.32623-1.44023 0.10281-2.11298-0.21236-0.63943-0.62541-1.05832-1.19779-1.21473-0.12628-0.0346-0.18475-0.0396-0.44656-0.0393-0.27544 3.3e-4 -0.31613 4e-3 -0.47352 0.048-0.58622 0.16193-1.0738 0.61159-1.29203 1.19137l-0.0398 0.10542 0.10259-7e-3c0.12955-9e-3 0.29039 0.0217 0.4072 0.0789 0.1152 0.0563 0.25086 0.19932 0.31037 0.32684 0.0415 0.0893 0.0463 0.11868 0.0463 0.29709 0 0.18671-2e-3 0.20454-0.0539 0.31256-0.068 0.14346-0.16802 0.24469-0.30539 0.30896-0.20193 0.0945-0.39329 0.10368-0.59574 0.0285-0.30406-0.11281-0.43083-0.32362-0.43074-0.71644 0-0.61421 0.2554-1.20556 0.72253-1.67399 0.53826-0.53979 1.21595-0.78276 2.01557-0.72259 1.29851 0.0978 2.24891 0.83746 2.52133 1.96254 0.14737 0.60874 0.0776 1.26164-0.19258 1.8005-0.29461 0.58772-0.80482 1.13779-2.24296 2.41832-0.18475 0.16432-0.66453 0.61743-1.0663 1.00666l-0.73054 0.7077 0.0848 7e-3c0.0467 4e-3 0.7783 2e-3 1.62591-2e-3 1.82839-9e-3 1.91361-0.0152 1.99484-0.14932 0.0563-0.0926 0.12411-0.33606 0.20801-0.74744l0.0813-0.39785 0.3156-8e-3 -9e-3 0.048c-4e-3 0.0263-0.082 0.5284-0.17128 1.1156-0.0895 0.58717-0.16715 1.09277-0.17258 1.12357l-0.0109 0.0559h-4.97486zm10.9516-0.0648v-0.21475l0.34868-9e-3c0.47231-0.0109 0.58483-0.0493 0.66108-0.22373 0.0304-0.0698 0.0322-0.16845 0.0367-2.13445 4e-3 -2.21985 4e-3 -2.2232-0.083-2.36552-0.0472-0.0763-0.16758-0.14629-0.2996-0.17454-0.0574-0.013-0.21476-0.0272-0.34963-0.0335l-0.24537-0.0109v-0.20366c0-0.19736 1e-3 -0.20388 0.0387-0.21149 0.0217-4e-3 0.40681-0.0354 0.85665-0.0693 0.44987-0.0339 0.85066-0.0659 0.89063-0.0711l0.0726-9e-3 4e-3 2.60542c7e-3 2.86006-9.3e-4 2.68848 0.11064 2.78653 0.0924 0.0813 0.20344 0.1052 0.53514 0.11564l0.29704 9e-3v0.42863l-0.0646-9e-3c-0.2091-0.0313-1.32687-0.0478-1.98358-0.0293-0.38409 0.0109-0.72739 0.0239-0.76293 0.0293l-0.0646 9e-3zm-193.581-0.16215c-0.37499-0.0428-0.69353-0.25526-0.84409-0.56294-0.0898-0.18366-0.1202-0.3106-0.1202-0.50338 0-0.24433 0.0611-0.48734 0.22444-0.89291 0.0843-0.20932 0.39553-1.03085 0.78274-2.06635 0.31152-0.8331 0.38238-1.10134 0.36721-1.39023-7e-3 -0.11042-0.0174-0.16129-0.0496-0.21963-0.0611-0.11041-0.12542-0.14171-0.28989-0.14063-0.25627 2e-3 -0.47348 0.11042-0.69901 0.35026-0.25353 0.26948-0.43807 0.62493-0.63013 1.21352-0.0489 0.14997-0.10063 0.28621-0.11498 0.3026-0.0635 0.0726-0.21497 0.0487-0.2579-0.0409-0.0663-0.13824 0.28024-0.99985 0.55959-1.39158 0.26501-0.37162 0.57853-0.61258 0.90752-0.69751 0.13151-0.0339 0.43105-0.0341 0.57429-3.9e-4 0.30239 0.0713 0.56105 0.28172 0.69192 0.56288 0.0776 0.16671 0.10455 0.29437 0.10499 0.49584 0 0.25009-0.0274 0.36594-0.19193 0.79208-0.0456 0.11846-0.24938 0.66079-0.45268 1.20536-0.20323 0.54456-0.42809 1.14508-0.49947 1.33451-0.20714 0.54944-0.22342 0.61378-0.22512 0.88715 0 0.21627 0 0.23875 0.0419 0.31697 0.0578 0.1126 0.13868 0.15498 0.29183 0.15368 0.54071-4e-3 1.00186-0.54823 1.32822-1.56443 0.0487-0.1515 0.10325-0.291 0.1215-0.30993 0.0461-0.0485 0.17541-0.045 0.22658 7e-3 0.0491 0.0491 0.0461 0.1239-0.013 0.32913-0.15585 0.54168-0.44711 1.07562-0.75774 1.38893-0.25461 0.25681-0.50895 0.39381-0.80825 0.43543-0.13368 0.0196-0.15606 0.0196-0.26894 7e-3zm4.72677-7e-3c-0.75463-0.0815-1.31374-0.68157-1.47522-1.58296-0.0467-0.26116-0.0502-0.74796-7e-3 -1.02457 0.0567-0.36356 0.17193-0.84188 0.73613-3.05647 0.57255-2.24691 0.69527-2.75599 0.71431-2.96252 9e-3 -0.10238 7e-3 -0.11672-0.0307-0.15737-0.0639-0.07-0.13672-0.0843-0.50445-0.1002-0.41222-0.0174-0.42848-0.0241-0.43752-0.17389-4e-3 -0.063 4e-3 -0.11042 0.023-0.14694 0.0478-0.09 0.0448-0.0893 0.65401-0.15258 0.53551-0.0559 1.0036-0.0945 1.14156-0.0945 0.12867 0 0.14715 4e-3 0.18519 0.0422 0.023 0.0233 0.0424 0.0606 0.0424 0.0828 0 0.033-0.94008 3.9028-0.97557 4.01565-9e-3 0.0241 0.013 0.013 0.0735-0.0391 0.53445-0.46409 0.9318-0.67119 1.35528-0.70631 0.88311-0.0733 1.6054 0.48901 1.84304 1.43477 0.0619 0.24626 0.08 0.40572 0.08 0.70337 0 0.63413-0.1465 1.20778-0.47106 1.8451-0.27346 0.53682-0.66319 1.03094-1.10452 1.40039-0.58065 0.48605-1.26423 0.73587-1.84247 0.67335zm0.46472-0.32895c0.36733-0.10651 0.72089-0.41113 1.04467-0.89989 0.23723-0.3581 0.39448-0.71946 0.57446-1.32015 0.11737-0.3919 0.2419-0.91174 0.30469-1.27251 0.0506-0.29085 0.0554-0.35078 0.0559-0.68877 0-0.33359-4e-3 -0.38558-0.0395-0.52521-0.0546-0.20953-0.13977-0.38218-0.24599-0.49854-0.15498-0.16954-0.30765-0.23481-0.54879-0.23455-0.48999 4.6e-4 -1.04576 0.35332-1.54821 0.98277-0.16867 0.21106-0.19149 0.25753-0.24729 0.49936-0.023 0.0993-0.12368 0.50626-0.22408 0.90402-0.28487 1.12969-0.31436 1.3086-0.3006 1.82165 9e-3 0.282 0.0152 0.35621 0.0537 0.50299 0.0626 0.24034 0.14607 0.40151 0.27722 0.53536 0.22245 0.22681 0.50541 0.2917 0.84395 0.19345zm9.70336 0.328c-0.15563-0.0296-0.29272-0.17933-0.29272-0.32037 0-0.0919 0.0967-0.49588 0.56844-2.37231 0.53532-2.12988 0.53866-2.14512 0.54003-2.45377 0-0.44365-0.11172-0.62206-0.39609-0.62206-0.40401 0-0.67977 0.42581-0.96256 1.48628-0.0448 0.16759-0.0954 0.32789-0.11281 0.35636-0.0624 0.1026-0.25733 0.0835-0.28174-0.0276-0.0174-0.0835 0.10216-0.58342 0.23142-0.96045 0.17824-0.5194 0.43133-0.89461 0.69966-1.03665 0.15715-0.0833 0.26923-0.10977 0.46263-0.10955 0.58003 4.6e-4 1.03831 0.35282 1.18005 0.90709 0.0196 0.073 0.0339 0.14889 0.0343 0.16867 0 0.0867 0.0278 0.0763 0.12085-0.0461 0.13846-0.18259 0.41668-0.45265 0.6025-0.58501 0.42748-0.30439 0.86818-0.44463 1.39706-0.44454 0.52283 0 0.86211 0.12172 1.15176 0.41275 0.16759 0.16823 0.2453 0.30063 0.31996 0.54461 0.0439 0.14259 0.0472 0.17715 0.0478 0.45567 0 0.32346-0.0174 0.45618-0.12933 0.90402-0.10651 0.4297-0.36175 1.21187-0.63491 1.94581-0.23407 0.62884-0.26663 0.75897-0.26705 1.0676-2.8e-4 0.18628 4e-3 0.21497 0.0428 0.29244 0.0598 0.11911 0.12672 0.15476 0.2864 0.15237 0.54909-9e-3 1.01609-0.58285 1.34849-1.65876 0.0307-0.0993 0.0676-0.19389 0.0817-0.20997 0.0685-0.0767 0.23195-0.0493 0.26281 0.0443 0.0363 0.10933-0.10433 0.54892-0.30889 0.96638-0.3175 0.64819-0.70616 1.02031-1.17991 1.12969-0.12368 0.0285-0.3934 0.0241-0.53164-9e-3 -0.27492-0.0652-0.55653-0.27415-0.68708-0.50973-0.10281-0.18541-0.1378-0.34627-0.12889-0.59217 9e-3 -0.24312 0.0196-0.27818 0.25172-0.9112 0.3971-1.07817 0.63441-1.8907 0.71805-2.45801 0.0339-0.23023 0.0259-0.60437-0.0152-0.7545-0.11412-0.40737-0.34956-0.55118-0.84303-0.51505-0.66645 0.0489-1.30377 0.47978-1.77859 1.20271-0.16998 0.25892-0.25623 0.45472-0.32519 0.73931-0.0826 0.34051-0.11216 0.45913-0.20237 0.80932-0.0428 0.16562-0.14519 0.58028-0.22781 0.92123-0.25753 1.06337-0.43952 1.75198-0.48273 1.82671-0.11347 0.19606-0.34304 0.30418-0.55916 0.26329zm153.128-1.42851c-0.15367-0.0365-0.21905-0.1139-0.21892-0.25942 0-0.10694 0.048-0.17606 0.14911-0.21497 0.0804-0.0311 0.22668-0.0322 4.31924-0.0322h4.23601l0.0802 0.0396c0.10042 0.0493 0.14303 0.12803 0.13042 0.2404-0.0109 0.0954-0.0546 0.15737-0.14281 0.20214-0.0672 0.0341-0.10455 0.0346-4.27792 0.0372-2.43412 1e-3 -4.23764-4e-3 -4.27528-0.013zm-136.534-0.52249c-0.0896-0.0319-0.14585-0.0887-0.16715-0.1678-0.0383-0.14193 0.0315-0.26839 0.16845-0.30526 0.0496-0.013 1.29614-0.0174 4.32051-0.0152l4.2509 4e-3 0.0626 0.0389c0.0798 0.0496 0.10737 0.11651 0.0976 0.23642-9e-3 0.10173-0.0376 0.14759-0.12563 0.19563-0.0476 0.0261-0.39086 0.0287-4.29627 0.0319-3.56628 2e-3 -4.2552-2e-4 -4.31078-0.0196zm136.484-2.0963c-0.0369-0.0109-0.0863-0.0424-0.11629-0.0763-0.0976-0.11107-0.0602-0.30785 0.0719-0.38008 0.0541-0.0296 0.24868-0.0309 4.32715-0.0309 4.10886 0 4.27285 1e-3 4.334 0.0315 0.0811 0.0404 0.11672 0.0954 0.1278 0.19737 0.0109 0.10216-0.0298 0.18671-0.11389 0.23542-0.0602 0.035-0.0702 0.035-4.31348 0.0376-2.77549 2e-3 -4.27553-4e-3 -4.31744-0.0152zm-136.416-0.49769c-0.17237-0.0254-0.2416-0.0972-0.2416-0.2502 0-0.10977 0.0383-0.17106 0.13759-0.22169 0.0672-0.0341 0.10194-0.0343 4.32102-0.0343 4.1595 0 4.25466 9.4e-4 4.31978 0.033 0.0917 0.0456 0.13129 0.11651 0.13129 0.23584 0 0.11628-0.0343 0.16867-0.14172 0.21562-0.0711 0.0311-0.21388 0.0322-4.24921 0.0346-2.29666 1e-3 -4.22145-4e-3 -4.27728-0.013zm163.127-2.66052c-0.24872-0.0665-0.44141-0.2619-0.50708-0.51412-0.0356-0.13716-0.0337-0.24147 7e-3 -0.37414 0.0639-0.20671 0.19453-0.35604 0.39433-0.4507 0.10433-0.0493 0.12889-0.0541 0.28624-0.0539 0.15128 0 0.18432 7e-3 0.27268 0.047 0.21918 0.10259 0.34951 0.26254 0.40077 0.49223 0.11867 0.53168-0.34093 0.99094-0.85425 0.85359zm-193.802-0.63508c-0.22134-0.0691-0.34001-0.24936-0.3275-0.49743 9e-3 -0.16324 0.0791-0.3098 0.21584-0.44661 0.33989-0.33986 0.8429-0.28944 0.96893 0.0972 0.013 0.0378 0.0196 0.1189 0.0152 0.18932-0.0152 0.28613-0.22666 0.54609-0.52703 0.64728-0.12063 0.0406-0.23679 0.0441-0.3453 0.0109zm63.8922-8.551c-0.0352-0.0276-0.0454-0.0509-0.0454-0.10324 0-0.0593 0.013-0.0828 0.11476-0.19236 0.47269-0.51449 0.74515-1.03564 0.86655-1.65744 0.0446-0.22788 0.0826-0.73067 0.0593-0.78243-0.0152-0.0348-0.0174-0.0343-0.098 0.0226-0.16193 0.1152-0.24157 0.13998-0.45226 0.13998-0.17976 0-0.19584-2e-3 -0.30509-0.0567-0.28322-0.13933-0.44474-0.45026-0.39316-0.75665 0.0543-0.32324 0.28357-0.5486 0.598-0.58809 0.53864-0.0676 0.887 0.35684 0.95704 1.16611 0.0676 0.78063-0.19193 1.65059-0.69451 2.32844-0.18367 0.2476-0.46504 0.51571-0.54138 0.51571-0.0109 0-0.0411-0.0152-0.0659-0.0356zm91.0437-2.43216c-0.15889-0.0596-0.23951-0.16954-0.23849-0.32532 9.6e-4 -0.1176 0.0937-0.50858 0.59829-2.51903 0.52848-2.10545 0.49479-1.94843 0.49358-2.29879-9.6e-4 -0.22528-7e-3 -0.29994-0.0304-0.36043-0.073-0.1891-0.19585-0.26942-0.39077-0.25546-0.14694 0.0109-0.26377 0.0722-0.38414 0.20301-0.21345 0.23179-0.35404 0.57457-0.58092 1.41623-0.068 0.25242-0.0932 0.28818-0.20345 0.28818-0.0598 0-0.0924-0.0109-0.1215-0.0372-0.0361-0.0335-0.0389-0.0474-0.0296-0.14194 0.0269-0.27455 0.2407-0.96571 0.39242-1.26881 0.27885-0.55705 0.5877-0.77626 1.0568-0.75007 0.20432 0.0109 0.33582 0.0441 0.49936 0.12455 0.34991 0.17171 0.5802 0.49721 0.65095 0.91973l0.0196 0.12325 0.0948-0.12564c0.13955-0.18497 0.43427-0.47223 0.61589-0.6 0.28661-0.20171 0.59135-0.33464 0.93387-0.40757 0.20649-0.0439 0.69074-0.0441 0.89541-1.3e-4 0.6356 0.1365 1.01 0.54907 1.08523 1.19613 0.058 0.49921-0.15259 1.35746-0.69842 2.84487-0.31797 0.8667-0.34338 0.96612-0.33219 1.30007 9e-3 0.29026 0.0706 0.38177 0.26598 0.39949 0.55371 0.0502 1.06726-0.55147 1.40771-1.64924 0.0339-0.10955 0.0761-0.21236 0.0937-0.22814 0.0465-0.0422 0.1828-0.0387 0.22714 7e-3 0.0454 0.0454 0.0437 0.11129-9e-3 0.30517-0.0598 0.22345-0.15085 0.4615-0.26848 0.70216-0.29055 0.59467-0.64991 0.96427-1.07506 1.10571-0.12086 0.0402-0.1652 0.0459-0.3616 0.0459-0.19737 0-0.24055-7e-3 -0.36532-0.0467-0.34167-0.11303-0.59965-0.37932-0.7044-0.72679-0.0385-0.12759-0.043-0.45469-9e-3 -0.59317 0.013-0.0522 0.10303-0.31167 0.20019-0.57685 0.54068-1.47674 0.77325-2.3509 0.77195-2.90149-9.3e-4 -0.37397-0.068-0.59428-0.23073-0.75698-0.13389-0.13389-0.23051-0.16389-0.52423-0.1628-0.26765 9.3e-4 -0.43747 0.0333-0.6774 0.12846-0.48258 0.19149-0.96068 0.62658-1.29289 1.17655-0.14042 0.23261-0.18932 0.35397-0.26179 0.6517-0.0376 0.15411-0.1102 0.43922-0.1615 0.63337-0.0513 0.1941-0.1215 0.47697-0.15606 0.62852-0.1352 0.59276-0.54227 2.18153-0.57601 2.24767-0.0904 0.17693-0.25972 0.29072-0.45163 0.30306-0.0652 4e-3 -0.13215-2e-3 -0.16997-0.0174zm41.5434-1e-3c-0.0496-0.0363-0.0569-0.19301-0.0567-1.22425 0-0.97953 7e-3 -1.10119 0.0576-1.13873 0.0504-0.037 0.20345-0.0306 0.24012 0.0109 0.0174 0.0174 0.0565 0.13998 0.0883 0.26992 0.26622 1.08517 0.68188 1.60248 1.42688 1.77583 0.18888 0.0439 0.70785 0.0389 0.9168-9e-3 0.51058-0.11715 0.82464-0.3724 0.95927-0.77975 0.13129-0.39727 0.0472-0.82825-0.21671-1.11041-0.25837-0.2762-0.5743-0.41378-1.28509-0.55965-1.05759-0.21715-1.37991-0.34654-1.73397-0.6966-0.31714-0.31352-0.44139-0.60482-0.44063-1.03307 1e-3 -0.90997 0.6651-1.5189 1.77301-1.62713 0.66377-0.0648 1.13916 0.0348 1.59011 0.33345l0.0465 0.0309 0.1515-0.14563c0.24611-0.23658 0.34182-0.28096 0.43804-0.20302l0.0407 0.0328 4e-3 0.92312 4e-3 0.92311-0.0426 0.0426c-0.0717 0.0717-0.25862 0.0491-0.27685-0.0335-4e-3 -0.0196-0.0152-0.11716-0.0263-0.2165-0.067-0.65731-0.31617-1.0693-0.78293-1.29374-0.22816-0.10977-0.36819-0.13846-0.72448-0.14824-0.36086-0.0109-0.57112 0.0152-0.82334 0.1002-0.21084 0.0706-0.32432 0.13824-0.46269 0.27581-0.20063 0.19932-0.29431 0.47352-0.25712 0.75206 0.0402 0.30142 0.2078 0.51432 0.52938 0.67267 0.25488 0.12541 0.4863 0.19127 1.10112 0.3128 0.58744 0.11607 0.78432 0.1728 1.03318 0.29735 0.18389 0.0919 0.31032 0.17975 0.47352 0.32825 0.40581 0.36945 0.59365 0.77939 0.59317 1.2944 0 0.2459-0.0248 0.41503-0.0883 0.60998-0.21812 0.66955-0.76328 1.09216-1.58116 1.22573-0.2176 0.0354-0.77632 0.0306-0.95568-9e-3 -0.34676-0.0754-0.67986-0.24173-0.94708-0.47282l-0.0602-0.0522-0.27553 0.28313c-0.25468 0.26172-0.28013 0.28311-0.3368 0.28296-0.0337-9e-5 -0.0761-0.0109-0.0943-0.0243zm7.75561-9.5e-4c-0.83705-0.12042-1.59798-0.61167-2.06809-1.33535-0.76176-1.17257-0.65877-2.75014 0.25025-3.83346 0.41618-0.496 0.98344-0.8226 1.63083-0.93895 0.18736-0.0337 0.68922-0.0287 0.89541 9e-3 1.06754 0.19432 1.76202 1.02077 1.89351 2.25324 0.0232 0.21794 0.0217 0.45443-4e-3 0.53018-0.0152 0.0454-0.0354 0.0652-0.0809 0.0809-0.0452 0.0152-0.54935 0.0217-2.02162 0.0217l-1.96136 9.3e-4 0.0109 0.35732c0.0235 0.77519 0.15107 1.27668 0.43246 1.69949 0.2329 0.35003 0.58005 0.62834 0.93956 0.75324 0.33863 0.11759 0.76667 0.11389 1.12977-9e-3 0.58405-0.19888 1.04098-0.69018 1.2225-1.31463 0.0437-0.14998 0.15476-0.20084 0.27709-0.12629 0.0776 0.0474 0.088 0.12085 0.0398 0.28007-0.0919 0.30378-0.31295 0.65353-0.58539 0.92673-0.32595 0.32687-0.69027 0.52617-1.13246 0.61954-0.22073 0.0465-0.63843 0.0593-0.86757 0.0263zm1.73355-3.6729c-0.0737-1.10034-0.42765-1.83008-1.00511-2.07168-0.7052-0.29504-1.5143 0.083-1.89579 0.886-0.0811 0.17085-0.16193 0.41375-0.20801 0.62615-0.0361 0.16606-0.0859 0.5507-0.0859 0.66273v0.0648h3.20603zm-148.923 3.33845v-0.20432l0.5209-9e-3c0.55342-9e-3 0.7475-0.0313 0.91067-0.1015 0.0998-0.043 0.17824-0.12651 0.20323-0.21649 0.013-0.0443 0.0174-1.20676 0.0174-3.66725l1.7e-4 -3.60219-0.12476 0.0567c-0.38118 0.17302-0.82051 0.26387-1.42062 0.29391l-0.19367 9e-3v-0.43124h0.18519c0.83816 0 1.65142-0.28872 2.1521-0.76405l0.10738-0.10194 0.11563 0.0109c0.0835 9e-3 0.12542 0.0196 0.15085 0.0461l0.0352 0.0352 9e-3 4.04178c9e-3 3.84279 0.0109 4.0452 0.0396 4.11045 0.0424 0.0939 0.0872 0.13759 0.18367 0.1791 0.16236 0.0698 0.35644 0.0911 0.91745 0.10064l0.52949 9e-3v0.40864l-0.39173-0.013c-0.21562-7e-3 -1.01561-0.013-1.778-0.013s-1.56245 7e-3 -1.77789 0.013l-0.39175 0.013zm125.306 0v-0.20432l0.52091-9e-3c0.55341-9e-3 0.74747-0.0313 0.91065-0.1015 0.0974-0.0419 0.17584-0.1239 0.20714-0.21649 0.0174-0.0517 0.023-0.80504 0.0274-3.66823 2e-3 -1.98173 2e-3 -3.60317-2e-3 -3.60317s-0.0641 0.0259-0.13389 0.0576c-0.37584 0.17063-0.83718 0.26662-1.41414 0.29437l-0.20236 9e-3v-0.43081h0.18519c0.83818 0 1.65141-0.28872 2.15212-0.76404l0.10738-0.10194 0.11563 0.0109c0.0835 9e-3 0.12542 0.0196 0.15085 0.0461l0.0352 0.0352 9e-3 4.04178c9e-3 3.84279 0.0109 4.04519 0.0396 4.11044 0.0424 0.0939 0.0872 0.13759 0.18367 0.17911 0.16237 0.0698 0.35645 0.0911 0.91746 0.10063l0.52951 9e-3v0.40863l-0.39175-0.013c-0.2154-7e-3 -1.01553-0.013-1.77792-0.013-0.76238 0-1.56244 7e-3 -1.77791 0.013l-0.39173 0.013v-0.20431zm10.3489-1e-3v-0.20758h0.24583c0.44946 0 0.64665-0.0456 0.72985-0.16932 0.0754-0.11194 0.0774-0.17519 0.0715-2.32759-4e-3 -1.90594-9e-3 -2.04649-0.0363-2.13115-0.0174-0.0498-0.0541-0.11737-0.0828-0.14976-0.0945-0.10759-0.32876-0.16411-0.67964-0.16411h-0.17954v-0.42341l0.83944-0.065c0.46172-0.0359 0.87992-0.0693 0.92939-0.0748l0.09-9e-3 4e-3 2.60677 4e-3 2.60675 0.043 0.0852c0.0237 0.047 0.0624 0.0989 0.0861 0.11585 0.0789 0.0559 0.23981 0.085 0.52949 0.0954l0.27981 0.0109v0.41081l-0.42618-0.0152c-0.54064-0.0174-1.35717-0.0174-1.97163-3.5e-4l-0.47784 0.013v-0.20758zm-25.5139-1.58598c-0.12173-0.0152-0.15172-0.0293-0.21193-0.0937-0.0374-0.04-0.043-0.0617-0.043-0.16649 0-0.11368 4e-3 -0.12346 0.0546-0.16933 0.0337-0.0302 0.0895-0.0561 0.14628-0.0678 0.0659-0.013 1.28262-0.0174 4.30201-0.0152l4.21014 4e-3 0.0746 0.0398c0.0904 0.0482 0.13107 0.13041 0.11889 0.23929-0.0109 0.10042-0.0526 0.1565-0.14737 0.2004l-0.0804 0.0372-4.1585 2e-3c-2.28719 1e-3 -4.20648-4e-3 -4.2651-0.0109zm-0.0624-2.61586c-0.14106-0.0276-0.20584-0.11411-0.19649-0.26325 7e-3 -0.11672 0.0596-0.18519 0.16606-0.21714 0.0485-0.0152 1.17301-0.0196 4.30038-0.0196h4.23464l0.0769 0.0387c0.17911 0.0904 0.18367 0.34269 9e-3 0.43361l-0.0689 0.0357-4.22739 2e-3c-2.32505 1e-3 -4.25694-4e-3 -4.29307-0.0109zm26.7128-3.15856c-0.39109-0.0872-0.64475-0.48878-0.54483-0.86283 0.0554-0.20736 0.20106-0.3866 0.3886-0.47841 0.1065-0.0522 0.12433-0.0554 0.3026-0.0554 0.17259 0 0.19824 4e-3 0.28744 0.048 0.13846 0.068 0.26085 0.18432 0.32119 0.30498 0.22112 0.44252-0.0196 0.96259-0.48695 1.04865-0.12237 0.0226-0.14563 0.0222-0.26805-4e-3z" stroke-width=".0172195"/></g></svg>
