<svg width="68.012mm" height="30.0602mm" version="1.1" viewBox="0 0 68.012 30.0602" xmlns="http://www.w3.org/2000/svg"><defs><clipPath id="b"><path d="m51.36 649.3h191.81v87.744h-191.81z" clip-rule="evenodd"/></clipPath><clipPath id="a"><path d="m49.44 647.26h195.77v91.704h-195.77z" clip-rule="evenodd"/></clipPath></defs><g transform="translate(-47.2211 -88.5595)"><g transform="matrix(.352778 0 0 -.352778 29.4446 347.675)"><g clip-path="url(#b)"><g><path d="m50.88 678.72h191.93v14.64h-191.93z" fill="#d8d8d8" fill-rule="evenodd"/><path d="m50.88 649.66h191.93v14.664h-191.93z" fill="#d8d8d8" fill-rule="evenodd"/><text transform="matrix(1,0,0,-1,53.04,726.84)" fill="#000000" font-family="cmbxti10" font-size="11.04px"><tspan x="0 7.1760001 14.0208 24.46464 30.337919 36.211201 41.742241 51.468479 57.948959" y="0">number=10</tspan></text></g><text transform="matrix(1,0,0,-1,53.04,697.2)" fill="#000000" font-family="cmcsc8" font-size="11.04px" stroke="#000000" stroke-miterlimit="10" stroke-width=".31543"><tspan x="0 6.2265601 13.65648 20.72208 28.03056 33.418079 37.006081 44.071678 51.501598" y="0">fonksiyon</tspan></text><text transform="matrix(1,0,0,-1,159.02,697.2)" fill="#000000" font-family="cmcsc8" font-size="11.04px" stroke="#000000" stroke-miterlimit="10" stroke-width=".31543"><tspan x="0 7.9046402 14.97024 23.603519 30.669121 37.734718 43.718399 50.784 59.417278" y="0">Zamanlama</tspan></text><g fill="#000000" font-size="11.04px"><text transform="matrix(1,0,0,-1,53.04,682.68)" font-family="cmbxti10"><tspan x="0 7.69488 13.56816 19.441441 25.31472 32.490719 39.015362 44.546398 50.419682 55.663681 62.144161 68.624641 75.105118" y="0">Legendre(100)</tspan></text><text transform="matrix(1,0,0,-1,173.42,682.68)" font-family="cmbx10"><tspan x="0 6.348 9.8697596 16.21776 22.56576 28.913759 35.261761 41.60976 47.990879 54.338879 60.686878" y="0">0,000222643</tspan></text><text transform="matrix(1,0,0,-1,53.04,668.16)" font-family="cmbxti10"><tspan x="0 7.69488 13.56816 19.441441 25.31472 32.490719 39.015362 44.546398 50.419682 55.663681 62.144161 68.624641 75.105118 81.585602" y="0">Legendre(1000)</tspan></text><text transform="matrix(1,0,0,-1,173.42,668.16)" font-family="cmbx10"><tspan x="0 6.348 9.8697596 16.21776 22.56576 28.913759 35.261761 41.60976 47.990879 54.338879 60.686878" y="0">0,010299206</tspan></text><text transform="matrix(1,0,0,-1,53.04,653.64)" font-family="cmbxti10"><tspan x="0 7.69488 13.56816 19.441441 25.31472 32.490719 39.015362 44.546398 50.419682 55.663681 62.144161 68.624641 75.105118 81.585602 88.066078" y="0">Legendre(10000)</tspan></text><text transform="matrix(1,0,0,-1,173.42,653.64)" font-family="cmbx10"><tspan x="0 6.348 12.696 19.06608 22.54368 28.89168 35.239681 41.60976 47.95776 54.305759 60.675838" y="0">752,3459562</tspan></text></g></g><g clip-path="url(#a)"><path d="m50.46 723.42v-74.06" fill="none" stroke="#000" stroke-linecap="square" stroke-linejoin="round" stroke-miterlimit="10" stroke-width=".14"/><path d="m50.4 649.3h0.96v74.184h-0.96z" fill-rule="evenodd"/><path d="m156.44 722.46v-73.1" fill="none" stroke="#000" stroke-linecap="square" stroke-linejoin="round" stroke-miterlimit="10" stroke-width=".14"/><path d="m156.38 649.3h0.95999v73.224h-0.95999z" fill-rule="evenodd"/><path d="m242.27 722.46v-73.1" fill="none" stroke="#000" stroke-linecap="square" stroke-linejoin="round" stroke-miterlimit="10" stroke-width=".14"/><path d="m242.21 649.3h0.95999v73.224h-0.95999z" fill-rule="evenodd"/><path d="m51.42 723.42h191.69" fill="none" stroke="#000" stroke-linecap="square" stroke-linejoin="round" stroke-miterlimit="10" stroke-width=".14"/><path d="m51.36 722.52h191.81v0.96h-191.81z" fill-rule="evenodd"/><path d="m51.42 693.78h191.69" fill="none" stroke="#000" stroke-linecap="square" stroke-linejoin="round" stroke-miterlimit="10" stroke-width=".14"/><path d="m51.36 692.88h191.81v0.96h-191.81z" fill-rule="evenodd"/><path d="m51.42 679.26h191.69" fill="none" stroke="#000" stroke-linecap="square" stroke-linejoin="round" stroke-miterlimit="10" stroke-width=".14"/><path d="m51.36 678.36h191.81v0.96h-191.81z" fill-rule="evenodd"/><path d="m51.42 664.74h191.69" fill="none" stroke="#000" stroke-linecap="square" stroke-linejoin="round" stroke-miterlimit="10" stroke-width=".14"/><path d="m51.36 663.84h191.81v0.96h-191.81z" fill-rule="evenodd"/><path d="m51.42 650.2h191.69" fill="none" stroke="#000" stroke-linecap="square" stroke-linejoin="round" stroke-miterlimit="10" stroke-width=".14"/><path d="m51.36 649.3h191.81v0.95999h-191.81z" fill-rule="evenodd"/></g></g></g></svg>
