<?xml version="1.0" encoding="UTF-8" standalone="no"?>
<!DOCTYPE svg PUBLIC "-//W3C//DTD SVG 1.1//EN"
 "http://www.w3.org/Graphics/SVG/1.1/DTD/svg11.dtd">
<!-- Generated by graphviz version 2.40.1 (0)
 -->
<!-- Title: DFA Pages: 1 -->
<svg
 viewBox="0.00 0.00 795.00 131.00" xmlns="http://www.w3.org/2000/svg" xmlns:xlink="http://www.w3.org/1999/xlink">
<g id="graph0" class="graph" transform="scale(1 1) rotate(0) translate(4 127)">
<title>DFA</title>
<polygon fill="#ffffff" stroke="transparent" points="-4,4 -4,-127 791,-127 791,4 -4,4"/>
<!-- A -->
<g id="node1" class="node">
<title>A</title>
<polygon fill="none" stroke="#000000" points="27,-78 0,-60 27,-42 54,-60 27,-78"/>
<polyline fill="none" stroke="#000000" points="9,-66 9,-54 "/>
<polyline fill="none" stroke="#000000" points="18,-48 36,-48 "/>
<polyline fill="none" stroke="#000000" points="45,-54 45,-66 "/>
<polyline fill="none" stroke="#000000" points="36,-72 18,-72 "/>
<text text-anchor="middle" x="27" y="-56.3" font-family="Times,serif" font-size="14.00" fill="#000000">A</text>
</g>
<!-- B -->
<g id="node2" class="node">
<title>B</title>
<polygon fill="none" stroke="#000000" points="258,-123 222,-123 222,-87 258,-87 258,-123"/>
<polyline fill="none" stroke="#000000" points="234,-123 222,-111 "/>
<polyline fill="none" stroke="#000000" points="222,-99 234,-87 "/>
<polyline fill="none" stroke="#000000" points="246,-87 258,-99 "/>
<polyline fill="none" stroke="#000000" points="258,-111 246,-123 "/>
<text text-anchor="middle" x="240" y="-101.3" font-family="Times,serif" font-size="14.00" fill="#000000">B</text>
</g>
<!-- A&#45;&gt;B -->
<g id="edge1" class="edge">
<title>A&#45;&gt;B</title>
<path fill="none" stroke="#000000" d="M43.0146,-67.4743C51.5065,-71.2547 62.1865,-75.7234 72,-79 119.4904,-94.8563 177.8125,-101.115 211.7571,-103.5332"/>
<polygon fill="#000000" stroke="#000000" points="211.6709,-107.0349 221.8768,-104.1907 212.1248,-100.0496 211.6709,-107.0349"/>
<text text-anchor="middle" x="131" y="-100.8" font-family="Times,serif" font-size="14.00" fill="#000000">0</text>
</g>
<!-- D -->
<g id="node3" class="node">
<title>D</title>
<polygon fill="none" stroke="#000000" points="258,-36 222,-36 222,0 258,0 258,-36"/>
<polyline fill="none" stroke="#000000" points="234,-36 222,-24 "/>
<polyline fill="none" stroke="#000000" points="222,-12 234,0 "/>
<polyline fill="none" stroke="#000000" points="246,0 258,-12 "/>
<polyline fill="none" stroke="#000000" points="258,-24 246,-36 "/>
<text text-anchor="middle" x="240" y="-14.3" font-family="Times,serif" font-size="14.00" fill="#000000">D</text>
</g>
<!-- A&#45;&gt;D -->
<g id="edge3" class="edge">
<title>A&#45;&gt;D</title>
<path fill="none" stroke="#000000" d="M39.7772,-50.3927C54.4016,-40.0513 79.5063,-24.2457 104,-18 140.1542,-8.7809 183.4945,-10.9433 211.3733,-13.9489"/>
<polygon fill="#000000" stroke="#000000" points="211.2617,-17.4602 221.6051,-15.1657 212.0884,-10.5092 211.2617,-17.4602"/>
<text text-anchor="middle" x="131" y="-21.8" font-family="Times,serif" font-size="14.00" fill="#000000">[1&#45;9]</text>
</g>
<!-- C -->
<g id="node6" class="node">
<title>C</title>
<ellipse fill="none" stroke="#000000" cx="131" cy="-60" rx="27" ry="18"/>
<text text-anchor="middle" x="131" y="-56.3" font-family="Times,serif" font-size="14.00" fill="#000000">C</text>
</g>
<!-- A&#45;&gt;C -->
<g id="edge2" class="edge">
<title>A&#45;&gt;C</title>
<path fill="none" stroke="#000000" d="M54.0533,-60C66.1157,-60 80.5252,-60 93.5959,-60"/>
<polygon fill="#000000" stroke="#000000" points="93.7209,-63.5001 103.7209,-60 93.7208,-56.5001 93.7209,-63.5001"/>
<text text-anchor="middle" x="79" y="-63.8" font-family="Times,serif" font-size="14.00" fill="#000000">[&#45;]</text>
</g>
<!-- E -->
<g id="node7" class="node">
<title>E</title>
<ellipse fill="none" stroke="#000000" cx="334" cy="-61" rx="27" ry="18"/>
<text text-anchor="middle" x="334" y="-57.3" font-family="Times,serif" font-size="14.00" fill="#000000">E</text>
</g>
<!-- B&#45;&gt;E -->
<g id="edge4" class="edge">
<title>B&#45;&gt;E</title>
<path fill="none" stroke="#000000" d="M258.1241,-96.5164C270.6406,-90.6576 287.6179,-82.7108 302.3398,-75.8197"/>
<polygon fill="#000000" stroke="#000000" points="304.0459,-78.8856 311.619,-71.4762 301.0783,-72.5458 304.0459,-78.8856"/>
<text text-anchor="middle" x="282.5" y="-89.8" font-family="Times,serif" font-size="14.00" fill="#000000">[.]</text>
</g>
<!-- D&#45;&gt;D -->
<g id="edge7" class="edge">
<title>D&#45;&gt;D</title>
<path fill="none" stroke="#000000" d="M232.4019,-36.1527C231.2329,-45.5391 233.7656,-54 240,-54 243.7991,-54 246.2236,-50.8581 247.2735,-46.2796"/>
<polygon fill="#000000" stroke="#000000" points="250.7759,-46.2597 247.5981,-36.1527 243.7794,-46.0354 250.7759,-46.2597"/>
<text text-anchor="middle" x="240" y="-57.8" font-family="Times,serif" font-size="14.00" fill="#000000">[0&#45;9]</text>
</g>
<!-- D&#45;&gt;E -->
<g id="edge8" class="edge">
<title>D&#45;&gt;E</title>
<path fill="none" stroke="#000000" d="M258.1241,-26.2908C270.6406,-32.0164 287.6179,-39.7826 302.3398,-46.5171"/>
<polygon fill="#000000" stroke="#000000" points="301.0693,-49.7847 311.619,-50.7619 303.9813,-43.4191 301.0693,-49.7847"/>
<text text-anchor="middle" x="282.5" y="-42.8" font-family="Times,serif" font-size="14.00" fill="#000000">[.]</text>
</g>
<!-- F -->
<g id="node4" class="node">
<title>F</title>
<polygon fill="none" stroke="#000000" points="461,-79 425,-79 425,-43 461,-43 461,-79"/>
<polyline fill="none" stroke="#000000" points="437,-79 425,-67 "/>
<polyline fill="none" stroke="#000000" points="425,-55 437,-43 "/>
<polyline fill="none" stroke="#000000" points="449,-43 461,-55 "/>
<polyline fill="none" stroke="#000000" points="461,-67 449,-79 "/>
<text text-anchor="middle" x="443" y="-57.3" font-family="Times,serif" font-size="14.00" fill="#000000">F</text>
</g>
<!-- F&#45;&gt;F -->
<g id="edge10" class="edge">
<title>F&#45;&gt;F</title>
<path fill="none" stroke="#000000" d="M434.3164,-79.1527C432.9805,-88.5391 435.875,-97 443,-97 447.3418,-97 450.1127,-93.8581 451.3126,-89.2796"/>
<polygon fill="#000000" stroke="#000000" points="454.815,-89.2742 451.6836,-79.1527 447.8197,-89.0178 454.815,-89.2742"/>
<text text-anchor="middle" x="443" y="-100.8" font-family="Times,serif" font-size="14.00" fill="#000000">[0&#45;9]</text>
</g>
<!-- G -->
<g id="node8" class="node">
<title>G</title>
<ellipse fill="none" stroke="#000000" cx="548" cy="-61" rx="27" ry="18"/>
<text text-anchor="middle" x="548" y="-57.3" font-family="Times,serif" font-size="14.00" fill="#000000">G</text>
</g>
<!-- F&#45;&gt;G -->
<g id="edge11" class="edge">
<title>F&#45;&gt;G</title>
<path fill="none" stroke="#000000" d="M461.2896,-61C474.9137,-61 493.982,-61 510.7691,-61"/>
<polygon fill="#000000" stroke="#000000" points="510.8575,-64.5001 520.8575,-61 510.8575,-57.5001 510.8575,-64.5001"/>
<text text-anchor="middle" x="491" y="-64.8" font-family="Times,serif" font-size="14.00" fill="#000000">[eE]</text>
</g>
<!-- J -->
<g id="node5" class="node">
<title>J</title>
<polygon fill="none" stroke="#000000" points="787,-79 751,-79 751,-43 787,-43 787,-79"/>
<polyline fill="none" stroke="#000000" points="763,-79 751,-67 "/>
<polyline fill="none" stroke="#000000" points="751,-55 763,-43 "/>
<polyline fill="none" stroke="#000000" points="775,-43 787,-55 "/>
<polyline fill="none" stroke="#000000" points="787,-67 775,-79 "/>
<text text-anchor="middle" x="769" y="-57.3" font-family="Times,serif" font-size="14.00" fill="#000000">J</text>
</g>
<!-- J&#45;&gt;J -->
<g id="edge15" class="edge">
<title>J&#45;&gt;J</title>
<path fill="none" stroke="#000000" d="M759.9546,-79.1527C758.563,-88.5391 761.5781,-97 769,-97 773.5227,-97 776.409,-93.8581 777.6589,-89.2796"/>
<polygon fill="#000000" stroke="#000000" points="781.1614,-89.2789 778.0454,-79.1527 774.1665,-89.0119 781.1614,-89.2789"/>
<text text-anchor="middle" x="769" y="-100.8" font-family="Times,serif" font-size="14.00" fill="#000000">[0&#45;9]</text>
</g>
<!-- C&#45;&gt;B -->
<g id="edge5" class="edge">
<title>C&#45;&gt;B</title>
<path fill="none" stroke="#000000" d="M155.7496,-67.2734C170.0828,-71.7812 188.3328,-78.0312 204,-85 206.8478,-86.2667 209.7697,-87.682 212.6578,-89.1585"/>
<polygon fill="#000000" stroke="#000000" points="211.1698,-92.332 221.6362,-93.9765 214.4797,-86.164 211.1698,-92.332"/>
<text text-anchor="middle" x="190" y="-88.8" font-family="Times,serif" font-size="14.00" fill="#000000">0</text>
</g>
<!-- C&#45;&gt;D -->
<g id="edge6" class="edge">
<title>C&#45;&gt;D</title>
<path fill="none" stroke="#000000" d="M154.3832,-50.9899C171.3784,-44.4413 194.4448,-35.5534 212.3537,-28.6527"/>
<polygon fill="#000000" stroke="#000000" points="213.6283,-31.9125 221.7011,-25.0509 211.1114,-25.3806 213.6283,-31.9125"/>
<text text-anchor="middle" x="190" y="-44.8" font-family="Times,serif" font-size="14.00" fill="#000000">[1&#45;9]</text>
</g>
<!-- E&#45;&gt;F -->
<g id="edge9" class="edge">
<title>E&#45;&gt;F</title>
<path fill="none" stroke="#000000" d="M361.2241,-61C377.5696,-61 398.3254,-61 414.8359,-61"/>
<polygon fill="#000000" stroke="#000000" points="414.9837,-64.5001 424.9837,-61 414.9836,-57.5001 414.9837,-64.5001"/>
<text text-anchor="middle" x="393" y="-64.8" font-family="Times,serif" font-size="14.00" fill="#000000">[0&#45;9]</text>
</g>
<!-- G&#45;&gt;J -->
<g id="edge13" class="edge">
<title>G&#45;&gt;J</title>
<path fill="none" stroke="#000000" d="M574.1016,-65.6774C580.2782,-66.6128 586.8558,-67.4698 593,-68 654.9981,-73.3505 671.2377,-77.6033 733,-70 735.5736,-69.6832 738.2279,-69.2435 740.8738,-68.7274"/>
<polygon fill="#000000" stroke="#000000" points="741.8754,-72.0891 750.8491,-66.4568 740.3217,-65.2636 741.8754,-72.0891"/>
<text text-anchor="middle" x="660" y="-77.8" font-family="Times,serif" font-size="14.00" fill="#000000">[0&#45;9]</text>
</g>
<!-- H -->
<g id="node9" class="node">
<title>H</title>
<ellipse fill="none" stroke="#000000" cx="660" cy="-34" rx="27" ry="18"/>
<text text-anchor="middle" x="660" y="-30.3" font-family="Times,serif" font-size="14.00" fill="#000000">H</text>
</g>
<!-- G&#45;&gt;H -->
<g id="edge12" class="edge">
<title>G&#45;&gt;H</title>
<path fill="none" stroke="#000000" d="M573.4145,-54.8733C588.4867,-51.2398 607.823,-46.5784 624.3978,-42.5827"/>
<polygon fill="#000000" stroke="#000000" points="625.3971,-45.9421 634.2984,-40.1959 623.7566,-39.1371 625.3971,-45.9421"/>
<text text-anchor="middle" x="604" y="-52.8" font-family="Times,serif" font-size="14.00" fill="#000000">[&#45;+]</text>
</g>
<!-- H&#45;&gt;J -->
<g id="edge14" class="edge">
<title>H&#45;&gt;J</title>
<path fill="none" stroke="#000000" d="M685.5557,-40.3303C702.1263,-44.435 723.7261,-49.7854 740.7978,-54.0141"/>
<polygon fill="#000000" stroke="#000000" points="740.2086,-57.4739 750.7568,-56.481 741.8917,-50.6792 740.2086,-57.4739"/>
<text text-anchor="middle" x="719" y="-54.8" font-family="Times,serif" font-size="14.00" fill="#000000">[0&#45;9]</text>
</g>
</g>
</svg>
