<?xml version="1.0" encoding="UTF-8" standalone="no"?>
<!DOCTYPE svg PUBLIC "-//W3C//DTD SVG 1.1//EN"
 "http://www.w3.org/Graphics/SVG/1.1/DTD/svg11.dtd">
<!-- Generated by graphviz version 2.40.1 (0)
 -->
<!-- Title: example2 Pages: 1 -->
<svg width="371pt" height="125pt"
 viewBox="0.00 0.00 371.00 125.00" xmlns="http://www.w3.org/2000/svg" xmlns:xlink="http://www.w3.org/1999/xlink">
<g id="graph0" class="graph" transform="scale(1 1) rotate(0) translate(4 121)">
<title>example2</title>
<polygon fill="#ffffff" stroke="transparent" points="-4,4 -4,-121 367,-121 367,4 -4,4"/>
<!-- A -->
<g id="node1" class="node">
<title>A</title>
<polygon fill="none" stroke="#000000" points="27,-36 0,-18 27,0 54,-18 27,-36"/>
<polyline fill="none" stroke="#000000" points="9,-24 9,-12 "/>
<polyline fill="none" stroke="#000000" points="18,-6 36,-6 "/>
<polyline fill="none" stroke="#000000" points="45,-12 45,-24 "/>
<polyline fill="none" stroke="#000000" points="36,-30 18,-30 "/>
<text text-anchor="middle" x="27" y="-14.3" font-family="Times,serif" font-size="14.00" fill="#000000">A</text>
</g>
<!-- B -->
<g id="node3" class="node">
<title>B</title>
<ellipse fill="none" stroke="#000000" cx="139" cy="-48" rx="27" ry="18"/>
<text text-anchor="middle" x="139" y="-44.3" font-family="Times,serif" font-size="14.00" fill="#000000">B</text>
</g>
<!-- A&#45;&gt;B -->
<g id="edge1" class="edge">
<title>A&#45;&gt;B</title>
<path fill="none" stroke="#000000" d="M46.5089,-23.2256C62.3403,-27.4661 85.0634,-33.5527 104.0245,-38.6316"/>
<polygon fill="#000000" stroke="#000000" points="103.2563,-42.0491 113.8214,-41.2557 105.0675,-35.2875 103.2563,-42.0491"/>
<text text-anchor="middle" x="83" y="-38.8" font-family="Times,serif" font-size="14.00" fill="#000000">[ab]</text>
</g>
<!-- D -->
<g id="node4" class="node">
<title>D</title>
<ellipse fill="none" stroke="#000000" cx="336" cy="-48" rx="27" ry="18"/>
<text text-anchor="middle" x="336" y="-44.3" font-family="Times,serif" font-size="14.00" fill="#000000">D</text>
</g>
<!-- A&#45;&gt;D -->
<g id="edge2" class="edge">
<title>A&#45;&gt;D</title>
<path fill="none" stroke="#000000" d="M53.4479,-17.5046C81.4563,-17.2291 126.9336,-17.4925 166,-21 212.5296,-25.1776 265.6253,-34.3214 299.9168,-40.8083"/>
<polygon fill="#000000" stroke="#000000" points="299.447,-44.2819 309.9272,-42.7277 300.7652,-37.4071 299.447,-44.2819"/>
<text text-anchor="middle" x="187.5" y="-26.8" font-family="Times,serif" font-size="14.00" fill="#000000">c</text>
</g>
<!-- C -->
<g id="node2" class="node">
<title>C</title>
<polygon fill="none" stroke="#000000" points="245,-117 209,-117 209,-81 245,-81 245,-117"/>
<polyline fill="none" stroke="#000000" points="221,-117 209,-105 "/>
<polyline fill="none" stroke="#000000" points="209,-93 221,-81 "/>
<polyline fill="none" stroke="#000000" points="233,-81 245,-93 "/>
<polyline fill="none" stroke="#000000" points="245,-105 233,-117 "/>
<text text-anchor="middle" x="227" y="-95.3" font-family="Times,serif" font-size="14.00" fill="#000000">C</text>
</g>
<!-- C&#45;&gt;D -->
<g id="edge5" class="edge">
<title>C&#45;&gt;D</title>
<path fill="none" stroke="#000000" d="M245.4904,-90.3485C261.598,-82.812 285.3015,-71.7213 304.4108,-62.7803"/>
<polygon fill="#000000" stroke="#000000" points="306.0699,-65.8682 313.6442,-58.4601 303.1033,-59.5279 306.0699,-65.8682"/>
<text text-anchor="middle" x="277" y="-84.8" font-family="Times,serif" font-size="14.00" fill="#000000">[abc]</text>
</g>
<!-- B&#45;&gt;C -->
<g id="edge3" class="edge">
<title>B&#45;&gt;C</title>
<path fill="none" stroke="#000000" d="M159.4102,-59.8286C171.4221,-66.7901 186.7642,-75.6815 199.7944,-83.2331"/>
<polygon fill="#000000" stroke="#000000" points="198.386,-86.4622 208.793,-88.4482 201.896,-80.4057 198.386,-86.4622"/>
<text text-anchor="middle" x="187.5" y="-81.8" font-family="Times,serif" font-size="14.00" fill="#000000">a</text>
</g>
<!-- B&#45;&gt;D -->
<g id="edge4" class="edge">
<title>B&#45;&gt;D</title>
<path fill="none" stroke="#000000" d="M166.392,-48C200.795,-48 259.9784,-48 298.5468,-48"/>
<polygon fill="#000000" stroke="#000000" points="298.8407,-51.5001 308.8406,-48 298.8406,-44.5001 298.8407,-51.5001"/>
<text text-anchor="middle" x="227" y="-51.8" font-family="Times,serif" font-size="14.00" fill="#000000">[bc]</text>
</g>
<!-- D&#45;&gt;D -->
<g id="edge6" class="edge">
<title>D&#45;&gt;D</title>
<path fill="none" stroke="#000000" d="M325.7224,-65.0373C323.6249,-74.8579 327.0508,-84 336,-84 341.5933,-84 345.029,-80.4289 346.3071,-75.3529"/>
<polygon fill="#000000" stroke="#000000" points="349.8063,-75.0272 346.2776,-65.0373 342.8063,-75.0473 349.8063,-75.0272"/>
<text text-anchor="middle" x="336" y="-87.8" font-family="Times,serif" font-size="14.00" fill="#000000">[abc]</text>
</g>
</g>
</svg>
